<svg width="100" height="239" viewBox="0 0 100 239" fill="none" xmlns="http://www.w3.org/2000/svg">
<path d="M57.1109 7.81853L57.1096 7.81953L57.1102 7.81903L57.1109 7.81853Z" fill="#333333"/>
<path d="M55.1064 9.69848C55.1112 9.71819 55.1258 9.7834 55.1263 9.78539C55.1345 9.75094 55.127 9.72227 55.1064 9.69848Z" fill="#333333"/>
<path d="M99.5254 39.144C98.598 35.8859 96.5278 33.2507 93.537 31.1431C93.26 30.9479 92.9019 30.816 92.73 30.4956C92.9532 30.2096 93.1673 29.9476 93.3671 29.6777C95.0668 27.3811 96.0368 24.886 95.9359 22.1378C95.7742 17.7306 93.5283 14.3487 89.1254 12.1196C86.4307 10.7554 83.4901 10.2757 80.3859 10.571C80.0973 10.5984 79.8076 10.6181 79.5197 10.6513C78.961 10.7156 78.7944 10.7339 78.6991 10.1623C78.5628 9.34378 78.2968 8.54518 77.9218 7.78053C76.5282 4.93942 74.1658 2.90116 70.9988 1.54903C67.6172 0.105298 64.0498 -0.277515 60.3443 0.218977C56.3724 0.751216 52.9356 2.21594 50.0798 4.68434C49.9716 4.77772 49.8435 4.85366 49.7377 4.92862C49.3463 4.74365 49.192 4.43203 48.9571 4.18596C47.4202 2.57558 45.5897 1.30187 43.3049 0.597139C39.9981 -0.42278 36.8614 -0.192853 34.0232 1.72717C32.7196 2.60895 31.8078 3.75265 31.1661 5.07181C30.9761 5.46245 30.9 5.90012 30.5724 6.24412C29.7356 5.92181 28.9129 5.59672 28.0074 5.43304C26.2127 5.10845 24.453 5.2449 22.7209 5.68139C19.5906 6.47019 17.0215 7.96878 15.1856 10.3387C14.0353 11.8233 13.4927 13.4499 13.7732 15.2504C13.8006 15.4257 13.805 15.6036 13.8222 15.8054C13.6067 15.8762 13.4226 15.9601 13.2269 15.9974C11.2355 16.3772 9.48444 17.1837 7.99738 18.3682C4.11727 21.4585 2.27699 25.2715 2.82177 29.8645C3.04379 31.7355 3.86786 33.4057 5.30256 34.8355C5.48487 35.0172 5.75687 35.1454 5.81916 35.4573C5.55379 35.6531 5.27027 35.8597 4.98984 36.0695C3.65623 37.0671 2.55924 38.2332 1.72855 39.5801C0.144285 42.1485 -0.449331 44.8664 0.362197 47.719C1.21947 50.7324 3.33118 52.8132 6.79737 53.7596C8.12345 54.1216 9.48957 54.1394 10.8638 54.0128C11.3884 53.9644 11.4308 54.0046 11.4729 54.4442C11.49 54.6235 11.4868 54.8046 11.511 54.9831C11.93 58.0568 13.6473 60.3971 16.8082 61.8619C20.0972 63.386 23.8866 62.8993 26.5877 60.6804C26.824 60.4863 26.9849 60.2116 27.289 60.1373C30.8116 63.779 35.1284 64.3432 40.0305 62.6829C40.1259 62.9899 39.9428 63.2075 39.8494 63.4293C39.3231 64.6777 38.7698 65.9177 38.2296 67.1618C37.9521 67.8008 37.6727 68.4394 37.415 69.0845C37.3198 69.3229 37.1609 69.4407 36.877 69.4407C36.6695 69.4407 36.461 69.4283 36.255 69.4428C34.4629 69.57 32.739 69.9081 31.1404 70.659C29.7503 71.3121 28.9053 72.2415 29.0015 73.6803C29.0039 73.7161 28.9986 73.7524 29.0015 73.7883C29.0335 74.1749 28.8492 74.485 28.5533 74.7583C28.1527 75.1284 27.6885 75.4272 27.1944 75.696C26.3458 76.1578 25.4347 76.5051 24.476 76.7378C23.1609 77.0571 21.8319 77.3344 20.506 77.6192C19.2117 77.8972 17.9612 78.2733 16.8353 78.9025C13.9064 80.5398 11.6368 82.6683 10.2697 85.4906C8.84062 88.4411 8.034 91.4986 7.88819 94.7009C7.73052 98.1638 7.91706 101.612 8.37514 105.049C8.69904 107.479 9.14251 109.895 9.82865 112.272C10.3118 113.946 10.8435 115.609 11.3203 117.284C12.94 122.975 14.6431 128.642 17.2504 134.071C18.0318 135.698 18.7687 137.34 19.9303 138.803C21.4599 140.73 23.2739 142.377 25.8161 143.309C26.0823 143.406 26.3272 143.546 26.5901 143.652C27.2399 143.912 27.6002 144.348 27.7803 144.95C28.0334 145.795 28.1435 146.653 28.0987 147.517C28.0241 148.954 28.0021 150.396 27.7686 151.825C27.7397 152.003 27.7254 152.184 27.7297 152.363C27.739 152.735 27.995 152.965 28.4194 152.992C28.7311 153.011 29.0608 152.849 29.3643 153.06C29.326 153.377 29.0395 153.556 28.8399 153.771C27.8211 154.867 26.9241 156.033 26.1529 157.269C25.068 159.008 23.9926 160.752 22.9498 162.51C22.096 163.949 21.4056 165.453 20.7576 166.971C19.5167 169.878 18.6635 172.878 17.8982 175.9C16.9815 179.519 16.1625 183.156 15.5949 186.829C15.0604 190.287 14.6014 193.755 14.2204 197.231C13.8077 200.995 13.552 204.768 13.3529 208.542C13.2051 211.347 13.181 214.157 13.1337 216.965C13.0642 221.106 13.2265 225.244 13.4886 229.379C13.6867 232.506 13.8784 235.632 14.0731 238.759C14.5018 238.768 14.9304 238.777 15.3592 238.786C15.3373 238.754 15.3143 238.722 15.2947 238.688C15.0253 237.121 15.1025 235.534 14.9806 233.957C14.3891 226.308 14.1654 218.639 14.4733 210.982C14.9363 199.467 16.2086 188.021 18.9097 176.708C20.7526 168.989 24.0157 161.816 29.0719 155.28C31.4649 152.187 30.8763 152.752 34.5581 152.713C37.1294 152.686 39.7029 152.663 42.2729 152.722C44.2705 152.768 46.2444 152.472 48.232 152.501C52.4169 152.561 56.5979 152.813 60.7863 152.708C61.7536 152.684 62.4523 152.994 62.9251 153.746C63.2828 154.314 63.6715 154.868 63.995 155.452C67.0468 160.968 70.4464 166.331 73.3961 171.894C74.6062 174.175 75.9471 176.417 77.2639 178.66C78.7018 181.109 78.5718 183.349 76.6329 185.518C76.3639 185.819 76.1607 186.281 75.7008 186.268C75.6804 186.299 75.6594 186.329 75.6392 186.36C75.6201 186.323 75.6016 186.289 75.5836 186.255C75.0921 186.165 74.9761 185.668 74.8117 185.287C74.1397 183.73 73.8018 182.096 73.3543 180.487C73.2444 180.092 73.2829 179.614 72.7771 179.363C72.3789 179.508 72.5017 179.789 72.5344 180.014C73.4071 186.021 76.1042 191.288 80.9799 195.669C82.0539 196.634 83.2477 197.472 84.6178 198.091C85.5522 198.513 86.0059 199.129 86.1626 200.029C87.0359 205.046 87.8106 210.073 88.3411 215.128C88.6607 218.173 89.0728 221.212 89.596 224.235C90.305 228.331 90.4533 232.472 91.0426 236.576C91.1343 237.214 91.3597 237.848 91.2474 238.505C91.2356 238.567 91.2144 238.625 91.1872 238.681C91.5524 238.872 91.9617 238.862 92.324 238.683C92.622 238.536 92.3202 238.15 92.4773 237.896C92.4328 237.538 92.3871 237.18 92.3441 236.823C92.1373 235.105 91.8689 233.391 91.7381 231.669C91.5059 228.613 91.0532 225.581 90.5875 222.55C90.2477 220.338 89.9256 218.125 89.6896 215.903C89.5107 214.219 89.3111 212.537 89.093 210.856C88.9027 209.39 88.691 207.926 88.4575 206.465C88.0931 204.185 87.725 201.905 87.3151 199.63C87.0014 197.89 86.6444 196.154 86.2605 194.424C86.0501 193.475 86.1527 192.603 86.599 191.706C87.4225 190.052 87.9394 188.307 88.3496 186.542C88.6373 185.303 88.6783 184.041 88.8081 182.787C88.9172 181.733 88.8024 180.706 88.5577 179.678C88.213 178.23 87.6829 176.831 87.1139 175.442C85.185 170.735 83.2495 166.03 81.3074 161.327C79.1559 156.117 76.9802 150.914 74.8441 145.699C74.0076 143.656 73.001 141.693 71.6215 139.881C71.5812 139.828 71.5845 139.751 71.5658 139.678C71.8114 139.395 72.0832 139.122 72.3045 138.821C73.0823 137.763 72.8691 136.736 71.7203 135.971C71.4913 135.818 71.2428 135.681 70.9834 135.572C70.7128 135.458 70.6381 135.311 70.6985 135.059C70.9599 133.967 71.2045 132.873 71.456 131.78C71.5535 131.357 71.6544 130.934 71.7521 130.511C71.7964 130.32 71.9254 130.215 72.1352 130.132C73.4332 129.62 74.5372 128.837 75.5742 128.027C77.2986 126.681 78.9634 125.268 80.3569 123.641C80.6534 123.295 80.9779 122.966 81.303 122.639C82.5379 121.397 83.4013 119.972 84.0797 118.453C84.7208 117.017 84.7129 115.56 84.1882 114.114C83.7271 112.843 83.1257 111.621 82.2344 110.518C80.804 108.747 79.595 106.863 78.4555 104.942C77.8118 103.857 77.5273 102.733 77.6921 101.507C77.9514 99.5775 78.1671 97.6432 78.3813 95.7092C78.552 94.1689 78.736 92.6283 78.8378 91.084C79.0137 88.4146 78.0289 86.1398 75.6897 84.3329C74.0648 83.0779 72.2855 82.0494 70.2864 81.3018C67.7773 80.3634 65.2746 79.4122 62.773 78.4589C62.0528 78.1845 61.3365 77.8992 60.6917 77.4995C59.6123 76.8305 58.5401 76.1524 57.4507 75.4957C56.5027 74.9242 55.9562 74.1654 55.9053 73.156C55.8779 72.6124 55.7779 72.0778 55.5586 71.5713C55.4394 71.2958 55.4727 71.1226 55.7231 70.9184C56.6985 70.1225 57.4467 69.1773 58.1071 68.1692C58.5978 67.4201 59.156 66.7043 59.6743 65.9872C59.973 66.0549 60.0645 66.2707 60.2075 66.4412C60.8788 67.2425 61.7453 67.8455 62.7323 68.3282C63.7545 68.828 64.8523 69.1514 66.0056 69.3044C68.1409 69.5876 70.2189 69.4398 72.1899 68.595C73.6134 67.9849 74.7263 67.1168 75.3562 65.8247C75.4328 65.6678 75.4796 65.4745 75.731 65.4058C76.9909 65.5489 78.2708 65.5989 79.5574 65.537C80.9385 65.4704 82.2596 65.1924 83.5251 64.7171C86.5609 63.5769 88.4967 61.5554 89.6453 58.9166C90.2511 57.5249 90.5155 56.0681 90.641 54.5927C90.6697 54.2538 90.8259 54.0896 91.1794 53.9675C92.1829 53.6209 93.1235 53.1667 94.0057 52.6234C98.8564 49.636 101.04 44.4657 99.5254 39.144ZM52.5789 11.8717C52.5858 11.8045 52.6165 11.7298 52.6637 11.6763C53.3322 10.9196 53.9546 10.1269 54.8452 9.54094C54.8829 9.42518 54.9646 9.3519 55.106 9.33596C55.125 9.20842 55.2104 9.13861 55.3548 9.1198C55.3617 8.99394 55.4485 8.92988 55.5802 8.90066C55.7494 8.61123 56.0283 8.42427 56.3515 8.27861C56.3515 8.27861 56.3514 8.27861 56.3516 8.27861L56.3917 8.25277C56.4293 8.18365 56.4907 8.14018 56.5763 8.12216C56.7169 7.98838 56.8596 7.85747 57.0826 7.83272L57.1098 7.81876C57.148 7.72974 57.2118 7.67231 57.3313 7.6835C57.4071 7.6526 57.483 7.6218 57.5589 7.59101C57.6151 7.48991 57.6956 7.42317 57.8369 7.44149C57.8886 7.3798 57.9575 7.35653 58.0436 7.37148C58.1053 7.27137 58.1917 7.20988 58.3315 7.23047C58.4088 7.2077 58.4861 7.18492 58.5634 7.16215C58.6999 7.01708 58.8751 6.95192 59.0902 6.96787C60.1986 6.4995 61.3551 6.17986 62.5941 6.11579C63.6607 5.86249 64.7248 5.89081 65.7873 6.13441C66.7015 6.21362 67.519 6.51316 68.2727 6.95737L68.3207 6.9751C68.4712 6.97074 68.5803 7.02609 68.6462 7.14412C69.3792 7.39772 70.0023 7.79341 70.5672 8.26425C70.7063 8.2702 70.7869 8.33585 70.8207 8.44982C71.2385 8.6537 71.5778 8.92799 71.8215 9.28833C71.956 9.32269 72.0352 9.40072 72.0629 9.51925C72.42 9.75037 72.6422 10.0611 72.7723 10.426C72.891 10.555 73.0344 10.6744 72.9968 10.8639C73.0665 10.9132 73.083 10.9733 73.0463 11.0446C73.3885 11.4452 73.3845 11.8918 73.2616 12.3483C73.2495 12.3934 73.1367 12.4502 73.0773 12.445C73.0118 12.4393 72.9066 12.373 72.9001 12.3249C72.8538 11.9793 72.8281 11.6317 72.7958 11.2846C72.724 11.2539 72.7017 11.2059 72.7289 11.1405C72.5331 11.0482 72.505 10.8801 72.473 10.7136C72.2341 10.4066 71.9952 10.0995 71.7564 9.79245C71.7564 9.79245 71.7564 9.79245 71.7564 9.79235C71.7564 9.79235 71.7564 9.79235 71.7563 9.79235C71.637 9.75284 71.5573 9.68501 71.5454 9.56906L71.5196 9.5444C71.401 9.52301 71.3295 9.46271 71.3122 9.35725L71.2702 9.32012C71.1512 9.30398 71.0825 9.24387 71.062 9.14168L71.0201 9.10782C70.8946 9.09494 70.8238 9.03197 70.7987 8.92691L70.7699 8.90571C70.6355 8.8971 70.556 8.83343 70.5239 8.72183C69.6175 8.20544 68.711 7.68894 67.8047 7.17255C66.8383 6.80924 65.8247 6.57753 64.806 6.35958C64.8061 6.35938 64.8064 6.35928 64.8065 6.35909C64.8061 6.35928 64.8057 6.35938 64.8053 6.35958C64.3099 6.36146 63.8139 6.36334 63.317 6.36522C63.3167 6.36503 63.3162 6.36493 63.3159 6.36463C63.316 6.36483 63.3161 6.36503 63.3162 6.36522C62.839 6.60149 62.2813 6.51118 61.7769 6.65665C60.8146 6.9343 59.8402 7.18027 58.8708 7.43941C58.82 7.53586 58.7392 7.58437 58.614 7.56368C58.5236 7.59259 58.4334 7.62141 58.3431 7.65032C58.3009 7.73578 58.2354 7.78678 58.1208 7.76766C58.0313 7.80103 57.942 7.8345 57.8525 7.86797C57.8111 7.96482 57.7371 8.0172 57.6133 8.00333C57.5711 8.06859 57.5076 8.09473 57.4229 8.08176C57.3633 8.19712 57.2637 8.26237 57.1159 8.26732L57.0937 8.27891C57.0527 8.37734 56.9785 8.43913 56.8521 8.44269C56.8289 8.51052 56.7772 8.53904 56.6967 8.52844C56.4695 8.77788 56.2129 8.99731 55.8769 9.13614C55.8769 9.13614 55.8768 9.13614 55.8767 9.13614C55.8767 9.13614 55.8768 9.13624 55.8769 9.13624C55.8304 9.24615 55.7526 9.32477 55.6087 9.33725C55.5857 9.46122 55.5066 9.53678 55.3597 9.55321C55.3597 9.55321 55.3597 9.55321 55.3596 9.55321C55.3403 9.67491 55.2575 9.74888 55.1262 9.78572C54.3983 10.5469 53.6735 11.3101 52.9377 12.0655C52.8681 12.137 52.7212 12.1784 52.6289 12.065C52.5877 12.0143 52.5725 11.9353 52.5789 11.8717ZM63.0979 17.7412C62.9305 17.7603 62.8191 17.686 62.7304 17.5742L62.6061 17.5433C62.606 17.5432 62.6057 17.5431 62.6056 17.5429C62.6056 17.543 62.6057 17.5431 62.6058 17.5432C62.3705 17.5709 62.1866 17.4755 62.013 17.3555C61.8668 17.3325 61.7207 17.3095 61.5746 17.2866C61.3875 17.3242 61.2242 17.2885 61.0874 17.1692C60.6567 17.1295 60.226 17.0898 59.7953 17.0501C59.3954 17.106 59.0077 17.0619 58.6299 16.9461C57.697 16.9476 56.7641 16.9491 55.8313 16.9506C55.5395 17.0807 55.2332 17.1178 54.9122 17.0679C54.7521 17.0992 54.5924 17.1546 54.4318 17.1567C54.1559 17.1603 53.7397 17.53 53.641 17.1127C53.5693 16.8097 54.1095 16.8075 54.3927 16.7286C54.658 16.6547 54.9593 16.6786 55.2448 16.6595C55.2453 16.6595 55.246 16.6594 55.2466 16.6594C55.2463 16.6594 55.2458 16.6594 55.2453 16.6594C55.3591 16.6212 55.4716 16.5539 55.588 16.5487C56.945 16.487 58.3051 16.3684 59.6482 16.6677C59.9543 16.6851 60.2604 16.7025 60.5665 16.72C60.5665 16.72 60.5665 16.72 60.5666 16.7201V16.72C60.8495 16.6718 61.1208 16.6716 61.3454 16.8628L61.3526 16.8683C61.912 16.8523 62.4123 17.0173 62.8914 17.2473C62.9426 17.2707 62.9937 17.2942 63.0449 17.3177C63.2502 17.3497 63.4096 17.4348 63.3726 17.635C63.3527 17.7423 63.2148 17.7522 63.0982 17.7413C63.0981 17.7413 63.098 17.7412 63.0979 17.7411C63.0977 17.7411 63.0977 17.7411 63.0979 17.7412ZM47.856 47.3413C47.856 47.3413 47.856 47.3414 47.856 47.3413C47.8561 47.3414 47.8561 47.3414 47.856 47.3413L47.8794 47.3373C48.0996 47.1516 48.37 47.147 48.6499 47.1764C48.8095 47.1519 48.969 47.1274 49.1286 47.103C49.13 47.1021 49.1872 47.0299 49.1872 47.0299L49.2847 47.0446C49.6922 46.9277 50.0997 46.8108 50.5073 46.6938C50.5074 46.6938 50.5075 46.6937 50.5077 46.6937C50.5077 46.6937 50.5077 46.6937 50.5076 46.6937C50.7284 46.4609 51.0568 46.3885 51.353 46.2679C51.4431 46.2158 51.5294 46.1593 51.6113 46.0978L51.6581 46.0689C51.7137 45.9943 51.7861 45.9351 51.8752 45.8914L51.9101 45.8555C51.9656 45.748 52.021 45.6404 52.0765 45.5329C52.0565 45.4731 52.0818 45.4377 52.1524 45.4267C52.2135 45.2799 52.2831 45.3006 52.3576 45.4189L52.373 45.4286C52.6994 45.5723 52.5826 45.7358 52.4011 45.902C52.0711 46.4302 51.5375 46.7313 50.8995 46.9158C50.6851 47.054 50.4665 47.1837 50.1809 47.1704C50.0291 47.313 49.8466 47.3849 49.6195 47.354L49.5365 47.3992L49.4393 47.3874C49.4393 47.3874 49.4393 47.3874 49.4391 47.3874C49.2784 47.5102 49.0978 47.5798 48.8782 47.5438C48.6431 47.5781 48.408 47.6123 48.173 47.6466C47.9499 47.8193 47.6891 47.8084 47.422 47.7657L47.4041 47.8241C47.2996 47.8748 47.1963 47.9673 47.0906 47.9695C46.2182 47.9878 45.3335 48.1532 44.482 47.8712C44.4368 47.86 44.3923 47.8446 44.3484 47.824C43.4149 47.6736 42.4733 47.5536 41.5503 47.3648C40.5731 47.1649 39.6892 46.7768 38.9617 46.1579C38.8458 46.0593 38.7445 45.9422 38.6646 45.8198C38.6359 45.7757 38.6799 45.687 38.7095 45.6253C38.7474 45.5462 38.8286 45.5312 38.9154 45.584C39.0828 45.6858 39.2546 45.784 39.4092 45.8993C40.1139 46.4244 40.9326 46.7404 41.8242 46.9458C43.5623 47.3464 45.3308 47.4137 47.1145 47.3501C47.3614 47.3413 47.6088 47.344 47.856 47.3413ZM32.1436 10.6185C32.9045 9.5044 33.8159 8.50775 35.1031 7.81044C35.1031 7.81044 35.1032 7.81044 35.1033 7.81044C35.1741 7.68359 35.2919 7.61131 35.4504 7.58675C35.4798 7.49773 35.5365 7.44119 35.6538 7.45525C36.0072 7.20453 36.3827 6.99025 36.8427 6.91677C37.2652 6.67229 37.7115 6.49039 38.2368 6.51504C38.2368 6.51514 38.2368 6.51514 38.2369 6.51524C38.2402 6.51534 38.2958 6.52079 38.2958 6.52079C38.4588 6.38047 38.653 6.33819 38.8739 6.38245C39.9278 6.2871 40.9817 6.19421 42.0146 6.50484C42.2546 6.4786 42.4833 6.51237 42.7014 6.60179C42.8306 6.56703 42.929 6.59703 42.9913 6.70398C43.1274 6.73497 43.2635 6.76596 43.3996 6.79696C43.6052 6.77082 43.7481 6.88103 43.9005 6.97035C44.1182 6.94975 44.2744 7.04481 44.4118 7.17482C44.7957 7.26899 45.1251 7.44545 45.4198 7.67508C45.4973 7.7135 45.5677 7.75984 45.6314 7.8142L45.6681 7.83559C46.3038 8.21583 46.4623 8.3914 46.2534 8.46893C45.8569 8.61608 45.6629 8.3205 45.4081 8.16236C45.3766 8.14285 45.3612 8.10384 45.3384 8.07374C45.2688 8.04017 45.1993 8.0065 45.1297 7.97294C45.0486 7.94759 44.9795 7.90699 44.9222 7.85104C44.5775 7.69429 44.2327 7.53764 43.8879 7.38089C43.7507 7.39208 43.6409 7.35762 43.5798 7.24206C43.3038 7.20809 43.0162 7.20106 42.8137 6.9952C42.6786 6.97559 42.5436 6.95599 42.4085 6.93648C42.1209 6.97024 41.8551 6.92192 41.615 6.77725C41.403 6.76388 41.1911 6.75042 40.979 6.73695C40.2032 6.76062 39.4273 6.78438 38.6515 6.80795C38.1585 6.93479 37.6655 7.06174 37.1727 7.18859C36.9996 7.31652 36.8255 7.44258 36.5738 7.41237C36.5722 7.41247 36.5708 7.41277 36.5692 7.41297C36.5707 7.41287 36.5721 7.41257 36.5737 7.41247C36.5006 7.55071 36.3747 7.61695 36.201 7.61794L36.1845 7.62557C36.1335 7.7238 36.0539 7.78628 35.9225 7.7843C35.8936 7.8446 35.8425 7.86718 35.7694 7.85203C35.7694 7.85203 35.7692 7.85203 35.7692 7.85213C35.7065 7.96491 35.6112 8.03948 35.4609 8.04849C34.6959 8.64252 33.9076 9.21704 33.3002 9.94554C32.8429 10.4939 32.3422 11.0249 32.3684 11.7649C32.3716 11.8562 32.2749 11.9471 32.1167 11.9433C31.9526 11.9393 31.9132 11.8361 31.8874 11.743C31.775 11.3369 31.9072 10.9645 32.1436 10.6185ZM21.293 16.2054C21.4038 15.7892 21.5126 15.3715 21.6546 14.9629C21.7719 14.6259 21.8761 14.2759 22.1801 14.0134C22.1801 14.0134 22.1802 14.0134 22.1803 14.0134C22.1803 14.0134 22.1802 14.0133 22.1802 14.0132C22.5294 13.2921 23.1616 12.842 23.9962 12.5859C24.3458 12.3484 24.7307 12.179 25.1751 12.1235C25.7047 11.8247 26.2918 11.6861 26.9166 11.6522C26.9665 11.5717 27.0354 11.5455 27.1311 11.5932C27.3943 11.4917 27.6691 11.482 27.9501 11.5113C28.0996 11.5269 28.1224 11.6212 28.1362 11.7238C28.1929 11.8801 28.0881 11.9029 27.9473 11.896C27.7579 11.9757 27.5613 11.995 27.357 11.9486C27.0845 12.1287 26.7726 12.1771 26.4399 12.1559C26.2139 12.2367 26.0085 12.3746 25.7427 12.3453C25.7427 12.3453 25.7426 12.3453 25.7426 12.3452C25.7426 12.3452 25.7426 12.3452 25.7426 12.3453C25.2607 12.5144 24.7786 12.6837 24.2963 12.8531C24.2962 12.853 24.2961 12.8529 24.2959 12.8528C24.2959 12.853 24.2961 12.8531 24.2961 12.8533C23.6142 13.2627 22.9145 13.6553 22.4862 14.3031C22.2303 14.9784 21.9077 15.636 21.7792 16.3454C21.7538 16.4856 21.673 16.6363 21.4631 16.5646C21.2924 16.5063 21.2545 16.3497 21.293 16.2054ZM12.5754 37.0114C12.5753 37.0114 12.5753 37.0114 12.5754 37.0114C12.5522 37.1471 12.4555 37.208 12.304 37.2131L12.2754 37.2275C12.2117 37.2848 12.1383 37.3304 12.0551 37.3641C12.0138 37.4339 11.9481 37.465 11.8581 37.4575C11.799 37.5704 11.7029 37.6415 11.5588 37.6586C10.6493 38.4158 9.94514 39.309 9.29483 40.2375C9.29916 40.3732 9.23869 40.4791 9.1044 40.5514C9.1044 40.5515 9.1044 40.5515 9.1044 40.5516C9.06447 40.6661 9.02466 40.7806 8.98484 40.895C9.0064 41.0146 8.94833 41.1041 8.84405 41.1761C8.81541 41.2975 8.78677 41.4188 8.75813 41.5402C8.79259 41.7379 8.73076 41.9137 8.59727 42.0731C8.5967 42.8574 8.59613 43.6418 8.59556 44.4261C8.59556 44.4262 8.59556 44.4263 8.59556 44.4265C8.75632 44.5891 8.79921 44.78 8.77342 44.9874C8.79795 45.0924 8.82248 45.1975 8.84713 45.3026C8.84473 45.3214 8.84587 45.3212 8.84713 45.3028C8.96989 45.3876 9.02568 45.4972 9.00697 45.6339C9.07109 45.6869 9.09333 45.7508 9.0736 45.8257C9.31547 46.2671 9.55734 46.7086 9.7991 47.1499C10.0568 47.4945 10.3147 47.8392 10.5723 48.1839C10.9701 48.5573 11.368 48.9306 11.7658 49.3039C11.7658 49.304 11.7658 49.3041 11.7658 49.3042C11.7658 49.3042 11.7659 49.3041 11.766 49.304C11.9107 49.364 12.0521 49.4317 12.2012 49.4823C12.3868 49.5451 12.6397 49.584 12.4801 49.8221C12.3529 50.0118 12.1426 49.9459 11.9651 49.8436C11.9332 49.8252 11.9145 49.7896 11.8896 49.762C11.8808 49.758 11.873 49.7528 11.8645 49.7484C11.8724 49.753 11.88 49.7575 11.8879 49.762C11.7043 49.7717 11.5594 49.7287 11.5191 49.5499C11.5077 49.5518 11.497 49.554 11.4848 49.5552C10.9461 49.3069 10.5909 48.9073 10.29 48.4628C10.29 48.4628 10.29 48.4627 10.29 48.4626C10.29 48.4626 10.29 48.4627 10.2899 48.4627C9.93293 48.1777 9.6752 47.8341 9.49403 47.4454C9.13339 47.1182 8.92859 46.7214 8.8072 46.2874C8.74878 46.2573 8.7359 46.2164 8.76841 46.1646C8.77104 46.0401 8.67336 45.9557 8.60594 45.8593C8.57582 45.7535 8.54581 45.6475 8.51569 45.5417C8.5182 45.5241 8.51706 45.5244 8.51569 45.5415C8.39338 45.4564 8.33817 45.3478 8.36338 45.2113C8.33669 45.0849 8.30988 44.9586 8.28307 44.8322C8.28307 44.8322 8.28307 44.8321 8.28295 44.832C8.08683 44.5462 8.03103 44.2387 8.0931 43.9127C7.99589 43.479 7.99362 43.045 8.08866 42.6108C8.02922 42.2765 8.06435 41.956 8.27371 41.6613C8.29675 41.5455 8.31992 41.4297 8.34297 41.3141C8.46333 41.172 8.43286 40.9848 8.53235 40.8366C8.50439 40.7698 8.52162 40.7133 8.58403 40.6672C8.56578 40.5278 8.6226 40.4185 8.75826 40.341L8.74558 40.2778L8.80276 40.2374C8.78986 40.0519 8.89927 39.919 9.05032 39.804C9.26653 39.3037 9.59671 38.8678 10.0348 38.493C10.0527 38.3734 10.1245 38.2938 10.2588 38.2607C10.2784 38.1403 10.3496 38.0586 10.4912 38.0297C10.513 37.9088 10.5888 37.8319 10.7302 37.8079L10.7349 37.804C10.7597 37.6823 10.8431 37.613 10.9835 37.5946L10.9893 37.5908C11.0191 37.4662 11.1118 37.4045 11.2532 37.3913L11.2635 37.3806C11.2987 37.2564 11.403 37.2055 11.5367 37.1857C11.5771 37.0862 11.6478 37.0241 11.7788 37.0342C11.8168 36.9704 11.8765 36.9451 11.9578 36.958C12.0271 36.843 12.1292 36.7797 12.2853 36.8014C12.4145 36.7121 12.5627 36.7094 12.6672 36.806C12.7454 36.8788 12.6834 36.9677 12.5754 37.0114ZM17.6566 19.9487C17.6255 19.9494 17.6263 19.9511 17.6565 19.9491C17.5732 20.0844 17.439 20.1369 17.267 20.1277L17.0812 20.1765C17.0092 20.2693 16.9188 20.3311 16.7804 20.313C16.7022 20.3355 16.6239 20.3582 16.5456 20.3808C16.4117 20.5113 16.2537 20.5951 16.0434 20.5794L16.0099 20.5901C15.8792 20.7174 15.7294 20.8101 15.5202 20.797C14.8629 21.1647 14.2057 21.5325 13.5485 21.9004C13.5166 22.0105 13.4385 22.0738 13.3061 22.0831L13.2762 22.1057C13.2525 22.2122 13.1803 22.2743 13.0558 22.2893L13.0186 22.321C12.9996 22.428 12.9282 22.4901 12.8062 22.5096L12.7776 22.537C12.7627 22.6525 12.6872 22.7195 12.5583 22.7436L12.5519 22.7511C12.5353 22.8776 12.4507 22.9566 12.3197 23.0033C12.3197 23.0033 12.3197 23.0033 12.3197 23.0034C11.7545 23.8011 11.3068 24.6441 11.0183 25.5483C11.0538 25.8185 10.9965 26.0721 10.8376 26.3075C10.8372 26.8135 10.8369 27.3196 10.8364 27.8257C10.8365 27.8259 10.8365 27.8261 10.8366 27.8263C10.9764 28.0592 11.0446 28.3045 11.0029 28.5682C11.0264 28.6951 11.0499 28.8221 11.0734 28.949C11.2003 29.0902 11.283 29.244 11.255 29.4294C11.3186 29.4863 11.3368 29.5527 11.3098 29.6284C11.5635 30.1176 11.8173 30.6069 12.071 31.0962C12.1956 31.1618 12.2726 31.2532 12.2764 31.3838C12.3406 31.4016 12.3607 31.4377 12.3365 31.4924C12.3365 31.4924 12.3365 31.4924 12.3365 31.4925C12.5601 31.6311 12.7043 31.8206 12.8013 32.0403C12.8621 32.0809 12.9367 32.1126 12.9804 32.1641C13.0478 32.2435 13.1084 32.3449 12.989 32.4236C12.9382 32.4569 12.832 32.4727 12.7798 32.4488C12.6832 32.4046 12.6079 32.3255 12.5238 32.2611C12.2653 32.1936 12.162 32.0105 12.0792 31.8121C11.6068 31.2929 11.2471 30.7236 11.0538 30.0799C10.9918 30.0521 10.9779 30.0118 11.0121 29.959C11.0121 29.9586 11.012 29.9583 11.012 29.958C11.012 29.9583 11.012 29.9586 11.012 29.9589C10.8968 29.882 10.8337 29.7847 10.8556 29.6545C10.8248 29.5411 10.794 29.4276 10.7632 29.3141V29.314C10.6046 29.1645 10.5455 28.9887 10.5811 28.7883C10.5599 28.6674 10.5387 28.5466 10.5175 28.4257V28.4256C10.2233 27.5694 10.1662 26.7127 10.5097 25.8551C10.5381 25.6784 10.5665 25.5018 10.5949 25.325C10.5546 25.1396 10.6408 24.9898 10.7721 24.8529C10.9647 24.0454 11.375 23.3345 12.0231 22.7291C12.0424 22.6004 12.1281 22.5192 12.2645 22.4742C12.2648 22.4742 12.2651 22.4738 12.2654 22.4738C12.5 22.1102 12.8322 21.8321 13.2494 21.6288C13.2855 21.5132 13.3682 21.447 13.5093 21.4419C14.139 20.9301 14.858 20.5484 15.6814 20.3188C15.7552 20.2018 15.8699 20.1522 16.0213 20.1641C16.0682 20.1072 16.1306 20.0877 16.2085 20.1054C16.2695 20.0015 16.3629 19.9508 16.4995 19.9713C16.5829 19.9475 16.6663 19.9236 16.7497 19.8996C16.7991 19.8217 16.8636 19.7687 16.9763 19.7924C17.862 19.4 18.8074 19.1426 19.7597 18.9162C20.2315 18.804 20.7345 18.7712 21.2262 18.7482C21.6566 18.7281 21.9717 18.9009 21.8915 19.0495C21.7515 19.3087 21.4747 19.2149 21.2407 19.2164C20.4455 19.2215 19.6979 19.4139 18.9485 19.6214C18.522 19.7394 18.1302 19.9697 17.6566 19.9487ZM27.446 53.4439C27.415 53.5193 27.3549 53.554 27.2651 53.5483C27.1637 53.5862 27.0623 53.6241 26.9609 53.6619C26.9279 53.7309 26.8712 53.7577 26.79 53.7424C26.6513 53.8585 26.4799 53.89 26.2949 53.8869C26.1956 53.9101 26.1032 53.9464 26.019 53.998C25.8444 54.03 25.6696 54.062 25.4949 54.094C25.357 54.1879 25.209 54.2512 25.0269 54.2163C24.7293 54.3199 24.4231 54.3529 24.1069 54.2975C24.1062 54.2976 24.1055 54.2978 24.1048 54.2981C24.1052 54.2981 24.1054 54.2981 24.1057 54.2981C23.8599 54.4215 23.5976 54.4651 23.3167 54.4113C23.1048 54.4818 22.892 54.4795 22.6786 54.4175C22.4638 54.4682 22.2716 54.4421 22.1137 54.2959C21.8827 54.363 21.67 54.3164 21.4658 54.2169C21.3403 54.243 21.2612 54.1874 21.198 54.1036C19.7101 53.6842 18.873 52.7722 18.5517 51.4698C18.5517 51.4698 18.5517 51.4698 18.5517 51.4697C18.4422 51.1877 18.3784 50.9044 18.5183 50.6151C18.5311 50.4578 18.5919 50.3489 18.8102 50.3767C18.9891 50.3995 18.9641 50.5238 18.969 50.6202C18.9834 50.9042 18.9835 51.1888 18.9892 51.4732C19.3838 52.3949 20.0449 53.126 21.0304 53.6255C21.238 53.6242 21.4082 53.6963 21.5513 53.8226C21.6296 53.7993 21.6977 53.8133 21.7557 53.8646C22.0675 53.8596 22.3708 53.8848 22.6339 54.0516C22.7927 53.9511 22.9507 53.9574 23.1082 54.054C23.1082 54.054 23.1084 54.054 23.1085 54.0539C23.1776 54.0246 23.2483 54.0044 23.32 53.9902C23.7798 53.8695 24.2575 53.8589 24.7362 53.854C24.851 53.7982 24.9683 53.7683 25.0938 53.8293C25.094 53.8293 25.0942 53.8292 25.0943 53.8292C25.0942 53.8292 25.094 53.8292 25.0938 53.8292C25.2623 53.6543 25.4899 53.633 25.7304 53.6452C25.7854 53.5941 25.8505 53.5811 25.9257 53.6062C26.0808 53.4775 26.2627 53.4106 26.4796 53.4236C26.5123 53.3701 26.559 53.3581 26.6198 53.3877C26.6431 53.3871 26.6431 53.3868 26.6201 53.3876C26.7042 53.2777 26.8194 53.2175 26.9746 53.2215C27.0075 53.1645 27.0583 53.1473 27.127 53.1698C27.1999 53.058 27.3066 52.993 27.458 52.9901L27.4898 52.9764C27.6396 52.8845 27.7932 52.6524 27.931 52.9855C27.9857 53.3105 27.7011 53.3655 27.446 53.4439ZM27.7373 30.3129C27.4775 30.7292 27.1595 31.108 26.7723 31.4421C26.7814 31.5187 26.7466 31.5749 26.6679 31.6105C26.6745 31.7169 26.6055 31.7768 26.5013 31.8151C25.9026 32.7903 25.3153 33.77 24.961 34.839C24.9983 35.0996 24.9191 35.3369 24.7686 35.5599C24.7483 35.7502 24.728 35.9405 24.7076 36.1308C24.7073 36.7798 24.7072 37.4288 24.707 38.0779C24.791 38.6563 24.8749 39.2347 24.9589 39.813C24.9878 39.9357 25.0166 40.0584 25.0455 40.1811C25.3051 40.4301 25.3028 40.7596 25.3918 41.0593C25.4039 41.1 25.3154 41.1858 25.2519 41.2141C25.1953 41.2393 25.0846 41.2392 25.0395 41.2067C24.8443 41.0665 24.7073 40.8945 24.7644 40.6551C24.7423 40.5344 24.7202 40.4137 24.6981 40.293C24.3678 39.5803 24.2454 38.8374 24.2704 38.0731C24.1617 37.4274 24.1598 36.7814 24.2632 36.1352C24.2648 36.061 24.2665 35.9868 24.2681 35.9127C24.2238 35.6359 24.2442 35.3703 24.448 35.1369C24.5835 33.8957 25.183 32.8155 25.9837 31.8051C25.9868 31.6722 26.0635 31.5816 26.1976 31.5238C26.1829 31.4551 26.2122 31.4064 26.2856 31.3778C26.2819 31.2644 26.3555 31.1995 26.4681 31.1592L26.4711 31.1548C26.4795 31.0263 26.5581 30.9401 26.6822 30.8815C26.6862 30.8773 26.6904 30.8753 26.6947 30.8753C26.8578 30.5369 27.0947 30.2475 27.4395 30.0297C28.3213 28.922 29.4512 28.0367 30.726 27.2845C31.3461 26.9186 32.0215 26.6494 32.7513 26.4918C32.8685 26.4664 32.9965 26.4534 33.1147 26.4667C33.1796 26.4741 33.2623 26.5394 33.2858 26.595C33.3073 26.6456 33.2832 26.7458 33.2373 26.7753C33.1416 26.8371 33.0218 26.8764 32.9058 26.9079C31.4033 27.3165 30.1862 28.1056 29.0989 29.064C28.6357 29.4725 28.1907 29.8962 27.7373 30.3129ZM34.6952 57.3003C34.3713 57.2611 34.115 57.1205 33.909 56.9048C33.7731 56.8925 33.674 56.842 33.6461 56.7166L33.6189 56.7057C33.1793 56.5225 32.8825 56.2191 32.663 55.8507C32.3299 55.6266 32.1862 55.3019 32.0547 54.9737C32.015 54.8746 32.029 54.7635 32.1503 54.705C32.3232 54.6214 32.4462 54.6835 32.5291 54.8271C32.6719 55.0746 32.8154 55.3217 32.9586 55.5691C33.2176 55.823 33.4767 56.077 33.7357 56.331V56.3311C34.1692 56.5698 34.603 56.8086 35.0367 57.0475C35.3156 57.1103 35.5915 57.1871 35.874 57.2335C36.9914 57.4172 38.0938 57.401 39.1633 57.0171C39.5429 56.8808 39.9245 56.7488 40.3053 56.6148H40.3054C40.38 56.4891 40.503 56.4375 40.6615 56.4405L40.6739 56.4353C40.788 56.293 40.9373 56.207 41.1408 56.2076C41.4268 55.9292 41.7807 55.7311 42.1574 55.5598C42.1906 55.4519 42.2558 55.3741 42.3968 55.368C42.3935 55.3576 42.3899 55.3474 42.3874 55.3363C42.4637 55.1382 42.6307 55.0186 42.824 55.1717C43.0144 55.3224 42.8895 55.4825 42.6834 55.5788C42.6833 55.5788 42.6832 55.5788 42.683 55.5788C42.683 55.5788 42.6831 55.5789 42.6833 55.579C42.6455 55.6941 42.5669 55.7755 42.4303 55.8086C42.3163 56.0545 42.1105 56.2002 41.8067 56.239C41.4874 56.5528 41.0892 56.7556 40.6272 56.8694V56.8693C40.627 56.8694 40.6269 56.8695 40.6267 56.8696L40.5573 56.8827C40.3807 56.899 40.2607 57.0056 40.125 57.0871C38.3577 57.9753 36.5508 58.1045 34.6952 57.3003ZM85.0601 197.079C84.9523 197.092 84.8203 197.037 84.72 196.984C84.584 196.911 84.4294 196.824 84.4737 196.652C84.5456 196.373 84.6619 196.108 84.873 195.877C85.2521 196.09 85.1839 196.441 85.2341 196.749C85.2552 196.879 85.279 197.054 85.0601 197.079ZM70.8417 138.24C70.7909 138.296 70.7344 138.349 70.6233 138.462C70.3271 138.241 70.1301 138.055 69.8917 137.928C69.6698 137.809 69.4072 137.841 69.1846 137.968C68.9676 138.092 68.8602 138.415 68.9682 138.642C69.0464 138.806 69.1465 138.966 69.2622 139.113C71.2889 141.686 72.7155 144.502 73.8959 147.437C75.8334 152.255 77.86 157.045 79.8411 161.849C81.7665 166.518 83.6863 171.188 85.5983 175.861C85.9444 176.707 86.2351 177.57 86.5619 178.422C87.256 180.232 87.3379 182.08 87.1387 183.967C86.8678 186.532 86.1404 188.989 85.0587 191.379C84.5595 192.483 84.1301 193.61 83.6498 194.72C83.4924 195.084 83.4139 195.482 83.1127 195.79C82.9315 195.798 82.7927 195.735 82.6674 195.63C82.3091 195.331 81.9161 195.059 81.59 194.736C79.7835 192.944 78.1578 191.045 76.8684 188.93C76.3714 188.115 76.4354 187.398 77.0614 186.73C77.7757 185.967 78.2594 185.093 78.8221 184.256C79.6168 183.074 79.7455 181.818 79.3723 180.505C79.2028 179.909 78.9473 179.34 78.6473 178.787C77.8185 177.259 77.0302 175.712 76.1358 174.213C74.6307 171.69 73.2686 169.108 71.8389 166.554C71.1151 165.261 70.3244 163.996 69.5774 162.713C68.0648 160.115 66.6025 157.493 65.0445 154.915C62.9079 151.38 60.6255 147.913 58.2022 144.52C57.4466 143.462 57.6028 142.541 58.2739 141.603C58.822 140.836 59.5254 140.164 60.3895 139.646C62.8028 138.199 65.415 137.15 68.327 136.72C68.6526 136.672 68.9854 136.656 69.3158 136.639C69.6985 136.619 70.062 136.711 70.3925 136.864C71.0875 137.186 71.421 137.593 70.8417 138.24ZM81.1814 111.642C81.9447 112.639 82.4212 113.751 82.787 114.9C83.0941 115.864 83.0718 116.826 82.6805 117.765C82.1141 119.125 81.3536 120.396 80.3062 121.532C78.6731 123.304 76.9761 125.022 75.0729 126.585C74.2573 127.255 73.3368 127.785 72.4635 128.343C72.3798 128.3 72.3401 128.291 72.3262 128.269C72.3068 128.239 72.2934 128.198 72.3002 128.165C73.8411 120.809 75.2262 113.428 76.9057 106.093C76.9291 105.991 77.0012 105.897 77.0805 105.74C77.2111 105.882 77.275 105.931 77.3096 105.992C78.4253 107.966 79.7808 109.815 81.1814 111.642ZM56.4034 76.5054C58.559 77.8359 60.6262 79.2696 63.1464 80.1176C65.5361 80.9217 67.8553 81.8847 70.1997 82.7895C71.9988 83.484 73.5677 84.4691 74.9796 85.6573C76.4906 86.9286 77.215 88.476 77.2687 90.2882C77.2976 91.2643 77.1601 92.226 77.0461 93.1928C76.8561 94.8031 76.7305 96.4191 76.5439 98.0297C76.0752 102.076 75.3712 106.094 74.4289 110.076C73.6372 113.423 72.9787 116.79 72.3231 120.157C71.5915 123.916 70.7913 127.662 69.9124 131.396C69.6472 132.522 69.3831 133.649 69.1311 134.779C69.0618 135.089 68.9484 135.265 68.5177 135.315C65.1615 135.704 62.1762 136.897 59.4171 138.557C58.5899 139.054 57.9267 139.698 57.3318 140.395C56.1092 141.828 55.9154 143.361 56.8343 144.959C57.37 145.891 57.9821 146.79 58.5696 147.698C59.3397 148.89 60.1205 150.076 60.8927 151.267C60.9501 151.355 60.9755 151.459 61.054 151.648C59.2141 151.648 57.4725 151.714 55.7399 151.634C51.9256 151.459 48.1127 151.481 44.2978 151.545C41.1053 151.599 37.9131 151.66 34.7193 151.585C33.726 151.561 32.7303 151.616 31.7358 151.634C31.0726 151.646 30.4093 151.664 29.746 151.663C29.4248 151.663 29.3192 151.546 29.3512 151.246C29.4236 150.565 29.5084 149.885 29.5905 149.205C29.7555 147.84 29.7899 146.477 29.4579 145.124C29.3889 144.843 29.3076 144.563 29.208 144.289C28.9345 143.538 28.4221 142.948 27.6083 142.575C27.0596 142.323 26.5184 142.056 25.9542 141.833C24.7221 141.346 23.715 140.612 22.814 139.754C21.6052 138.602 20.6045 137.332 19.8758 135.902C17.9296 132.084 16.3155 128.167 15.0244 124.142C13.6579 119.883 12.4818 115.582 11.2145 111.301C10.626 109.314 10.323 107.279 10.0152 105.246C9.63641 102.743 9.4615 100.231 9.44975 97.7104C9.44074 95.7684 9.44142 93.8233 9.78016 91.894C10.2016 89.4942 11.0111 87.1943 12.2814 85.0357C13.5779 82.8325 15.5587 81.1661 17.9971 79.9072C18.9667 79.4067 20.0375 79.1251 21.1329 78.9097C22.6668 78.608 24.2002 78.3049 25.6834 77.8385C26.8202 77.481 27.8836 77.0096 28.8512 76.3763C29.9683 75.6452 30.7303 74.7566 30.6257 73.4651C30.5773 72.8675 30.8807 72.4213 31.4536 72.1118C33.2349 71.1495 35.174 70.7473 37.2654 70.8886C37.585 70.9101 37.8126 71.0297 37.9387 71.2888C38.0513 71.5204 38.1513 71.758 38.284 71.9807C38.5866 72.4886 39.05 72.7997 39.7175 72.9113C40.807 73.0936 41.8728 72.9309 42.9243 72.7499C44.7918 72.4284 46.6411 72.0283 48.5049 71.6897C49.8868 71.4387 51.2798 71.2342 52.6923 71.5414C52.7725 71.5588 52.8568 71.5619 52.9374 71.5781C54.0238 71.7978 54.0097 71.801 54.2666 72.735C54.4393 73.3631 54.6645 73.9802 54.8558 74.6046C55.1014 75.406 55.6413 76.0352 56.4034 76.5054ZM55.3516 69.6041C55.1606 69.7927 54.9518 69.9686 54.7419 70.1418C54.3544 70.4615 53.9188 70.5718 53.3756 70.4561C51.0706 69.9654 48.7774 70.0769 46.4933 70.5902C45.1714 70.8873 43.8401 71.1537 42.5165 71.4454C41.9891 71.5617 41.4547 71.5968 40.9159 71.6179C40.1922 71.6462 39.631 71.3764 39.2059 70.8901C39.0067 70.6622 38.856 70.4027 38.6804 70.159C38.513 69.9267 38.5331 69.7068 38.6498 69.4505C39.6225 67.3133 40.5789 65.1705 41.5897 62.9188C41.881 63.0679 42.0906 63.1755 42.3006 63.2826C45.7146 65.0231 49.4012 66.0195 53.3441 66.2813C54.6783 66.3699 55.9825 66.1578 57.2595 65.813C57.5169 65.7435 57.7489 65.5388 58.0598 65.6525C57.5491 66.724 56.0607 68.9036 55.3516 69.6041ZM60.8268 55.7696C60.7329 56.1544 60.5263 56.4786 60.113 56.6769C60.0683 56.791 59.9801 56.8642 59.8446 56.8928C59.5053 57.3184 59.0216 57.5706 58.4773 57.7498C58.472 57.7502 58.4674 57.7513 58.4622 57.7519C58.4673 57.7514 58.472 57.7504 58.4771 57.7499C58.397 57.8774 58.279 57.9527 58.1061 57.9521L58.083 57.9608C57.9476 58.1012 57.7853 58.1928 57.5637 58.1772L57.4861 58.182C57.4622 58.1834 57.4622 58.1836 57.4861 58.182C57.3958 58.3192 57.2574 58.3757 57.0789 58.3654L56.9917 58.4173L56.8865 58.4116C56.8172 58.4901 56.7379 58.5483 56.6127 58.5144C56.3914 58.6372 56.1422 58.6509 55.8902 58.653C55.7268 58.7156 55.5642 58.7781 55.4021 58.8405L55.4022 58.8406C54.4927 59.1103 53.7299 59.1114 52.8351 58.8446C52.8351 58.8446 52.8351 58.8446 52.8352 58.8445C52.8184 58.8383 52.8003 58.8317 52.781 58.8251C52.4363 58.7057 52.0693 58.6493 51.6993 58.6239C51.2247 58.5912 50.7871 58.4347 50.364 58.2307C49.5333 58.0629 48.8026 57.7195 48.1307 57.2729C47.9101 57.2067 47.703 57.1251 47.6015 56.9233L47.5846 56.9192C47.1841 56.7774 45.4839 55.2761 45.4414 55.2251C45.373 55.1432 45.315 55.0389 45.4298 54.9508C45.5402 54.866 45.6567 54.9167 45.7484 54.9815C45.8059 55.0222 46.6265 55.7921 46.6265 55.7921C46.765 55.811 46.9171 56.0004 46.9171 56.0004C47.1521 56.0308 47.28 56.1796 47.4043 56.3323C47.4066 56.3475 47.409 56.3471 47.4044 56.3324C47.6945 56.4571 47.9713 56.5976 48.1698 56.8289H48.1699L48.1748 56.8372C48.3773 56.8507 48.5236 56.9438 48.637 57.083L48.6405 57.0847C48.8129 57.0917 48.9358 57.167 49.0217 57.2931C49.367 57.3265 49.6394 57.4918 49.9084 57.663C50.4059 57.8203 50.9035 57.9777 51.4009 58.1349C51.7574 58.1543 52.1212 58.1423 52.436 58.3282C53.4901 58.3955 54.5443 58.4016 55.5987 58.335L55.593 58.334C55.5927 58.334 55.5925 58.334 55.5923 58.334C55.7235 58.1815 55.9046 58.1735 56.0983 58.2027C56.2532 58.1583 56.4394 58.1049 56.5942 58.0606C56.6521 58.0156 56.7246 57.999 56.8156 58.0174C57.8116 57.6767 58.6811 57.1441 59.5747 56.6481C59.5748 56.6481 59.6018 56.6465 59.602 56.6465C59.6076 56.5265 59.6953 56.4677 59.814 56.4322C60.0058 56.1312 60.1817 55.8186 60.5075 55.6051C60.5574 55.5725 60.6725 55.5735 60.7289 55.6019C60.783 55.6295 60.8391 55.7196 60.8268 55.7696ZM60.0876 26.6115C59.7942 26.6424 59.5307 26.5714 59.2861 26.4352C59.1365 26.419 58.9869 26.4027 58.8375 26.3864C58.5235 26.4068 58.2152 26.4057 57.9597 26.2089C57.7533 26.2907 57.5524 26.2436 57.3519 26.189L57.3518 26.1889V26.189C57.1002 26.1761 56.8487 26.1632 56.597 26.1503C56.0157 26.1892 55.4411 26.1691 54.8804 26.0278C54.8322 26.0169 54.7842 26.0049 54.7364 25.9902C54.7362 25.9902 54.7358 25.9901 54.7356 25.99C54.3961 25.9845 54.0565 25.979 53.717 25.9733C53.7167 25.973 53.7165 25.9726 53.7163 25.9722C53.7162 25.9725 53.7159 25.9727 53.7158 25.9731C53.5981 25.9713 53.46 25.9891 53.4197 25.8561C53.365 25.6759 53.502 25.5858 53.6725 25.5806C54.4968 25.5552 55.3222 25.5375 56.1316 25.7205C56.7118 25.7164 57.2914 25.7192 57.8604 25.839C57.9742 25.859 58.0879 25.879 58.2017 25.899C58.2938 25.8432 58.3631 25.875 58.4241 25.9403C60.0597 26.065 61.6194 26.4358 63.11 27.0303V27.0304C63.1101 27.0304 63.1102 27.0304 63.1102 27.0303C64.272 27.3044 65.3344 27.76 66.3184 28.3579C67.2842 28.7948 68.0298 29.4318 68.5898 30.238C68.5898 30.238 68.5898 30.2381 68.5898 30.2382C68.5898 30.2382 68.5899 30.2382 68.59 30.2381C68.59 30.238 68.596 30.2526 68.596 30.2526C68.7376 30.2915 68.803 30.3799 68.8124 30.5043L68.8154 30.5058C68.8786 30.5779 69.0987 30.7957 69.0769 30.8613C69.0791 30.8799 69.8603 32.1022 69.8283 32.1603C69.833 32.2779 69.9275 32.3589 69.9876 32.4539C70.0192 32.5593 70.0509 32.6647 70.0825 32.7701C70.0798 32.7898 70.0812 32.7894 70.0825 32.7703C70.2062 32.8557 70.2604 32.9653 70.2349 33.1024C70.2666 33.2271 70.2984 33.3517 70.3301 33.4763C70.4723 33.6221 70.5373 33.7861 70.4877 33.9773C70.4877 33.9773 70.4579 34.1327 70.5052 34.1862C70.5329 34.4409 70.5607 34.6957 70.5884 34.9504C70.5884 34.9507 70.5885 34.951 70.5885 34.9513C70.7533 35.4446 70.7563 35.9377 70.5827 36.4304C70.4177 38.8247 69.3282 40.8477 67.3406 42.5098C67.0682 42.8394 66.7295 43.0959 66.2832 43.234C66.0141 43.4769 65.6587 43.5625 65.2971 43.6129C65.0787 43.6434 64.9094 43.5479 64.8515 43.3178C65.2326 43.2129 65.6157 43.1074 65.9988 43.002C66.4229 42.691 66.847 42.3799 67.271 42.069L67.2837 41.9937L67.3654 41.9658C67.405 41.8871 67.4673 41.8256 67.5522 41.7815L67.583 41.7468C67.5934 41.6313 67.6706 41.5651 67.7925 41.5317L67.7974 41.5259C67.8127 41.3983 67.8946 41.3153 68.0276 41.2665C68.2103 40.9933 68.3866 40.7167 68.5767 40.4474C69.3754 39.3158 69.8315 38.0791 70.085 36.7791C70.0805 35.9871 70.0759 35.1953 70.0713 34.4033C70.0502 34.2234 70.0291 34.0435 70.008 33.8636C70.008 33.8635 70.008 33.8634 70.008 33.8633C69.8615 33.7069 69.8007 33.5286 69.8296 33.3278C69.8041 33.2236 69.7788 33.1195 69.7533 33.0153C69.7565 32.9909 69.7545 32.9914 69.7532 33.0151C69.626 32.9305 69.5708 32.8191 69.5891 32.6805C69.5222 32.6271 69.5023 32.5629 69.5294 32.4877C69.3854 32.3587 69.2816 32.2158 69.3149 32.0249C69.2511 31.9874 69.2283 31.9361 69.2463 31.871C68.9975 31.6842 68.8842 31.43 68.7839 31.1694C68.7187 31.1046 68.6638 31.0338 68.6191 30.9571C68.5086 30.8097 68.3982 30.6624 68.2878 30.515C67.5876 29.8155 66.826 29.1719 65.9774 28.6077C64.8447 28.158 63.7121 27.7085 62.5794 27.2589C61.7486 27.0431 60.918 26.8273 60.0876 26.6115ZM74.2659 62.3174C74.0563 62.4884 73.8438 62.6603 73.5405 62.6992C71.9109 63.5013 70.1487 63.6566 68.3266 63.4869C67.9654 63.4533 67.613 63.349 67.2565 63.2773H67.2566C67.1306 63.3096 67.0455 63.2597 66.9773 63.1749C66.8259 63.1402 66.6746 63.1057 66.5232 63.071C66.5232 63.071 66.5233 63.071 66.5233 63.0711C66.4044 63.0957 66.3337 63.043 66.2824 62.959C66.1939 62.9775 66.1217 62.9556 66.0656 62.8936C65.4712 62.7279 64.9643 62.4428 64.5362 62.0501C64.3966 62.0418 64.3199 61.9756 64.2984 61.8577L64.2977 61.8592C64.2976 61.8589 64.2974 61.8586 64.2972 61.8583C64.2973 61.8586 64.2975 61.8588 64.2976 61.8592C64.1529 61.8488 64.0625 61.7844 64.0341 61.6586L64.0309 61.6571C64.0304 61.6559 64.03 61.6549 64.0295 61.6538C64.0298 61.655 64.0305 61.6559 64.0309 61.6571C63.8883 61.6438 63.8002 61.5789 63.7757 61.4539L63.7454 61.4353C63.2056 61.1027 62.745 60.7117 62.4952 60.1645C62.3325 60.0362 62.2383 59.871 62.4279 59.7347C62.6264 59.5921 62.7853 59.6828 62.8444 59.8948C63.2497 60.3248 63.6551 60.7547 64.0604 61.1847C64.8607 61.7402 65.6826 62.2679 66.5931 62.6829C66.6803 62.6624 66.7549 62.6804 66.8175 62.7369C67.0225 62.7154 67.1882 62.7885 67.3382 62.8996C67.4201 62.8711 67.4932 62.8832 67.5575 62.9357C67.9216 62.9206 68.2737 62.9592 68.6041 63.095C68.6265 63.1028 68.6486 63.1118 68.6704 63.1222C69.2779 63.0918 69.8871 63.076 70.4928 63.028C71.4287 62.9537 72.3256 62.7303 73.2028 62.4439C73.4657 62.2753 73.7301 62.1082 73.991 61.9374C74.1053 61.8626 74.2211 61.8629 74.3149 61.9467C74.4636 62.0797 74.3967 62.2107 74.2659 62.3174ZM84.4683 56.6544C84.2756 57.5307 83.7646 58.245 82.998 58.8293C82.9687 58.9454 82.8998 59.0253 82.7512 59.0326C82.7281 59.162 82.6441 59.2383 82.4931 59.2563C82.4738 59.3834 82.3794 59.4485 82.2462 59.4815C82.1289 59.7278 81.9017 59.8599 81.6202 59.9354C80.9168 60.4603 80.1243 60.8282 79.2029 60.9691C79.2023 60.9692 79.0831 60.9892 79.0831 60.9892C79.0827 60.9895 79.0821 60.9897 79.0815 60.99C78.8294 61.1756 78.5377 61.229 78.2164 61.1815C77.8208 61.2721 77.4194 61.3201 77.0152 61.247C76.9123 61.2283 76.7554 61.149 76.7483 61.0868C76.7388 61.0035 76.8443 60.9101 76.9874 60.8974C77.591 60.8437 78.194 60.7851 78.7972 60.7283C78.9683 60.5623 79.1947 60.5307 79.4343 60.531C79.4343 60.531 79.4344 60.531 79.4345 60.5309C79.5885 60.401 79.7632 60.313 79.988 60.3283L80.0055 60.3227C80.1341 60.1984 80.2806 60.105 80.4858 60.1125L80.5023 60.1059C80.622 59.9685 80.7686 59.8738 80.9774 59.8768C81.2413 59.5886 81.5787 59.3855 81.9623 59.2355C81.9623 59.2355 81.9964 59.2361 81.9967 59.2361C82.0183 59.1094 82.1103 59.0477 82.2497 59.03C82.2497 59.03 82.2497 59.03 82.2497 59.0299C82.3341 58.8254 82.5097 58.6935 82.7171 58.5872C83.3406 57.8166 83.8812 57.0088 84.1948 56.0994C84.1975 55.674 84.2001 55.2486 84.2028 54.8231C84.2027 54.823 84.2027 54.8228 84.2026 54.8226C84.0541 54.5874 83.9857 54.3377 84.0261 54.0687C83.7932 53.4022 83.6131 52.7189 83.1969 52.1109C83.0293 52.0352 82.9598 51.8847 83.0612 51.7764C83.2073 51.6202 83.4018 51.6283 83.5292 51.8327C83.5292 51.8328 83.5292 51.8329 83.5292 51.833L83.5295 51.8329C84.1907 52.5792 84.4972 53.4284 84.5047 54.3644C84.5047 54.3645 84.5047 54.3646 84.5047 54.3647C84.8327 55.0759 84.8366 55.7872 84.5046 56.4986C84.5418 56.5593 84.5296 56.6112 84.4683 56.6544ZM85.2174 16.4064C85.1023 16.4144 85.0356 16.3616 84.9968 16.274C84.5838 16.1135 84.1704 15.9536 83.7578 15.7924C82.7029 15.3803 81.609 15.3139 80.4842 15.5099C79.1842 15.7365 77.9219 16.0648 76.7148 16.5457C76.567 16.6046 76.415 16.6616 76.258 16.6955C76.1953 16.7091 76.0837 16.6765 76.0474 16.6321C75.9705 16.5383 76.014 16.4342 76.1052 16.3567C76.1628 16.3077 76.2305 16.2633 76.3024 16.2322C77.945 15.5217 79.6691 15.0517 81.5093 14.9592C82.5631 14.9062 83.5574 15.1114 84.4627 15.6001C84.4628 15.6002 84.4631 15.6003 84.4632 15.6005C84.4631 15.6004 84.463 15.6003 84.463 15.6002C84.6825 15.5863 84.8393 15.6793 84.9664 15.8231L84.9832 15.8298C85.1433 15.8252 85.2546 15.8889 85.3231 16.0126C85.4027 16.0017 85.46 16.0278 85.4946 16.091C85.6226 16.0773 85.686 16.1379 85.7168 16.2361L85.746 16.2555C86.3344 16.5198 86.8521 16.8574 87.2365 17.3339C87.3712 17.3581 87.4479 17.4323 87.4795 17.5454C88.1785 17.9911 88.6229 18.598 88.9402 19.2852C89.0064 19.3115 89.0241 19.3533 88.9934 19.4105C88.9998 19.5324 89.0954 19.6156 89.1659 19.7096C89.1085 19.61 89.051 19.5103 88.9935 19.4106C89.1136 19.483 89.1819 19.578 89.1659 19.7096C89.2348 19.7595 89.2547 19.8213 89.2256 19.895C89.358 20.0278 89.4487 20.1734 89.4154 20.3574C89.4392 20.4752 89.463 20.593 89.4868 20.7108C89.4869 20.711 89.4871 20.7112 89.4872 20.7115C89.6864 21.0052 89.7335 21.3222 89.6771 21.6547C89.6788 21.7299 89.6805 21.805 89.6822 21.8801C89.7865 22.524 89.7887 23.1677 89.6763 23.8113C89.6739 23.8874 89.6715 23.9637 89.6691 24.0398C89.7139 24.3168 89.6938 24.5823 89.486 24.8142C89.5483 24.9219 89.5152 25.0188 89.4416 25.1113C89.3416 25.678 89.1743 26.2227 88.7571 26.6856C88.746 26.9184 88.5993 27.0957 88.4408 27.2681C88.3298 27.6952 88.0248 28.0278 87.7318 28.3663C87.6072 28.6696 87.3892 28.9209 87.119 29.1324C87.0465 29.189 86.8884 29.2133 86.7939 29.1869C86.6549 29.1482 86.6624 28.998 86.7223 28.9205C86.9448 28.6319 87.1926 28.358 87.4308 28.0787C87.6338 27.6986 87.7929 27.2962 88.1554 26.9965C88.1932 26.7724 88.3237 26.5874 88.4808 26.4135C88.7144 25.7389 88.9481 25.0643 89.1817 24.3898C89.1807 23.305 89.1796 22.2203 89.1786 21.1356C89.1786 21.1355 89.1786 21.1354 89.1784 21.1352C89.0289 20.9731 88.9764 20.7878 89.0041 20.5832C88.9774 20.4693 88.9506 20.3553 88.9238 20.2414C88.9238 20.2414 88.9238 20.2414 88.9238 20.2413C88.8148 20.1622 88.7553 20.0643 88.7705 19.9379C88.746 19.8692 88.7215 19.8003 88.6971 19.7316C88.1962 19.0821 87.6955 18.4328 87.1947 17.7835C87.064 17.7554 86.9825 17.6844 86.949 17.5718C86.4407 17.2153 85.9326 16.8589 85.4243 16.5024C85.3313 16.5094 85.2624 16.4774 85.2174 16.4064ZM92.1005 42.5629C92.0883 42.6281 92.0202 42.6853 91.9781 42.7464C91.9781 42.7465 91.9781 42.7466 91.9781 42.7467C91.8963 43.977 91.3781 45.097 90.7789 46.1875C90.1596 47.3144 89.3609 48.3504 88.489 49.3423C88.4232 49.4172 88.2979 49.4525 88.2002 49.5063H88.2001C87.9659 49.5732 87.9396 49.4802 88.0058 49.3161C88.1587 48.9013 88.51 48.5932 88.7859 48.2471C90.4018 46.2196 91.439 44.0039 91.7297 41.5398C91.6984 40.1025 91.0508 38.8546 90.1551 37.683C90.1568 37.6834 90.1586 37.6838 90.1603 37.6842C90.1399 37.5643 90.0463 37.4979 89.9306 37.4475C89.9311 37.4486 89.9319 37.4494 89.9325 37.4505L89.9282 37.4464C89.929 37.4467 89.9298 37.4472 89.9306 37.4475C89.8844 37.3485 89.7976 37.2818 89.6957 37.2272L89.6901 37.2214C89.6247 37.1411 89.5468 37.0712 89.4567 37.0116L89.4406 36.9968C89.3735 36.9222 89.2977 36.8552 89.2128 36.7958L89.1913 36.7772C89.1236 36.704 89.0469 36.6386 88.9627 36.5798L88.9424 36.5625C88.8743 36.4871 88.7952 36.4212 88.707 36.3637L88.6934 36.3529C88.625 36.272 88.5431 36.2032 88.4475 36.1467L88.4468 36.1462C88.3865 36.0494 88.2975 35.9819 88.1771 35.9463C87.333 35.4501 86.6038 34.8065 85.6408 34.4625C85.5061 34.4144 85.4891 34.3004 85.5426 34.2052C85.57 34.1564 85.6762 34.1164 85.7477 34.1153C86.0421 34.1105 86.3064 34.1951 86.5514 34.3394C88.1892 35.3045 89.7029 36.3826 90.8098 37.8346C92.0858 39.237 92.4246 40.8326 92.1005 42.5629Z" fill="#333333"/>
<path d="M58.3424 7.65031C58.2688 7.68986 58.195 7.72882 58.1208 7.76728C58.195 7.72812 58.2692 7.68907 58.3428 7.65022C58.3427 7.65031 58.3425 7.65031 58.3424 7.65031Z" fill="#333333"/>
<path d="M54.8458 9.54094C54.8481 9.54134 54.9244 9.55627 54.9456 9.55986C54.9186 9.54114 54.8856 9.53427 54.8458 9.54094Z" fill="#333333"/>
<path d="M87.2098 17.4225C87.2344 17.3994 87.2437 17.3702 87.237 17.3344C87.2362 17.3367 87.2131 17.4096 87.2098 17.4225Z" fill="#333333"/>
<path d="M87.0374 17.56C87.0074 17.5642 86.9518 17.5721 86.9496 17.5724C86.9834 17.5772 87.0124 17.5725 87.0374 17.56Z" fill="#333333"/>
<path d="M88.7704 19.9379C88.8216 20.039 88.8727 20.1401 88.9238 20.2413C88.9272 20.1195 88.831 20.0354 88.7704 19.9379Z" fill="#333333"/>
<path d="M90.9516 239C90.9632 238.85 90.9747 238.701 90.9862 238.551C91.5859 238.509 92.1434 238.394 92.4775 237.896C92.7741 238.231 92.6939 238.621 92.6942 239C92.1132 239 91.5325 239 90.9516 239Z" fill="#787676"/>
<path d="M15.5351 238.79C15.5325 238.86 15.5299 238.93 15.5272 239C15.0294 239 14.5316 239 14.0337 239C14.0468 238.92 14.06 238.84 14.0732 238.759C14.5704 238.421 15.0564 238.475 15.5351 238.79Z" fill="#747474"/>
<path d="M56.5761 8.12215C56.5144 8.16575 56.4526 8.20935 56.3913 8.25275C56.453 8.20915 56.5146 8.16565 56.5761 8.12215Z" fill="#C9D6D6"/>
<path d="M54.3931 132.345C54.3787 132.469 54.3811 132.579 54.3508 132.682C54.2847 132.908 54.1106 133.058 53.853 133.114C53.5926 133.172 53.3677 133.101 53.1786 132.932C52.8727 132.659 52.7824 132.298 52.6896 131.954C52.4817 131.185 52.2992 130.409 52.1456 129.63C51.6982 127.362 51.3675 125.08 51.076 122.792C50.757 120.288 50.5736 117.776 50.3376 115.267C50.2499 114.335 50.1477 113.404 50.0576 112.472C50.0405 112.295 50.0285 112.113 50.0509 111.937C50.0839 111.678 50.3386 111.495 50.6467 111.478C50.9604 111.46 51.2522 111.593 51.3295 111.844C51.436 112.19 51.5151 112.545 51.5698 112.9C51.9155 115.147 52.1092 117.406 52.3353 119.663C52.7446 123.747 53.2259 127.824 54.3022 131.827C54.349 132.002 54.3651 132.182 54.3931 132.345Z" fill="#010101"/>
</svg>
