<svg width="298" height="35" viewBox="0 0 298 35" fill="none" xmlns="http://www.w3.org/2000/svg">
<path d="M199.508 12.5902C198.828 12.5902 198.274 11.9816 198.265 11.2241V9.23038C198.287 7.53802 197.703 5.90545 196.642 4.69316C195.582 3.48086 194.131 2.78856 192.611 2.76912H191.284C190.598 2.76912 190.041 2.14923 190.041 1.38456C190.041 0.619888 190.598 2.48465e-08 191.284 2.48465e-08H192.611C197.151 0.0606583 200.802 4.17553 200.802 9.23038V11.2057C200.811 11.5695 200.687 11.9218 200.459 12.1826C200.231 12.4433 199.918 12.5904 199.591 12.5902H199.508ZM170.493 12.5904C170.164 12.5952 169.848 12.4534 169.614 12.1967C169.381 11.94 169.249 11.5897 169.249 11.2241V9.23038C169.223 6.79258 170.074 4.44441 171.613 2.71012C173.152 0.975824 175.25 -0.000179807 177.44 2.48465e-08H178.799C179.486 2.48465e-08 180.043 0.619888 180.043 1.38456C180.043 2.14923 179.486 2.76912 178.799 2.76912H177.456C175.924 2.76389 174.453 3.44596 173.377 4.66153C172.301 5.87709 171.71 7.52381 171.736 9.23038V11.2241C171.727 11.9816 171.173 12.5904 170.493 12.5904Z" fill="#9764C7"/>
<path d="M200.857 20.6744V25.8619C200.804 30.8524 197.198 34.8921 192.716 34.9815H191.373C190.898 35.043 190.433 34.7951 190.178 34.3441C189.923 33.8932 189.923 33.3192 190.178 32.8683C190.433 32.4173 190.898 32.1694 191.373 32.2309H192.716C195.878 32.2207 198.437 29.3639 198.436 25.8435V20.6744H200.857ZM180.148 33.6154C180.139 34.3759 179.588 34.9901 178.905 35H177.545C173.006 34.9393 169.354 30.8245 169.355 25.7696V20.6744H171.842V25.8619C171.842 29.3752 174.39 32.229 177.545 32.2493H178.905C179.233 32.2444 179.549 32.3861 179.783 32.6429C180.017 32.8996 180.148 33.2499 180.148 33.6154ZM203.958 19.2899C203.958 20.0546 203.401 20.6744 202.714 20.6744H167.431C166.745 20.6744 166.188 20.0546 166.188 19.2899C166.188 18.5252 166.745 17.9053 167.431 17.9053H202.664C203.003 17.8902 203.332 18.0294 203.576 18.2907C203.82 18.552 203.958 18.9129 203.958 19.2899Z" fill="#9764C7"/>
<path d="M193.824 14.5371V12.1556C193.824 11.005 193.414 9.90157 192.683 9.08798C191.952 8.2744 190.961 7.81733 189.928 7.81733H180.444C178.292 7.81733 176.548 9.75964 176.548 12.1556V14.5371C176.556 14.8185 176.759 15.0444 177.012 15.054H193.36C193.613 15.0444 193.816 14.8185 193.824 14.5371Z" fill="#9764C7"/>
<path d="M193.824 20.6781V22.7457C193.824 25.1417 192.08 27.084 189.928 27.084H180.444C178.292 27.084 176.548 25.1417 176.548 22.7457V20.6781H193.824Z" fill="#9764C7"/>
<path d="M216.476 33.871C217.525 33.871 219.506 33.749 221.099 32.9361C223.818 31.5948 225.566 28.3026 225.45 24.7664C225.333 21.5148 223.741 18.9542 221.138 17.8974C219.933 17.369 218.574 17.0439 217.253 16.7594C213.795 15.9464 210.532 15.1742 209.794 11.069C209.289 8.30516 210.299 6.39484 211.153 5.25677C212.552 3.54968 214.689 2.53355 216.903 2.53355C221.138 2.53355 223.002 5.70387 223.857 8.50839L220.516 10.1342C220.166 8.91484 219.584 7.65484 218.302 7.0858C216.748 6.43548 215.038 7.12645 214.3 8.75226C213.484 10.4594 213.989 12.4103 215.621 13.589C215.854 13.7923 216.243 13.711 216.437 13.4671C216.592 13.2232 216.515 12.8574 216.282 12.6542C215.116 11.8006 214.766 10.4594 215.349 9.28064C215.815 8.22387 216.864 7.73613 217.836 8.18322C218.923 8.63032 219.389 9.97161 219.623 11.1097C219.661 11.2723 219.778 11.4348 219.933 11.5161C220.089 11.5974 220.244 11.5974 220.4 11.5161L224.751 9.36193C224.984 9.24 225.139 8.95548 225.061 8.67097C223.818 3.95613 220.943 1.35484 216.903 1.35484C214.339 1.35484 211.892 2.53355 210.299 4.52516C209.289 5.8258 208.123 8.06129 208.667 11.2723C209.522 16.1497 213.329 17.0439 217.02 17.8974C218.302 18.1819 219.545 18.5071 220.71 18.9948C222.847 19.889 224.207 22.0839 224.323 24.8071C224.401 27.8555 222.925 30.7006 220.633 31.8794C219.545 32.4077 218.069 32.7329 216.476 32.7329C211.037 32.7329 209.716 28.4652 208.978 25.6606L212.513 24.1568C212.863 25.6606 213.484 27.6523 215.427 28.2213C216.515 28.5464 217.564 28.3839 218.418 27.6929C219.273 27.0426 219.817 25.9045 219.817 24.6039C219.817 22.2871 218.457 21.271 217.214 20.6613C216.942 20.5394 216.592 20.6206 216.476 20.9052C216.359 21.1897 216.437 21.5555 216.748 21.6774C217.758 22.2058 218.69 22.9374 218.69 24.6039C218.69 25.4981 218.379 26.2703 217.758 26.7581C217.214 27.2052 216.476 27.3271 215.738 27.0832C214.261 26.6361 213.834 25.0103 213.484 23.2219C213.446 23.0594 213.329 22.8968 213.174 22.8155C213.018 22.7748 212.863 22.7342 212.707 22.8155L208.046 24.7664C207.812 24.8477 207.657 25.1323 207.735 25.4168V25.5794C208.512 28.4652 209.91 33.871 216.476 33.871Z" fill="#9764C7"/>
<path d="M240.277 34.3587C246.726 34.3587 247.775 25.2542 247.93 22.4497C247.93 22.1245 247.736 21.7994 247.425 21.7994L241.443 21.3523C241.132 21.3523 240.86 21.5555 240.821 21.8806C240.821 22.2058 240.821 22.6123 240.821 23.0594C240.782 24.6445 240.743 26.8393 239.617 27.6523C239.384 27.8555 239.306 28.2213 239.5 28.4652C239.695 28.7497 240.044 28.8716 240.277 28.6684C241.87 27.4897 241.909 24.929 241.909 23.1V22.5716L246.765 22.9781C246.532 25.9858 245.366 33.1394 240.316 33.18H240.277C239.151 33.18 238.179 32.489 237.48 31.1884C237.092 30.4568 236.625 28.1806 236.625 21.5961V18.2226C236.625 16.5561 236.703 11.5568 237.402 9.36193C237.907 7.93935 238.412 7.73613 239.267 7.73613C240.666 7.73613 240.821 11.3129 240.86 13.9142V14.1581C240.86 14.3206 240.977 14.4832 241.093 14.6052C241.21 14.6864 241.326 14.7677 241.482 14.7677L247.62 14.1987C247.93 14.1581 248.125 13.8735 248.125 13.5484C247.503 3.10258 242.919 0.867095 239.189 0.867095H239.112C236.781 0.867095 234.838 1.68 233.323 3.34645C230.099 6.76064 229.477 13.1013 229.477 17.8161C229.477 24.6445 230.604 29.2374 233.012 31.92C233.207 32.1232 233.556 32.1639 233.789 31.92C233.984 31.7168 234.023 31.3103 233.828 31.0664C231.653 28.6684 230.565 24.2381 230.565 17.8161C230.565 13.3452 231.187 7.32967 234.1 4.2C235.382 2.77742 237.092 2.08645 239.151 2.08645C243.774 2.08645 246.415 5.8258 246.959 13.0606L241.987 13.4671C241.909 10.1342 241.715 6.47613 239.306 6.47613H239.267C237.83 6.47613 236.975 7.20774 236.392 8.95548C235.693 11.069 235.538 15.2555 235.538 18.1819V21.5961C235.538 25.1323 235.615 30.091 236.509 31.7981C237.402 33.4239 238.762 34.3587 240.238 34.3587H240.277Z" fill="#9764C7"/>
<path d="M273.454 33.18L270.773 21.3523L266.267 1.84258C266.189 1.55806 265.995 1.35484 265.723 1.35484H259.74C259.468 1.35484 259.235 1.55806 259.157 1.84258L254.69 21.3523L252.009 33.18C251.97 33.3426 252.009 33.5458 252.126 33.6677C252.203 33.7897 252.398 33.871 252.553 33.871H258.38C258.458 33.871 258.536 33.8303 258.613 33.749C258.691 33.7084 258.73 33.6271 258.769 33.5458C258.769 33.5458 258.808 33.4239 258.808 33.3832L260.439 23.9942C260.711 22.4903 261.061 22.0432 262.615 22.0432L262.693 22.0026L262.731 22.0432H265.218C265.257 22.0432 265.334 22.0026 265.373 22.0026C265.451 21.9619 265.529 21.8806 265.567 21.84C265.606 21.7587 265.684 21.6774 265.684 21.5961V21.3523L263.275 7.69548C263.236 7.45161 263.042 7.24839 262.731 7.24839C262.459 7.24839 262.226 7.45161 262.188 7.69548L260.4 17.7348C260.362 18.06 260.556 18.3039 260.867 18.3852C261.177 18.4258 261.488 18.2632 261.527 17.9381L262.731 11.0284L264.48 20.8645H262.615C260.362 20.8645 259.662 22.0026 259.352 23.791L257.798 32.7329H253.252L255.816 21.6368L260.167 2.53355H265.295L269.685 21.5961L272.211 32.7329H267.704L267.005 28.6684L266.616 26.4329C266.616 26.1484 266.306 25.9045 265.995 25.9452H263.159C262.848 25.9452 262.576 26.2297 262.576 26.5548C262.576 26.88 262.848 27.1239 263.159 27.1239H265.606L265.917 28.9123L266.733 33.3832C266.733 33.4239 266.772 33.5458 266.772 33.5458C266.811 33.6271 266.849 33.7084 266.927 33.749C266.966 33.7897 267.082 33.871 267.121 33.871H272.949C273.104 33.871 273.298 33.7897 273.376 33.6677C273.454 33.5458 273.454 33.18 273.454 33.18Z" fill="#9764C7"/>
<path d="M281.528 2.53355C283.043 2.53355 283.587 3.06193 284.286 4.32193L296.99 28.4652L297.029 28.5058C297.068 28.5871 297.145 28.6684 297.223 28.6684C297.262 28.709 297.378 28.7497 297.417 28.7497H297.612C297.689 28.7497 297.728 28.6684 297.806 28.6684C297.845 28.6277 297.922 28.5464 297.961 28.5058C298 28.4245 298 28.3432 298 28.2619V1.96451C298 1.63935 297.806 1.35484 297.495 1.35484H291.512C291.201 1.35484 290.968 1.63935 290.968 1.96451V9.36193C290.968 9.68709 291.201 9.97161 291.512 9.97161C291.823 9.97161 292.095 9.68709 292.095 9.36193V2.53355H296.912V25.9045L285.258 3.79355C284.442 2.28968 283.548 1.35484 281.528 1.35484H277.099C276.788 1.35484 276.555 1.63935 276.555 1.96451V33.3019C276.555 33.4645 276.594 33.6271 276.711 33.7084C276.788 33.8303 276.944 33.871 277.099 33.871H282.888C283.199 33.871 283.432 33.6271 283.432 33.3019V15.6619L291.007 30.8226V30.8632L291.629 31.8794C292.561 33.3019 293.649 33.871 295.514 33.871H297.495C297.806 33.871 298 33.6271 298 33.3019C298 32.9768 297.806 32.7329 297.495 32.7329H295.514C293.804 32.7329 293.183 32.2045 292.6 31.2697L291.978 30.2535L283.393 13.02L283.315 12.9387C283.276 12.8981 283.237 12.8168 283.16 12.7761C283.082 12.7355 283.004 12.7355 282.927 12.7355H282.732C282.655 12.7355 282.616 12.7761 282.538 12.8168C282.46 12.8574 282.422 12.8981 282.383 12.9794C282.344 13.0606 282.305 13.1419 282.305 13.2232V32.7329H277.643V2.53355H281.528Z" fill="#9764C7"/>
<path d="M6.3324 33.9116C6.4878 33.9116 6.60435 33.871 6.68204 33.749C6.79859 33.6677 6.83744 33.5052 6.83744 33.3426V23.0187C6.83744 22.6935 6.6432 22.4497 6.3324 22.4497C6.02161 22.4497 5.74967 22.6935 5.74967 23.0187V32.7329H1.08777V2.57419H5.74967V16.6374C5.74967 19.1981 6.29355 20.5394 9.16839 20.5394H10.567V33.3019C10.567 33.6271 10.8 33.871 11.1108 33.871H16.8605C17.1713 33.871 17.4432 33.6271 17.4432 33.3019V2.00516C17.4432 1.68 17.1713 1.39548 16.8605 1.39548H11.1108C10.8 1.39548 10.567 1.68 10.567 2.00516V16.1497C10.567 16.4748 10.8 16.7187 11.1108 16.7187C11.4216 16.7187 11.6547 16.4748 11.6547 16.1497V2.57419H16.3166V32.7329H11.6547V19.9703C11.6547 19.6452 11.4216 19.4013 11.1108 19.4013H9.16839C7.14823 19.4013 6.83744 18.7916 6.83744 16.6374V2.00516C6.83744 1.68 6.6432 1.39548 6.3324 1.39548H0.543887C0.233095 1.39548 0 1.68 0 2.00516V33.3019C0 33.6271 0.233095 33.871 0.543887 33.871L6.29355 33.9116H6.3324Z" fill="#9764C7"/>
<path d="M42.7662 33.18L40.0856 21.3523L35.5791 1.84258C35.5014 1.55806 35.3071 1.35484 35.0352 1.35484H29.0524C28.7805 1.35484 28.5474 1.55806 28.4697 1.84258L24.0021 21.3523L21.3215 33.18C21.2826 33.3426 21.3215 33.5458 21.438 33.6677C21.5157 33.7897 21.71 33.871 21.8654 33.871H27.6927C27.7704 33.871 27.8481 33.8303 27.9258 33.749C28.0035 33.7084 28.0424 33.6271 28.0812 33.5458C28.0812 33.5458 28.1201 33.4239 28.1201 33.3832L29.7517 23.9942C30.0237 22.4903 30.3733 22.0432 31.9273 22.0432L32.005 22.0026L32.0438 22.0432H34.5302C34.569 22.0432 34.6467 22.0026 34.6856 22.0026C34.7633 21.9619 34.841 21.8806 34.8798 21.84C34.9187 21.7587 34.9964 21.6774 34.9964 21.5961V21.3523L32.5877 7.69548C32.5489 7.45161 32.3546 7.24839 32.0438 7.24839C31.7719 7.24839 31.5388 7.45161 31.4999 7.69548L29.7129 17.7348C29.674 18.06 29.8683 18.3039 30.1791 18.3852C30.4899 18.4258 30.8007 18.2632 30.8395 17.9381L32.0438 11.0284L33.792 20.8645H31.9273C29.674 20.8645 28.9747 22.0026 28.664 23.791L27.11 32.7329H22.5646L25.1287 21.6368L29.4798 2.53355H34.6079L38.9978 21.5961L41.523 32.7329H37.0165L36.3172 28.6684L35.9287 26.4329C35.9287 26.1484 35.6179 25.9045 35.3071 25.9452H32.4712C32.1604 25.9452 31.8884 26.2297 31.8884 26.5548C31.8884 26.88 32.1604 27.1239 32.4712 27.1239H34.9187L35.2295 28.9123L36.0453 33.3832C36.0453 33.4239 36.0841 33.5458 36.0841 33.5458C36.123 33.6271 36.1618 33.7084 36.2395 33.749C36.2784 33.7897 36.3949 33.871 36.4338 33.871H42.2611C42.4165 33.871 42.6108 33.7897 42.6885 33.6677C42.7662 33.5458 42.7662 33.18 42.7662 33.18Z" fill="#9764C7"/>
<path d="M52.0059 33.871C52.3167 33.871 52.5498 33.6271 52.5498 33.3019V1.96451C52.5498 1.63935 52.3167 1.35484 52.0059 1.35484H46.4116C46.1008 1.35484 45.8677 1.63935 45.8677 1.96451V5.50064C45.8677 5.8258 46.1008 6.06968 46.4116 6.06968C46.7224 6.06968 46.9555 5.8258 46.9555 5.50064V2.53355H51.462V32.7329H46.9555V11.5974C46.9555 9.56516 47.6936 9.40258 48.7814 9.40258H49.4418C49.7526 9.40258 50.0246 9.15871 50.0246 8.83354C50.0246 8.50839 49.7526 8.22387 49.4418 8.22387H48.7814C47.4217 8.22387 45.8677 8.63032 45.8677 11.5974V33.3019C45.8677 33.6271 46.1008 33.871 46.4116 33.871H52.0059Z" fill="#9764C7"/>
<path d="M73.7016 33.871C73.857 33.871 74.0124 33.8303 74.1289 33.6677C74.2066 33.5052 74.2843 33.3019 74.2066 33.1394L70.3217 20.7832C70.3606 20.7426 70.4383 20.7019 70.4383 20.7019C72.3807 19.0355 73.5462 15.7432 73.5462 11.9226C73.5462 8.99613 72.9246 6.55742 71.7203 4.60645C69.7778 1.39548 66.7087 1.35484 64.0282 1.35484H56.9965C56.6857 1.35484 56.4526 1.63935 56.4526 1.96451V13.2232C56.4526 13.5484 56.6857 13.7923 56.9965 13.7923C57.3073 13.7923 57.5404 13.5484 57.5404 13.2232V2.53355H64.0282C66.6699 2.53355 69.1562 2.53355 70.7879 5.25677C71.8757 6.96387 72.4584 9.19935 72.4584 11.9226C72.4584 15.3368 71.3706 18.3852 69.739 19.7671C69.6224 19.889 69.5059 20.011 69.3505 20.0516C69.2339 20.1735 69.1174 20.3361 69.1174 20.4987C69.1174 20.58 69.1174 20.7019 69.1562 20.7426L72.9246 32.7329H68.0296L65.1548 21.6368C65.1548 21.5148 65.0771 21.3929 64.9994 21.3523C64.9217 21.2303 64.8051 21.149 64.6497 21.149H62.6684C62.3577 21.149 62.0857 21.3929 62.0857 21.7181V32.7329H57.5404V18.5884C57.5404 17.1658 57.89 16.8 59.2497 16.8H64.0282C66.5922 16.8 67.5634 15.3774 67.5634 11.4348C67.5634 10.1342 67.5634 6.31355 64.0282 6.31355H62.6684C62.3577 6.31355 62.0857 6.55742 62.0857 6.88258V12.4103C62.0857 12.7355 62.3577 13.02 62.6684 13.02C62.9792 13.02 63.1735 12.7355 63.1735 12.4103V7.49226H64.0282C65.7764 7.49226 66.4368 8.63032 66.4368 11.4348C66.4368 15.3774 65.4656 15.6619 64.0282 15.6619H59.2497C57.2684 15.6619 56.4526 16.5155 56.4526 18.5884V33.3019C56.4526 33.6271 56.6857 33.871 56.9965 33.871H62.6684C62.9792 33.871 63.1735 33.6271 63.1735 33.3019V22.3277H64.2224L67.0584 33.4645C67.1361 33.7084 67.3303 33.871 67.6023 33.871H73.7016Z" fill="#9764C7"/>
<path d="M89.071 34.3587C95.5199 34.3587 96.5688 25.2542 96.7242 22.4497C96.7242 22.1245 96.53 21.7994 96.2192 21.7994L90.2364 21.3523C89.9256 21.3523 89.6537 21.5555 89.6148 21.8806C89.6148 22.2058 89.6148 22.6123 89.6148 23.0594C89.576 24.6445 89.5371 26.8393 88.4105 27.6523C88.1774 27.8555 88.0997 28.2213 88.294 28.4652C88.4882 28.7497 88.8379 28.8716 89.071 28.6684C90.6638 27.4897 90.7026 24.929 90.7026 23.1V22.5716L95.5588 22.9781C95.3257 25.9858 94.1602 33.1394 89.1098 33.18H89.071C87.9443 33.18 86.9731 32.489 86.2738 31.1884C85.8853 30.4568 85.4191 28.1806 85.4191 21.5961V18.2226C85.4191 16.5561 85.4968 11.5568 86.1961 9.36193C86.7012 7.93935 87.2062 7.73613 88.0609 7.73613C89.4594 7.73613 89.6148 11.3129 89.6537 13.9142V14.1581C89.6537 14.3206 89.7702 14.4832 89.8868 14.6052C90.0033 14.6864 90.1199 14.7677 90.2753 14.7677L96.4134 14.1987C96.7242 14.1581 96.9185 13.8735 96.9185 13.5484C96.2969 3.10258 91.7127 0.867095 87.9832 0.867095H87.9055C85.5745 0.867095 83.6321 1.68 82.117 3.34645C78.8925 6.76064 78.2709 13.1013 78.2709 17.8161C78.2709 24.6445 79.3975 29.2374 81.8062 31.92C82.0004 32.1232 82.3501 32.1639 82.5832 31.92C82.7774 31.7168 82.8163 31.3103 82.622 31.0664C80.4465 28.6684 79.3587 24.2381 79.3587 17.8161C79.3587 13.3452 79.9803 7.32967 82.894 4.2C84.176 2.77742 85.8853 2.08645 87.9443 2.08645C92.5674 2.08645 95.2091 5.8258 95.753 13.0606L90.7803 13.4671C90.7026 10.1342 90.5084 6.47613 88.0997 6.47613H88.0609C86.6235 6.47613 85.7688 7.20774 85.1861 8.95548C84.4868 11.069 84.3314 15.2555 84.3314 18.1819V21.5961C84.3314 25.1323 84.4091 30.091 85.3026 31.7981C86.1961 33.4239 87.5558 34.3587 89.0321 34.3587H89.071Z" fill="#9764C7"/>
<path d="M122.247 33.18L119.567 21.3523L115.06 1.84258C114.983 1.55806 114.788 1.35484 114.517 1.35484H108.534C108.262 1.35484 108.029 1.55806 107.951 1.84258L103.483 21.3523L100.803 33.18C100.764 33.3426 100.803 33.5458 100.919 33.6677C100.997 33.7897 101.191 33.871 101.347 33.871H107.174C107.252 33.871 107.329 33.8303 107.407 33.749C107.485 33.7084 107.524 33.6271 107.563 33.5458C107.563 33.5458 107.601 33.4239 107.601 33.3832L109.233 23.9942C109.505 22.4903 109.855 22.0432 111.409 22.0432L111.486 22.0026L111.525 22.0432H114.011C114.05 22.0432 114.128 22.0026 114.167 22.0026C114.245 21.9619 114.322 21.8806 114.361 21.84C114.4 21.7587 114.478 21.6774 114.478 21.5961V21.3523L112.069 7.69548C112.03 7.45161 111.836 7.24839 111.525 7.24839C111.253 7.24839 111.02 7.45161 110.981 7.69548L109.194 17.7348C109.155 18.06 109.35 18.3039 109.66 18.3852C109.971 18.4258 110.282 18.2632 110.321 17.9381L111.525 11.0284L113.273 20.8645H111.409C109.155 20.8645 108.456 22.0026 108.145 23.791L106.591 32.7329H102.046L104.61 21.6368L108.961 2.53355H114.089L118.479 21.5961L121.004 32.7329H116.498L115.799 28.6684L115.41 26.4329C115.41 26.1484 115.099 25.9045 114.788 25.9452H111.952C111.642 25.9452 111.37 26.2297 111.37 26.5548C111.37 26.88 111.642 27.1239 111.952 27.1239H114.4L114.711 28.9123L115.527 33.3832C115.527 33.4239 115.565 33.5458 115.565 33.5458C115.604 33.6271 115.643 33.7084 115.721 33.749C115.76 33.7897 115.876 33.871 115.915 33.871H121.742C121.898 33.871 122.092 33.7897 122.17 33.6677C122.247 33.5458 122.247 33.18 122.247 33.18Z" fill="#9764C7"/>
<path d="M142.598 33.871C142.753 33.871 142.909 33.8303 143.025 33.6677C143.103 33.5052 143.181 33.3019 143.103 33.1394L139.218 20.7832C139.257 20.7426 139.335 20.7019 139.335 20.7019C141.277 19.0355 142.443 15.7432 142.443 11.9226C142.443 8.99613 141.821 6.55742 140.617 4.60645C138.674 1.39548 135.605 1.35484 132.925 1.35484H125.893C125.582 1.35484 125.349 1.63935 125.349 1.96451V13.2232C125.349 13.5484 125.582 13.7923 125.893 13.7923C126.204 13.7923 126.437 13.5484 126.437 13.2232V2.53355H132.925C135.566 2.53355 138.053 2.53355 139.684 5.25677C140.772 6.96387 141.355 9.19935 141.355 11.9226C141.355 15.3368 140.267 18.3852 138.635 19.7671C138.519 19.889 138.402 20.011 138.247 20.0516C138.13 20.1735 138.014 20.3361 138.014 20.4987C138.014 20.58 138.014 20.7019 138.053 20.7426L141.821 32.7329H136.926L134.051 21.6368C134.051 21.5148 133.974 21.3929 133.896 21.3523C133.818 21.2303 133.702 21.149 133.546 21.149H131.565C131.254 21.149 130.982 21.3929 130.982 21.7181V32.7329H126.437V18.5884C126.437 17.1658 126.786 16.8 128.146 16.8H132.925C135.489 16.8 136.46 15.3774 136.46 11.4348C136.46 10.1342 136.46 6.31355 132.925 6.31355H131.565C131.254 6.31355 130.982 6.55742 130.982 6.88258V12.4103C130.982 12.7355 131.254 13.02 131.565 13.02C131.876 13.02 132.07 12.7355 132.07 12.4103V7.49226H132.925C134.673 7.49226 135.333 8.63032 135.333 11.4348C135.333 15.3774 134.362 15.6619 132.925 15.6619H128.146C126.165 15.6619 125.349 16.5155 125.349 18.5884V33.3019C125.349 33.6271 125.582 33.871 125.893 33.871H131.565C131.876 33.871 132.07 33.6271 132.07 33.3019V22.3277H133.119L135.955 33.4645C136.033 33.7084 136.227 33.871 136.499 33.871H142.598Z" fill="#9764C7"/>
<path d="M162.163 33.871C162.474 33.871 162.707 33.6271 162.707 33.3019V27.8148C162.707 27.4897 162.474 27.2052 162.163 27.2052H153.888V23.791C153.888 23.4658 153.655 23.1813 153.344 23.1813C153.034 23.1813 152.762 23.4658 152.762 23.791V27.8148C152.762 28.14 153.034 28.3839 153.344 28.3839H161.619V32.7329H148.1V22.9781C148.1 21.6368 149.188 20.5394 150.47 20.5394H160.065C160.376 20.5394 160.648 20.2955 160.648 19.9703V14.7271C160.648 14.4019 160.376 14.1581 160.065 14.1581H153.888V8.02064H162.163C162.474 8.02064 162.707 7.77677 162.707 7.45161V1.96451C162.707 1.63935 162.474 1.35484 162.163 1.35484H147.556C147.245 1.35484 147.012 1.63935 147.012 1.96451V17.491C147.012 17.8161 147.245 18.06 147.556 18.06C147.867 18.06 148.1 17.8161 148.1 17.491V2.53355H161.619V6.88258H153.344C153.034 6.88258 152.762 7.12645 152.762 7.45161V14.7271C152.762 15.0523 153.034 15.3368 153.344 15.3368H159.56V19.4013H150.353C148.488 19.4419 147.012 21.0271 147.012 22.9374V33.3019C147.012 33.6271 147.245 33.871 147.556 33.871H162.163Z" fill="#9764C7"/>
</svg>
