<svg width="150" viewBox="0 0 186 250" fill="none" xmlns="http://www.w3.org/2000/svg">
<path fill-rule="evenodd" clip-rule="evenodd" d="M97.9891 95.5592C102.712 95.7923 110.065 97.8169 110.433 99.1108C111.007 101.131 109.773 108.706 111.836 112.787C112.716 114.526 116.056 114.37 117.35 114.936C121.68 116.832 134.498 120.426 137.141 124.952C138.2 126.765 144.707 149.265 148.164 160.743C148.554 162.037 148.995 163.234 149.473 164.343L149.649 163.481C151.059 156.544 151.764 152.344 151.764 150.882C151.764 148.597 149.941 138.958 151.764 136.507C153.568 134.08 157.916 132.096 159.872 132.057L159.931 132.056C161.215 132.056 162.33 131.654 163.274 130.851L164.659 130.155C171.704 126.62 175.82 124.681 177.007 124.338C178.901 123.79 182.125 124.957 180.513 126.708C179.439 127.876 176.738 129.941 172.412 132.905L170.781 134.201L170.978 134.304C173.086 135.413 174.326 136.347 174.697 137.106C175.079 137.888 174.896 138.812 174.146 139.88L174.26 139.991C175.208 140.921 175.682 141.544 175.682 141.862V143.414C176.624 144.794 176.86 145.946 176.389 146.868C175.917 147.79 175.17 148.589 174.146 149.265C173.392 151.248 172.494 152.66 171.452 153.5C170.411 154.34 168.61 155.039 166.05 155.598L163.734 161.136L161.857 168.916L160.912 177.598L161.186 177.796C162.459 178.723 163.274 179.411 163.274 180.121C163.274 181.227 158.139 207.242 150.15 208.407C148.422 208.658 139.461 207.423 136.519 205.03L136.562 205.288C137.254 209.47 137.108 211.641 136.123 211.803C124.015 213.787 89.6286 214.401 32.9633 213.642C32.6262 183.567 34.1506 163.538 37.5367 153.554C46.1966 128.019 55.7446 119.298 59.085 118.551C62.011 117.897 72.1572 113.858 74.9935 112.787C76.845 112.087 77.2416 109.989 79.3514 109.989L79.522 109.99C81.5624 110.011 83.3717 110.376 84.3883 109.326C87.056 106.572 86.3103 102.761 87.417 99.1108C88.0268 97.0999 92.1938 95.2732 97.9891 95.5592Z" fill="white"/>
<path d="M79.3514 109.989L79.522 109.99C80.0263 109.995 80.5164 110.021 80.984 110.042L79.9988 113.399L79.9775 113.751C79.3378 125.325 85.0054 130.865 96.9801 130.372C108.955 129.88 114.911 126.092 114.849 119.01L114.845 118.794L114.845 114.387L115.034 114.423C115.943 114.593 116.819 114.704 117.35 114.936C121.68 116.832 134.498 120.426 137.141 124.952C138.2 126.765 144.707 149.265 148.165 160.743C148.291 161.163 148.423 161.572 148.559 161.971L148.559 164.24L148.521 164.377C147.31 168.91 148.923 172.616 153.362 175.494C156.508 177.535 159.739 178.86 163.056 179.468C163.198 179.689 163.274 179.904 163.274 180.121C163.274 181.227 158.139 207.242 150.15 208.407C148.422 208.658 139.461 207.423 136.519 205.03L136.562 205.288L136.603 205.537C137.248 209.556 137.088 211.644 136.123 211.803C124.015 213.788 89.6286 214.401 32.9633 213.642C32.6262 183.567 34.1506 163.538 37.5367 153.554C46.1966 128.019 55.7446 119.298 59.085 118.551C62.011 117.897 72.1573 113.858 74.9936 112.787C76.845 112.087 77.2416 109.989 79.3514 109.989Z" fill="#BA98DE"/>
<path fill-rule="evenodd" clip-rule="evenodd" d="M85.0145 102.77C85.2917 102.221 86.0275 102.292 86.513 102.541C87.9692 103.606 86.4456 105.669 86.0427 106.968C85.0065 109.488 83.2068 111.951 80.7223 113.128C80.9281 115.633 81.1614 118.133 81.2475 120.646C84.424 124.586 89.7797 126.024 94.5339 127.13C102.001 129.195 110.428 124.964 112.948 117.583C110.08 115.953 109.152 111.686 110.008 108.709C110.082 108.5 110.406 108.408 110.521 108.641C111.307 110.257 111.202 112.227 112.095 113.823C120.666 114.644 131.726 117.878 137.341 124.809C139.829 128.276 140.815 132.786 142.04 136.805C144.655 145.09 146.739 153.543 149.303 161.836L149.606 160.267C150.434 155.944 151.187 151.563 150.627 147.167L150.617 146.956C150.435 143.458 149.34 136.958 152.053 134.596C154.506 132.721 158.061 131.214 161.141 132.079C166.62 129.64 171.35 125.534 177.186 123.935C178.982 123.565 181.567 124.003 181.142 126.44C179.965 130.701 175.038 132.355 171.67 134.553C173.829 135.138 176.461 137.764 174.774 140.053C174.759 140.094 174.747 140.125 174.734 140.149C176.102 140.755 176.293 142.279 175.957 143.586C175.923 143.931 175.833 143.634 176.035 143.947C177.579 145.403 176.897 149.461 174.571 149.598C174.724 151.521 173.489 153.389 171.924 154.437C170.238 155.567 167.8 155.616 166.404 157.163C163.127 162.941 161.996 169.764 161.639 176.381C163.799 177.19 165.738 179.608 163.775 181.66C163.736 181.664 163.697 181.669 163.658 181.672C162.52 184.709 162.081 187.945 161.479 191.117C160.553 196.528 158.141 201.496 155.06 206.004C151.497 211.97 141.916 211.024 137.09 207.174C137.109 208.184 137.276 209.188 136.952 210.164C136.474 211.218 135.31 210.763 135.195 209.725C132.643 211.16 132.042 206.424 134.879 207.175C134.66 203.751 134.534 200.322 134.431 196.893C131.22 197.932 131.082 192.605 134.366 193.67L134.362 192.197C134.338 180.904 134.463 169.573 135.953 158.369C136.091 157.531 136.325 156.72 136.461 155.887C136.475 155.801 136.61 155.825 136.61 155.908C136.841 171.593 135.816 187.313 136.886 203.004C137.776 203.276 138.131 204.297 138.79 204.893C140.254 206.244 142.247 206.902 144.197 207.131C149.655 207.897 152.011 206.23 154.442 201.485C153.346 202.218 151.864 200.924 152.533 199.765L152.554 199.73C153.248 198.501 155.207 199.237 154.959 200.613C157.403 196.7 158.682 192.287 159.627 187.81L159.754 187.275C160.214 185.374 160.809 183.196 161.912 181.476C155.188 179.762 148.609 174.54 147.557 167.376C145.85 172.74 143.537 177.984 141.332 183.201C140.651 185.015 140.368 186.965 139.392 188.648C139.165 189.037 138.589 188.936 138.461 188.526C137.583 184.602 140.243 180.869 141.624 177.337C142.751 175.341 145.988 166.224 147.995 166.202C145.74 156.318 142.732 146.509 139.868 136.748C137.098 123.569 131.454 121.028 119.497 116.878C121.654 127.869 131.5 138.507 126.261 150.035L126.133 150.334C125.597 151.605 125.152 152.885 125.526 154.28C125.89 155.634 126.716 156.809 127.378 158.027C131.075 164.904 128.53 172.935 127.101 180.096C125.295 188.495 123.511 196.901 121.644 205.287C121.276 206.96 121.037 208.683 120.482 210.304C120.195 211.141 118.763 211.061 118.856 210.085C119.032 208.192 119.564 206.345 119.953 204.486C122.278 192.448 125.423 180.551 127.423 168.46C128.709 159.51 123.645 158.134 123.834 152.351C124.522 149.393 126.344 146.754 126.24 143.602C126.645 133.954 119.617 125.994 118.749 116.61L117.217 116.064C116.451 115.79 115.687 115.514 114.924 115.231C118.937 143.296 117.719 171.975 115.713 200.179C115.303 201.48 115.693 214.786 113.974 213.979C113.888 214.487 113.618 214.987 113.031 214.984C107.702 215.033 102.372 215.117 97.0436 215.181C94.4804 214.944 90.9574 215.923 88.7774 214.444C86.2603 213.726 85.9709 202.694 85.298 200.265L85.0356 198.498C80.7585 169.624 76.931 140.155 80.0054 110.996C75.7279 111.16 74.8451 115.777 74.5278 119.138C73.7346 126.556 68.9413 132.945 68.7115 140.449C68.692 142.269 69.0357 144.033 69.7634 145.705C71.6941 149.8 75.0333 154.534 72.5376 159.108C69.586 162.669 69.8415 163.606 70.9246 168.006C73.9718 182.552 79.0322 196.537 83.8461 210.562C82.8002 216.013 76.509 195.776 75.9171 194.25C73.1322 195.651 71.611 191.003 74.8052 190.672C72.7535 183.805 70.8654 176.886 69.2934 169.891L69.2518 169.694C68.5574 166.462 67.1916 162.678 69.498 159.811C75.4452 153.797 65.5689 147.075 66.8148 139.789C65.739 140.587 64.1106 139.748 64.1351 138.408C64.0863 136.9 66.1123 136.127 67.0873 137.278C68.0897 131.367 71.5771 126.206 72.6324 120.313L72.6801 120.036C73.0377 117.953 73.1385 115.761 74.1616 113.863C72.7689 114.767 71.2858 115.498 69.7603 116.144C72.4878 118.422 67.2061 120.501 67.6432 116.982C52.6855 121.309 49.3047 127.344 43.8129 141.203C44.8387 140.206 46.596 141.496 45.9819 142.767C45.492 144.106 43.3549 143.715 43.3557 142.287L43.1054 142.884C39.7752 150.847 36.7442 159.003 35.221 167.525C38.209 167.103 37.4482 171.878 34.741 170.532C33.6545 178.111 33.6373 185.796 33.7701 193.436C36.2904 192.115 36.3663 196.606 33.7944 195.325C33.8884 201.586 34.0262 207.846 34.13 214.107C34.1511 215.44 32.0955 215.433 32.0631 214.107C31.823 204.487 31.3854 194.85 31.5934 185.227C31.3978 168.526 36.1992 152.428 43.3531 137.467C49.6831 120.24 58.4267 118.281 74.5134 113.273C75.9983 111.068 79.1708 108.984 81.7593 110.368C83.2074 108.03 83.9429 105.261 85.0145 102.77ZM57.4529 162.809C57.5129 162.597 57.816 162.65 57.8257 162.859C57.9603 165.562 57.8403 168.282 57.6555 170.995C57.5435 172.652 57.4059 174.307 57.2891 175.953C56.9795 180.294 56.7299 184.64 56.5402 188.99C56.6067 188.962 56.6747 188.938 56.7461 188.918C57.0735 188.829 57.4012 188.829 57.7285 188.918C58.0205 189 58.2758 189.143 58.4957 189.348L58.5423 189.393C58.7222 189.56 58.8503 189.758 58.9248 189.987C59.0311 190.19 59.0848 190.408 59.0847 190.64L59.0835 190.698C59.0821 191.032 58.9994 191.342 58.8308 191.631C58.6671 191.908 58.4466 192.128 58.1694 192.293C57.8808 192.461 57.571 192.543 57.2373 192.545C57.2016 192.548 57.1658 192.551 57.1303 192.553C56.8821 192.563 56.6504 192.511 56.4363 192.399L56.404 192.389C56.323 194.596 56.2565 196.803 56.2079 199.011C56.1641 200.936 56.1057 202.86 56.0668 204.784L56.0488 205.747L56.0135 207.874C56.002 208.749 56.0076 209.587 55.7102 210.412L55.6745 210.507C55.4605 211.058 55.2937 211.825 54.7211 212.131C54.2642 212.376 53.6481 212.285 53.3855 211.808C53.165 211.41 53.3562 210.836 53.6822 210.567C53.6757 210.549 53.666 210.533 53.6579 210.515C53.6076 210.369 53.5313 210.231 53.486 210.084C53.3432 209.617 53.3823 209.119 53.3807 208.634C53.3807 207.778 53.4097 206.922 53.4325 206.068C53.4828 204.249 53.5411 202.432 53.6123 200.615C53.8533 194.519 54.307 188.422 54.8266 182.343L55.003 180.292C55.2379 177.563 55.4811 174.832 55.8253 172.117C55.8413 171.988 55.8577 171.858 55.8755 171.728C55.6907 171.636 55.5189 171.508 55.3826 171.365C54.8364 170.792 54.5051 169.934 54.1945 169.196L54.1231 169.027C53.7859 168.24 53.4747 167.442 53.3142 166.596L53.2988 166.518C53.2256 166.158 53.0811 165.519 53.4633 165.344C53.6627 165.254 53.789 165.318 53.854 165.518C53.8623 165.544 53.8555 165.573 53.841 165.596C53.9983 165.837 54.2447 166.062 54.4003 166.286L54.933 167.048L55.1963 167.431C55.5302 167.922 55.8869 168.392 56.2549 168.856C56.5449 166.82 56.9001 164.792 57.4529 162.809ZM79.2957 208.182C79.962 207.66 81.0465 207.944 81.0465 208.907C81.0465 209.874 79.9603 210.153 79.2957 209.631L79.2626 209.607L79.2308 209.581C78.8689 209.298 78.8568 208.562 79.2035 208.255L79.2308 208.232C79.2518 208.214 79.273 208.198 79.2957 208.182ZM50.3281 206.301C50.6296 206.301 50.91 206.378 51.171 206.53C51.2845 206.616 51.3964 206.704 51.5098 206.791C51.7173 206.999 51.86 207.245 51.9394 207.529L51.9996 207.973C52.0075 208.203 51.9605 208.417 51.8551 208.617C51.787 208.824 51.672 209.004 51.5098 209.155C51.3575 209.318 51.1791 209.434 50.9718 209.5C50.7889 209.596 50.5938 209.646 50.3853 209.646L50.3281 209.644C50.0251 209.644 49.7445 209.568 49.4835 209.416C49.37 209.33 49.2581 209.242 49.1447 209.155C48.9388 208.947 48.7945 208.701 48.7152 208.417C48.6956 208.269 48.6763 208.12 48.6551 207.973C48.6471 207.743 48.6956 207.529 48.7994 207.329C48.8674 207.122 48.9825 206.942 49.1447 206.791C49.2972 206.627 49.4754 206.512 49.6829 206.446C49.8656 206.349 50.062 206.3 50.2708 206.3L50.3281 206.301ZM126.157 203.218L126.582 203.275C126.989 203.367 127.316 203.667 127.535 204.009C127.652 204.192 127.715 204.39 127.725 204.603C127.772 204.813 127.762 205.026 127.695 205.238C127.647 205.445 127.551 205.627 127.41 205.781C127.362 205.857 127.305 205.927 127.24 205.989C127.107 206.211 126.906 206.357 126.698 206.506C126.523 206.618 126.334 206.678 126.129 206.687C125.995 206.723 125.859 206.723 125.722 206.687C125.52 206.678 125.33 206.618 125.155 206.506C125.052 206.426 124.948 206.345 124.845 206.266C124.755 206.161 124.67 206.052 124.591 205.938C124.538 205.814 124.486 205.69 124.434 205.567C124.338 205.27 124.385 205.008 124.437 204.711C124.445 204.661 124.458 204.616 124.476 204.567L124.511 204.473C124.604 204.226 124.654 204.143 124.82 203.928L124.883 203.844C124.914 203.802 124.946 203.761 124.983 203.724C125.087 203.617 125.235 203.528 125.351 203.435C125.601 203.291 125.87 203.22 126.157 203.218ZM71.1723 202.181C71.4073 202.182 71.628 202.241 71.8321 202.359L72.0979 202.565C72.26 202.729 72.3719 202.92 72.4351 203.142C72.4497 203.259 72.4661 203.375 72.4821 203.491C72.4886 203.67 72.4515 203.839 72.3686 203.996C72.3169 204.158 72.226 204.298 72.0979 204.418C71.9797 204.544 71.8385 204.635 71.6764 204.689C71.5349 204.762 71.3827 204.801 71.2211 204.801L71.1723 204.8C70.9356 204.8 70.7151 204.74 70.5108 204.622L70.245 204.418C70.0829 204.254 69.971 204.061 69.9078 203.839C69.8932 203.722 69.877 203.607 69.8608 203.491C69.8543 203.311 69.8916 203.142 69.9742 202.986C70.0277 202.824 70.1169 202.683 70.245 202.565C70.3633 202.437 70.5044 202.346 70.6665 202.294C70.808 202.22 70.9574 202.182 71.1182 202.18L71.1723 202.181ZM60.4195 201.644C60.7582 201.641 61.102 201.736 61.3792 201.933C61.6483 202.124 61.8524 202.33 61.9839 202.639C62.0195 202.724 62.055 202.806 62.086 202.891C62.2254 203.262 62.2514 203.635 62.0584 203.998C61.872 204.35 61.47 204.504 61.1099 204.609C60.8053 204.7 60.46 204.714 60.1569 204.606C60.0061 204.552 59.8586 204.496 59.7224 204.413C59.4679 204.256 59.3301 204.069 59.1599 203.839C59.027 203.612 58.9605 203.366 58.9605 203.103C58.9605 202.839 59.027 202.594 59.1599 202.365C59.4208 201.92 59.904 201.647 60.4195 201.644ZM43.2357 201.957C43.6638 201.957 44.0398 202.155 44.2977 202.489C44.5585 202.828 44.6542 203.249 44.5391 203.669C44.4175 204.113 44.0497 204.502 43.594 204.614C43.257 204.697 42.9812 204.693 42.6456 204.637C42.3619 204.588 42.1449 204.419 41.9275 204.244C41.6795 204.042 41.6033 203.672 41.6438 203.374C41.6827 203.076 41.8207 202.881 42.0298 202.704L42.0312 202.699L41.9534 202.759C41.9828 202.734 42.0118 202.706 42.0411 202.678C42.0507 202.662 42.0588 202.644 42.0669 202.627C42.1869 202.422 42.349 202.262 42.5516 202.142C42.764 202.019 42.9909 201.957 43.2357 201.957ZM143.029 197.047C143.264 196.983 143.501 196.983 143.736 197.047C143.91 197.087 144.06 197.167 144.189 197.285C144.319 197.369 144.425 197.478 144.505 197.612L144.531 197.658C144.716 197.972 144.745 198.332 144.665 198.682C144.566 199.115 144.168 199.509 143.736 199.611L143.722 199.614L143.707 199.618C143.532 199.673 143.355 199.681 143.18 199.64C143.003 199.632 142.84 199.58 142.689 199.483C142.498 199.36 142.337 199.201 142.214 199.01C142.117 198.857 142.065 198.694 142.057 198.517C142.026 198.4 142.026 198.284 142.057 198.167C142.065 197.99 142.117 197.826 142.214 197.674L142.422 197.406L142.443 197.389C142.608 197.223 142.804 197.11 143.029 197.047ZM126.708 188.468C128.833 188.468 128.83 191.765 126.708 191.765C124.583 191.765 124.586 188.468 126.708 188.468ZM48.8981 188.051C49.122 188.001 49.3457 188.011 49.5678 188.08C49.7024 188.137 49.8353 188.194 49.9682 188.249L50.3087 188.512C50.3719 188.565 50.4027 188.623 50.4611 188.7L50.534 188.795C50.6395 188.936 50.642 188.966 50.7577 189.267C50.8355 189.556 50.8355 189.844 50.7577 190.133C50.7203 190.272 50.6637 190.403 50.5907 190.525C50.524 190.642 50.4443 190.744 50.3544 190.838L50.3087 190.885C50.1563 191.049 49.9763 191.164 49.7688 191.232C49.6375 191.308 49.4965 191.345 49.3457 191.345C49.122 191.396 48.8981 191.386 48.6762 191.316C48.5417 191.259 48.4087 191.203 48.2756 191.147L47.9354 190.885L47.6728 190.544L47.589 190.345L47.5042 190.144L47.4442 189.698C47.4361 189.466 47.4831 189.252 47.5883 189.051C47.6288 188.91 47.7003 188.785 47.8039 188.682C47.8786 188.555 47.979 188.455 48.1056 188.38C48.2092 188.276 48.3342 188.205 48.4752 188.165C48.6065 188.088 48.7475 188.051 48.8981 188.051ZM154.014 185.696C154.191 185.689 154.356 185.726 154.509 185.807C154.562 185.825 154.614 185.848 154.664 185.874C154.86 185.989 155.016 186.145 155.131 186.339C155.225 186.488 155.277 186.649 155.285 186.822C155.32 186.979 155.317 187.136 155.275 187.293L155.261 187.34C155.225 187.468 155.172 187.586 155.1 187.694C155.094 187.707 155.086 187.72 155.076 187.732C154.967 187.904 154.823 188.045 154.645 188.15C154.447 188.263 154.235 188.322 154.004 188.324C153.546 188.324 153.15 188.076 152.909 187.694C152.874 187.641 152.855 187.573 152.831 187.518C152.81 187.466 152.776 187.4 152.758 187.34C152.696 187.109 152.696 186.879 152.758 186.649C152.798 186.48 152.874 186.333 152.99 186.208C153.082 186.067 153.203 185.955 153.354 185.874C153.541 185.765 153.742 185.707 153.956 185.697L154.014 185.696ZM64.2825 184.083C64.507 184.021 64.7302 184.017 64.9532 184.069L65.0089 184.083C65.1871 184.125 65.3413 184.206 65.474 184.326C65.6215 184.423 65.74 184.551 65.8258 184.71C65.9492 184.922 66.0108 185.153 66.0122 185.399C66.0108 185.645 65.9492 185.876 65.8258 186.088C65.7042 186.294 65.5405 186.456 65.3348 186.578L65.1564 186.663C65.0073 186.758 64.8484 186.808 64.6764 186.816C64.5615 186.847 64.4462 186.847 64.3329 186.816C64.216 186.816 64.1074 186.787 64.0071 186.728C63.8968 186.698 63.8027 186.642 63.7216 186.561C63.5806 186.47 63.4705 186.351 63.3894 186.2L63.258 185.89L63.2127 185.546L63.258 185.205L63.3295 185.036C63.3941 184.804 63.511 184.603 63.6811 184.433C63.8513 184.264 64.0523 184.147 64.2825 184.083ZM144.677 181.348C144.913 181.273 145.148 181.263 145.383 181.315C145.542 181.315 145.691 181.356 145.829 181.437C145.98 181.479 146.109 181.554 146.22 181.664C146.413 181.789 146.564 181.954 146.675 182.16L146.854 182.583C146.961 182.857 146.922 183.261 146.857 183.536C146.803 183.763 146.7 183.961 146.546 184.13C146.468 184.261 146.364 184.365 146.233 184.443C146.083 184.579 145.909 184.676 145.713 184.734L145.659 184.749L145.64 184.754C145.636 184.755 145.633 184.755 145.63 184.755C145.628 184.757 145.625 184.757 145.623 184.757C145.545 184.776 145.466 184.788 145.383 184.791C145.148 184.843 144.913 184.833 144.677 184.759C144.537 184.7 144.396 184.64 144.255 184.58C144.135 184.49 144.017 184.397 143.897 184.305C143.804 184.185 143.712 184.065 143.62 183.947C143.49 183.744 143.42 183.523 143.41 183.288C143.368 183.131 143.368 182.975 143.41 182.818C143.41 182.658 143.451 182.51 143.53 182.372C143.602 182.152 143.723 181.962 143.897 181.802C144.017 181.709 144.135 181.617 144.255 181.526C144.396 181.466 144.537 181.406 144.677 181.348ZM41.2824 175.544C41.527 175.478 41.7719 175.478 42.0167 175.544L42.3456 175.682C42.5078 175.77 42.636 175.888 42.7333 176.039C42.8565 176.172 42.939 176.329 42.9811 176.509C43.0769 176.755 43.0656 177.146 42.9894 177.397C42.9035 177.683 42.7705 177.909 42.5647 178.123C42.2226 178.477 41.6972 178.579 41.2321 178.472C41.1039 178.443 40.9823 178.386 40.8721 178.316C40.5204 178.099 40.2838 177.72 40.2854 177.3C40.2854 177.255 40.2886 177.209 40.2951 177.164C40.2724 177.071 40.2641 176.976 40.2675 176.875L40.3162 176.509L40.3193 176.499C40.3843 176.267 40.501 176.066 40.671 175.896C40.8283 175.74 41.0117 175.628 41.2213 175.56L41.2743 175.544H41.2824ZM163.609 139.142C163.167 135.512 161.502 131.605 156.423 133.738L156.046 133.879C154.789 134.355 153.325 134.98 152.56 136.078C152.033 136.835 152.211 138.303 152.139 139.186C151.807 142.059 151.985 144.927 152.33 147.788C152.775 154.492 151.366 161.439 148.559 167.533C151.368 172.078 155.127 176.317 160.255 178.211C160.472 173.044 161.484 167.971 162.561 162.929L162.603 162.709C163.034 160.435 163.249 158.102 164.742 156.211C167.78 152.913 171.958 154.78 173.957 149.482C173.537 149.269 173.769 148.543 174.275 148.683C176.028 148.994 176.313 145.744 175.113 144.96C173.863 144.198 175.121 142.792 174.589 141.776C174.293 141.339 173.652 141.324 173.362 140.82C172.592 138.964 176.443 137.775 171.915 135.682C170.988 135.353 169.952 135.557 169.017 135.553C167.642 135.682 166.55 136.651 165.292 136.955C166.661 140.5 163.207 143.914 160.088 141.083C158.392 142.687 156.494 146.342 160.619 144.638C162.637 143.291 164.375 141.549 166.719 140.72L166.768 140.704C167.638 140.419 171.445 138.57 171.256 140.17C169.83 141.546 167.479 141.53 165.827 142.647C163.538 143.706 162.074 146.272 159.333 146.236C158.701 150.073 163.055 147.738 164.676 146.68L165.126 146.436C167.413 145.201 169.734 144.057 172.401 144.041C173.137 144.036 173.133 145.171 172.401 145.181C168.925 145.203 166.096 147.375 163.185 148.99C162.898 151.23 166.178 150.25 167.422 149.919C168.727 149.736 170.823 148.324 171.965 149.07C172.411 150.218 170.446 150.132 169.762 150.48C172.886 151.981 170.148 152.926 169.311 150.62L169.066 150.703C166.973 151.406 161.901 152.854 162.504 149.31C161.738 149.649 160.805 149.851 159.959 149.663C157.849 152.784 154.483 151.576 159.375 149.449C158.273 148.937 157.905 146.957 158.964 146.22C155.113 145.985 157.972 141.945 159.565 140.599C159.415 140.447 159.269 140.292 159.133 140.134C158.214 140.572 157.248 140.838 156.215 140.932C155.227 141.021 155.006 139.338 155.982 139.201C157.028 139.053 157.991 138.774 158.911 138.249C160.307 137.646 160.783 140.236 162.18 140.327C162.942 140.478 163.457 139.81 163.609 139.142ZM131.191 172.552C131.528 172.552 131.828 172.693 132.072 172.916C132.317 173.14 132.423 173.476 132.437 173.797C132.444 173.969 132.408 174.129 132.33 174.278C132.28 174.432 132.194 174.565 132.072 174.679C131.845 174.904 131.51 175.043 131.191 175.043C130.853 175.043 130.554 174.902 130.309 174.679C130.064 174.453 129.958 174.119 129.944 173.797C129.937 173.626 129.973 173.466 130.051 173.317C130.096 173.178 130.17 173.055 130.273 172.951L130.309 172.916C130.536 172.689 130.871 172.552 131.191 172.552ZM141.408 164.863L141.462 164.864C141.747 164.866 142.012 164.937 142.258 165.08C142.365 165.163 142.472 165.244 142.577 165.327C142.773 165.524 142.908 165.756 142.983 166.024C143.059 166.302 143.059 166.583 142.983 166.862C142.957 167.022 142.897 167.178 142.803 167.312C142.663 167.544 142.478 167.731 142.245 167.868C142.003 168.009 141.742 168.079 141.462 168.081C141.182 168.079 140.92 168.009 140.679 167.868C140.445 167.731 140.261 167.544 140.123 167.312C140.027 167.178 139.967 167.022 139.941 166.862C139.865 166.583 139.865 166.302 139.941 166.024C140.01 165.775 140.131 165.557 140.305 165.369L140.347 165.327C140.489 165.173 140.658 165.064 140.854 165.001C141.026 164.91 141.211 164.864 141.408 164.863ZM63.433 164.95C63.5531 164.918 63.6715 164.918 63.7914 164.95C63.9697 164.958 64.1366 165.012 64.2907 165.109C64.3815 165.18 64.4723 165.25 64.5631 165.32L64.6422 165.415C64.8114 165.621 64.8157 165.656 64.9455 165.97C64.9991 166.145 65.0072 166.32 64.9683 166.495C64.9683 166.614 64.9375 166.724 64.879 166.826C64.8468 166.938 64.7916 167.035 64.709 167.116C64.6504 167.215 64.5728 167.294 64.4737 167.353C64.3475 167.468 64.1983 167.547 64.0265 167.588L63.6778 167.635C63.6326 167.628 63.5855 167.622 63.5401 167.617C63.4854 167.615 63.4323 167.609 63.3803 167.599L63.3276 167.588L63.2797 167.575C63.2162 167.556 63.1544 167.532 63.0943 167.5C62.9809 167.468 62.882 167.411 62.7975 167.327C62.6518 167.233 62.5351 167.106 62.4508 166.949L62.4281 166.897C62.3973 166.842 62.3713 166.785 62.3517 166.724C62.2968 166.627 62.2692 166.523 62.2676 166.411C62.2353 166.262 62.2375 166.115 62.2761 165.967L62.2903 165.918L62.4151 165.621C62.48 165.521 62.548 165.419 62.6354 165.336C62.6881 165.289 62.8168 165.189 62.8893 165.139L62.9337 165.109C63.0879 165.012 63.2548 164.958 63.433 164.95ZM45.9852 162.079C46.6416 162.736 46.3515 163.942 45.4325 164.175L45.327 164.201C44.4386 164.427 43.6378 163.624 43.8631 162.736L43.8891 162.632C44.1225 161.713 45.3286 161.423 45.9852 162.079ZM155.157 155.134C155.15 155.044 155.267 155.011 155.326 155.065C156.107 155.765 156.605 156.605 157.553 157.148C158.506 157.693 159.489 157.649 160.482 158.001C160.819 158.121 160.821 158.571 160.482 158.69C158.602 159.346 155.3 157.12 155.157 155.134ZM66.7985 154.992C67.0078 154.927 67.2185 154.917 67.4276 154.964C67.5703 154.964 67.7031 155 67.8246 155.071C67.9592 155.109 68.0745 155.177 68.1732 155.274C68.2917 155.344 68.3857 155.439 68.4569 155.558C68.5965 155.71 68.6905 155.888 68.739 156.093L68.7941 156.513L68.739 156.932C68.6855 157.057 68.632 157.184 68.5801 157.308L68.4352 157.505C68.3179 157.661 68.2991 157.663 68.0143 157.874C67.8329 157.989 67.6368 158.053 67.4276 158.061C67.2881 158.1 67.1486 158.1 67.0078 158.061C66.8667 158.061 66.7336 158.025 66.6106 157.954C66.4775 157.916 66.3609 157.848 66.2619 157.751C66.0902 157.639 65.9557 157.492 65.8566 157.308C65.8031 157.184 65.7498 157.057 65.6979 156.932L65.641 156.513L65.6979 156.093L65.701 156.08C65.7756 155.817 65.9087 155.588 66.0998 155.395L66.4144 155.152C66.5375 155.073 66.6656 155.032 66.7985 154.992ZM142.474 155.306C142.922 155.183 143.415 155.313 143.744 155.642C144.074 155.971 144.203 156.462 144.08 156.911C143.958 157.349 143.607 157.704 143.167 157.822C143.036 157.858 142.903 157.878 142.769 157.871C142.543 157.869 142.332 157.812 142.136 157.699L141.883 157.503C141.76 157.39 141.674 157.255 141.624 157.099C141.544 156.95 141.509 156.79 141.515 156.616L141.514 156.585C141.509 156.524 141.517 156.462 141.536 156.402C141.536 156.339 141.546 156.277 141.562 156.217C141.681 155.78 142.037 155.426 142.474 155.306ZM45.6674 150.917C45.8117 150.912 45.9463 150.941 46.0711 151.007C46.2024 151.049 46.3142 151.121 46.4083 151.224C46.512 151.318 46.5833 151.432 46.6255 151.562C46.692 151.687 46.7211 151.821 46.7163 151.965C46.7163 152.155 46.6676 152.332 46.5736 152.494C46.5185 152.565 46.4634 152.636 46.4083 152.706C46.2786 152.837 46.1246 152.927 45.9463 152.977L45.8425 153.012C45.6901 153.068 45.541 153.071 45.3821 153.05C45.2151 153.027 45.061 152.982 44.925 152.878C44.7919 152.8 44.6867 152.695 44.6088 152.562L44.5197 152.351C44.5002 152.28 44.4921 152.173 44.4873 152.098C44.4873 152.087 44.4873 152.077 44.4856 152.066C44.4856 152.003 44.5051 151.849 44.5211 151.785C44.557 151.652 44.6298 151.526 44.7126 151.419C44.7839 151.307 44.8812 151.22 45.0011 151.155L45.0118 151.147L45.0238 151.138C45.061 151.113 45.1 151.087 45.1389 151.059C45.3011 150.965 45.4778 150.917 45.6674 150.917ZM129.38 149.765C129.639 149.765 129.881 149.832 130.104 149.962C130.112 149.965 130.121 149.968 130.127 149.971C130.341 150.098 130.511 150.268 130.638 150.482C130.768 150.704 130.832 150.944 130.832 151.2C130.832 151.458 130.768 151.696 130.638 151.918C130.511 152.132 130.341 152.302 130.127 152.429C130.121 152.434 130.112 152.437 130.104 152.44C129.881 152.57 129.639 152.635 129.38 152.636C129.122 152.635 128.881 152.57 128.657 152.44C128.219 152.184 127.945 151.706 127.945 151.2C127.945 150.694 128.219 150.216 128.657 149.962C128.881 149.832 129.122 149.765 129.38 149.765ZM62.0581 147.891L62.1023 147.89C62.2741 147.883 62.4344 147.919 62.582 147.999C62.736 148.049 62.8705 148.135 62.9842 148.256L63.2208 148.454L63.2895 148.51C63.3009 148.519 63.312 148.529 63.3228 148.538C63.4818 148.699 63.5905 148.887 63.6521 149.104C63.6715 149.229 63.6876 149.352 63.7007 149.477C63.7362 149.801 63.5451 150.134 63.3343 150.364C63.2208 150.485 63.0861 150.571 62.9307 150.623C62.7815 150.701 62.6194 150.736 62.4474 150.73C62.0956 150.699 61.7618 150.625 61.5089 150.352C61.4796 150.32 61.452 150.286 61.423 150.252L61.2204 150.018C61.0664 149.863 60.9592 149.679 60.901 149.469C60.8846 149.357 60.8702 149.247 60.8556 149.136C60.8409 148.804 61.003 148.493 61.2204 148.256C61.4211 148.037 61.7615 147.903 62.0581 147.891ZM53.8752 144.477C55.561 144.477 55.5577 147.092 53.8752 147.092C52.1907 147.092 52.1939 144.477 53.8752 144.477ZM138.64 140.811L138.693 140.812C138.972 140.814 139.233 140.883 139.474 141.024L139.789 141.266C139.98 141.461 140.113 141.687 140.188 141.95C140.205 142.088 140.223 142.226 140.243 142.362C140.251 142.576 140.205 142.775 140.108 142.96C140.047 143.151 139.94 143.318 139.789 143.459C139.648 143.61 139.482 143.717 139.29 143.779C139.105 143.876 138.905 143.921 138.693 143.913C138.413 143.911 138.151 143.842 137.91 143.701C137.805 143.62 137.701 143.539 137.596 143.459C137.419 143.28 137.292 143.073 137.216 142.835L137.198 142.775L137.142 142.362C137.134 142.15 137.179 141.95 137.276 141.765C137.338 141.572 137.445 141.407 137.596 141.266C137.737 141.115 137.904 141.008 138.095 140.947C138.264 140.857 138.446 140.812 138.64 140.811ZM131.046 135.916C131.197 135.911 131.336 135.942 131.468 136.01C131.602 136.054 131.719 136.13 131.818 136.236C132.027 136.403 132.155 136.736 132.155 137.007C132.155 137.278 132.027 137.612 131.818 137.779C131.682 137.913 131.521 138.007 131.336 138.059L131.046 138.098C130.764 138.111 130.477 137.964 130.276 137.779C130.236 137.742 130.197 137.704 130.156 137.669C129.973 137.5 129.894 137.249 129.882 137.007C129.877 136.879 129.905 136.759 129.963 136.647C130.001 136.531 130.065 136.432 130.156 136.346C130.197 136.31 130.236 136.273 130.276 136.236C130.495 136.033 130.751 135.931 131.046 135.916ZM179.158 127.196C180.223 125.899 179.602 124.975 178.002 125.296C175.244 125.669 172.649 127.412 170.22 128.662C167.57 130.062 164.838 131.216 162.134 132.532C163.25 133.217 164.079 134.289 164.713 135.513C165.979 134.552 167.596 134.092 169.175 134.033C172.039 131.289 176.783 130.661 179.158 127.196ZM53.3079 131.504C53.5967 131.505 53.8673 131.573 54.1209 131.709L54.175 131.739L54.5219 132.008C54.6905 132.163 54.8088 132.348 54.8786 132.561C54.9855 132.765 55.0342 132.987 55.0261 133.224C55.0342 133.46 54.9855 133.681 54.8786 133.885C54.8088 134.099 54.6905 134.282 54.5219 134.438C54.4263 134.563 54.3031 134.66 54.1555 134.731C54.0176 134.788 53.8816 134.846 53.7438 134.905C53.5898 134.953 53.4114 134.96 53.2445 134.968C52.9413 134.966 52.6594 134.89 52.3965 134.738L52.0562 134.475C51.8925 134.323 51.7756 134.143 51.7075 133.934C51.6111 133.75 51.5622 133.553 51.5622 133.343L51.5634 133.285C51.5634 133.272 51.5634 133.258 51.5652 133.243C51.5845 133.091 51.6057 132.938 51.6264 132.786C51.6801 132.562 51.7822 132.366 51.9346 132.201C51.9735 132.123 52.0254 132.06 52.092 132.008C52.3059 131.794 52.5586 131.648 52.8505 131.565C53.0029 131.546 53.1553 131.525 53.3079 131.504ZM128.576 127.209C128.794 127.209 128.997 127.264 129.185 127.373C129.268 127.436 129.349 127.5 129.43 127.563C129.581 127.714 129.685 127.892 129.741 128.096L129.785 128.417C129.79 128.584 129.756 128.738 129.68 128.882C129.631 129.031 129.548 129.161 129.43 129.271C129.321 129.39 129.192 129.472 129.041 129.521C128.898 129.597 128.743 129.631 128.576 129.625C128.358 129.625 128.154 129.57 127.966 129.459C127.885 129.398 127.802 129.335 127.721 129.271C127.585 129.133 127.486 128.972 127.427 128.789L127.412 128.738L127.368 128.417C127.362 128.25 127.396 128.096 127.472 127.952C127.52 127.801 127.605 127.671 127.721 127.563C127.832 127.444 127.961 127.362 128.111 127.313C128.24 127.245 128.379 127.21 128.526 127.209L128.576 127.209ZM62.7832 125.453L62.8398 125.454C63.1624 125.455 63.4623 125.536 63.7411 125.698C63.8611 125.791 63.9812 125.883 64.101 125.977C64.3231 126.199 64.4755 126.462 64.5616 126.765L64.6246 127.238C64.6343 127.485 64.5825 127.713 64.4706 127.926C64.3994 128.148 64.2761 128.339 64.101 128.501C63.9407 128.675 63.7492 128.798 63.5271 128.869C63.3148 128.981 63.0862 129.033 62.8398 129.023C62.5172 129.023 62.2173 128.942 61.9384 128.78C61.8186 128.688 61.6987 128.594 61.5771 128.501C61.3565 128.278 61.2041 128.015 61.1182 127.713L61.0549 127.238C61.0452 126.994 61.0971 126.764 61.2089 126.551C61.2803 126.331 61.4035 126.138 61.5771 125.977C61.7392 125.802 61.9303 125.679 62.1524 125.608C62.3485 125.504 62.5583 125.454 62.7832 125.453ZM122.81 120.996C122.957 120.957 123.104 120.957 123.252 120.996C123.472 121.005 123.678 121.072 123.87 121.193L124.205 121.453C124.21 121.458 124.215 121.463 124.22 121.469C124.423 121.673 124.563 121.915 124.641 122.192L124.7 122.628C124.708 122.854 124.661 123.064 124.559 123.259C124.498 123.446 124.397 123.609 124.259 123.749L124.205 123.802C124.054 123.964 123.878 124.079 123.672 124.145C123.542 124.222 123.401 124.259 123.252 124.259C123.032 124.309 122.81 124.3 122.589 124.23C122.458 124.173 122.325 124.118 122.192 124.063L122.15 124.038C121.649 123.765 121.339 123.191 121.339 122.628C121.339 122.065 121.649 121.49 122.15 121.216C122.164 121.21 122.177 121.201 122.192 121.193C122.383 121.072 122.589 121.005 122.81 120.996Z" fill="black"/>
<path fill-rule="evenodd" clip-rule="evenodd" d="M128.121 57.9287C126.397 51.7043 119.806 48.9884 113.87 48.5573C97.7991 46.8867 81.4406 55.8458 74.3157 70.3733C68.6123 81.4045 68.4337 92.9926 80.6934 99.2911C81.3629 99.6602 82.0621 100.055 82.7761 100.413C83.3965 100.99 84.0354 101.544 84.7327 102.009C91.4085 106.399 99.6022 108.298 107.543 107.886C119.266 107.65 123.452 99.6943 126.013 89.4924C128.714 79.3356 130.225 68.3146 128.121 57.9287Z" fill="white"/>
<path fill-rule="evenodd" clip-rule="evenodd" d="M135.817 116.598C135.27 114.943 134.583 113.338 133.942 111.716C133.807 110.907 133.716 110.092 133.693 109.27C133.604 106.334 134.153 103.373 134.769 100.514C136.021 94.7043 137.349 88.9546 138.015 83.0375C139.205 72.4538 138.497 61.4482 133.683 51.7867C129.512 43.4174 122.443 36.5731 113.312 34.0087C110.613 33.2503 107.835 32.832 105.038 32.665C104.691 32.6099 104.345 32.556 104.001 32.5041C100.111 31.9176 96.172 31.6253 92.2395 31.8782C85.7182 32.2979 79.2578 34.1719 73.8265 37.8785C68.3582 41.6107 64.4728 46.8438 62.6649 53.2267C60.7841 59.8669 60.9437 67.0583 57.6959 73.2836C56.7364 75.1229 55.6165 76.8714 54.5484 78.649C51.7144 81.8111 48.6375 85.3263 47.9633 89.6742C47.1314 95.0474 50.223 99.5886 53.1489 103.782C55.7936 107.568 59.3823 112.797 56.6606 117.459C55.3768 119.658 53.3196 121.303 51.7746 123.309C50.1728 125.391 48.9224 127.781 48.2763 130.336C47.0628 135.133 48.1792 140.133 51.4248 143.882C53.1154 145.834 55.2864 147.124 57.6365 148.13C60.0418 149.158 62.3919 150.134 64.3804 151.883C65.2893 152.681 66.1212 153.557 66.9079 154.474C67.6411 155.621 68.4947 156.692 69.4572 157.673C70.5168 158.753 72.5923 157.275 71.6198 156.004C71.5478 155.91 71.4775 155.818 71.4056 155.725C70.6942 154.797 69.9795 153.87 69.2312 152.973C67 149.437 66.1413 145.109 67.2511 140.98C67.539 139.907 67.944 138.889 68.448 137.928C68.555 138.208 68.6722 138.484 68.796 138.757C69.2781 139.815 69.9545 141.068 70.8147 142.14C70.8482 142.874 70.9588 143.602 71.1729 144.316C72.4986 148.736 76.931 150.917 80.9281 152.615C81.3198 152.782 81.7065 152.943 82.0864 153.102C83.1309 153.538 84.2356 152.05 83.5845 151.153C83.4138 150.917 83.2481 150.676 83.0907 150.432C81.216 147.529 80.3239 144.058 80.8294 140.6C81.3616 136.942 83.5176 133.916 85.6584 131.012C87.7608 128.156 90.0188 125.242 90.9595 121.759C92.0006 117.911 91.0532 114.074 89.4463 110.532C87.975 107.291 86.0151 104.304 84.3716 101.152C84.9343 101.713 85.515 102.256 86.1132 102.78C86.7859 103.368 87.4771 104.042 88.2743 104.457C88.8638 104.764 89.4544 104.03 88.9875 103.533C88.3739 102.881 87.5887 102.377 86.9073 101.794C86.2531 101.235 85.6179 100.654 84.9984 100.057C84.2356 99.3219 83.51 98.5523 82.8104 97.7594C82.2505 96.3331 81.7891 94.8685 81.4135 93.3819C80.903 91.37 80.431 89.2291 80.4678 87.1435C80.5046 85.0043 81.6161 83.5062 83.0958 82.07C83.7224 81.4619 84.3552 80.861 84.9867 80.2589C86.3318 79.2715 87.6006 78.1685 88.833 77.0684C91.0291 75.1082 93.1533 73.0361 95.1818 70.9034C95.726 70.3313 96.2656 69.7528 96.7986 69.1676C98.6607 67.2568 100.437 65.2615 102.111 63.1974C103.775 62.5914 105.373 61.7896 106.873 60.8456C106.22 61.5068 105.561 62.1596 104.904 62.8174C103.443 64.2837 101.925 65.7567 100.231 66.9516C100.057 67.0757 100.162 67.3385 100.377 67.2966C102.531 66.8664 104.546 66.15 106.428 65.0085C108.341 63.8468 110.026 62.2684 111.6 60.6849C112.49 60.2832 113.349 59.766 114.134 59.2571C114.176 59.2303 114.218 59.2019 114.26 59.1749C113.486 61.6256 112.351 64.4009 109.933 65.2746C109.854 65.3031 109.859 65.4336 109.953 65.4286C111.99 65.3091 113.628 64.3923 114.921 63.0561C115.961 62.3079 116.953 61.515 117.9 60.6518C118.817 59.8155 119.686 58.9187 120.511 57.99C119.358 60.2746 118.066 62.5086 116.792 64.7172C116.725 64.8344 116.866 64.9934 116.986 64.9114C119.676 63.0902 121.717 60.7401 123.385 57.9614C123.632 57.5523 123.867 57.1365 124.096 56.7175C123.923 57.3732 123.734 58.0247 123.532 58.6728C123.165 59.846 122.805 61.0218 122.438 62.1944C122.24 62.8266 121.999 63.4444 121.734 64.0517C121.544 64.4862 121.296 64.9199 121.258 65.3965C121.255 65.4281 121.29 65.4489 121.317 65.442C122.39 65.1738 123.389 63.9506 124.153 63.1928C124.579 62.7709 124.978 62.3077 125.344 61.8193C125.412 64.6325 125.459 67.4461 125.397 70.2677C125.282 75.45 124.947 80.6305 124.519 85.7959C124.14 90.3623 123.861 95.1545 121.313 99.1232C119.341 102.195 116.144 104.32 112.671 105.35C112.365 105.442 112.057 105.524 111.747 105.598C106.719 106.791 101.711 105.439 97.2649 103.048C95.9292 102.33 94.7876 104.279 96.0765 105.08C100.901 108.083 107.015 109.106 112.475 107.76C112.303 114.209 115.481 120.328 118.643 125.798C120.413 128.859 122.184 131.901 123.434 135.22C124.495 138.039 125.217 140.963 125.459 143.971C125.747 147.516 125.464 151.081 124.969 154.596C124.942 154.787 124.915 154.98 124.887 155.17C124.776 155.925 125.454 156.558 126.189 156.171C129.438 154.464 130.839 150.825 131.691 147.461C132.488 144.309 133.028 141.095 133.33 137.86C133.772 139.08 134.13 140.33 134.408 141.605C134.446 141.788 134.483 141.97 134.52 142.153C134.731 143.219 136.344 143.144 136.602 142.153C136.649 141.974 136.694 141.795 136.736 141.614C138.067 136.233 138.425 130.62 137.722 125.118C137.352 122.224 136.734 119.368 135.817 116.598Z" fill="black"/>
<path fill-rule="evenodd" clip-rule="evenodd" d="M95.8475 88.3526C97.5732 87.3134 104.024 88.0751 109.091 88.3526C113.114 88.5729 115.988 88.1362 116.908 88.7553C118.986 90.1541 117.977 96.9177 114.396 97.8427C110.815 98.7677 97.5403 100.06 95.2515 97.8427C92.9626 95.6258 92.7513 90.2169 95.8475 88.3526Z" fill="white"/>
<path fill-rule="evenodd" clip-rule="evenodd" d="M98.0829 86.5635C100.791 86.2348 103.417 87.064 106.065 87.482C107.463 87.7026 108.863 87.8673 110.277 87.9285C110.562 87.941 110.847 87.9482 111.131 87.954C111.158 87.7034 111.298 87.4732 111.602 87.3353C112.225 87.0528 112.724 86.9255 113.408 86.9527C114.034 86.9774 114.663 87.0418 115.28 87.1547C116.399 87.36 117.524 87.8259 118.343 88.6353C120.239 90.5081 119.95 93.5165 118.486 95.5564C115.459 99.7717 109.936 99.9673 105.206 99.9123L104.769 99.9066C100.462 99.8451 94.2998 100.487 92.3429 95.5868C91.6233 93.7848 91.7233 91.696 92.6044 89.9677C93.6552 87.9062 95.8673 86.8324 98.0829 86.5635ZM111.537 93.582L111.498 93.5836C109.513 93.6601 107.527 93.7139 105.54 93.749C105.6 94.2593 105.66 94.7697 105.73 95.2789C105.784 95.6795 105.842 96.0798 105.903 96.4795C105.929 96.6487 106.023 96.9115 105.996 97.0792L105.987 97.1455C106.089 97.1916 106.181 97.2659 106.25 97.3737C106.274 97.4111 106.292 97.4487 106.309 97.4862C107.851 97.4983 109.512 97.4684 111.084 97.188L111.087 97.1538C111.116 96.9529 111.199 96.8177 111.31 96.7249C111.421 96.0843 111.411 95.4017 111.454 94.7661C111.48 94.3712 111.509 93.9767 111.537 93.582ZM104.023 93.7761C102.591 93.8004 101.159 93.8192 99.7282 93.8017L99.0785 93.7917C99.2157 94.5277 99.365 95.2612 99.4891 96.0021C99.6185 96.7744 98.9388 97.2653 98.3506 97.2454C98.4166 97.2563 98.4825 97.2675 98.5486 97.2768C100.387 97.5367 102.295 97.4677 104.16 97.4657C104.06 96.88 104.1 96.2191 104.085 95.7302L104.083 95.6545C104.054 95.0281 104.034 94.4021 104.023 93.7761ZM94.3001 93.641C94.3497 94.0238 94.4464 94.3983 94.591 94.747C95.2019 96.2203 96.6027 96.9079 98.0847 97.1974C97.8276 97.1086 97.6234 96.8953 97.5719 96.5299C97.4434 95.6213 97.3972 94.6976 97.3937 93.775C96.3608 93.7654 95.321 93.7434 94.3001 93.641ZM116.923 93.3265C116.188 93.4999 115.333 93.4204 114.612 93.4532C113.936 93.4839 113.26 93.5107 112.584 93.538C112.616 93.9995 112.647 94.4608 112.681 94.9219C112.724 95.518 112.728 96.1479 112.842 96.7415C114.203 96.2772 115.422 95.5326 116.336 94.3421C116.564 94.0455 116.768 93.6974 116.923 93.3265ZM97.7721 88.9808C96.548 89.2707 95.3894 89.883 94.7668 91.0031C94.3972 91.6678 94.2346 92.4557 94.2659 93.232C95.3005 93.1116 96.3529 93.0659 97.4003 93.0281C97.4038 92.8395 97.4082 92.6511 97.4139 92.4631L97.43 91.9812C97.4586 91.0622 97.4729 89.9081 97.7721 88.9808ZM104.108 89.0929L103.569 89.0324C102.072 88.8619 100.576 88.6828 99.0796 88.7854C98.863 88.8004 98.6431 88.824 98.4226 88.8563C98.6872 89.811 98.665 90.9323 98.7755 91.8774C98.8182 92.2428 98.8721 92.6052 98.9319 92.9662L99.1916 92.9541C100.798 92.867 102.405 92.8135 104.013 92.7498C104.013 92.4479 104.014 92.146 104.019 91.8439L104.025 91.5417C104.044 90.7701 103.994 89.9009 104.108 89.0929ZM111.625 88.9705C110.057 89.2235 108.437 89.2773 106.897 89.2792C106.282 89.28 105.667 89.2422 105.052 89.1877C105.092 89.5149 105.113 89.8458 105.143 90.1684C105.204 90.8203 105.273 91.4712 105.349 92.1215L105.416 92.6906C107.392 92.601 109.367 92.5042 111.343 92.4039L111.621 92.3889L111.699 91.2954C111.753 90.5661 111.811 89.8371 111.894 89.1112L111.832 89.0888C111.759 89.0589 111.69 89.0177 111.625 88.9705ZM112.305 89.2419C112.392 90.2729 112.439 91.3082 112.503 92.341L113.805 92.2715C114.022 92.2596 114.239 92.2476 114.456 92.2351C115.3 92.1864 116.384 91.9309 117.219 92.1693C117.282 91.4109 117.065 90.672 116.381 90.1626C115.179 89.2677 113.649 89.5863 112.305 89.2419ZM107.856 80.0247C109.795 78.9142 114.661 77.7793 114.969 81.2689C115.11 82.8747 113.917 84.2052 112.522 84.799L112.47 84.8209C111.163 85.3584 108.845 85.9655 107.714 84.7999C106.772 83.8297 108.021 82.0902 109.191 82.885C109.793 83.2933 111.058 82.9924 111.729 82.7981L111.771 82.7859C112.496 82.5731 113.461 81.8919 113.162 81.0002C112.897 80.2115 111.769 80.0674 111.063 80.0418C110.009 80.004 108.983 80.2488 107.939 80.3284C107.773 80.341 107.722 80.1015 107.856 80.0247ZM115.889 74.4134C118.52 74.2902 120.158 77.1637 119.552 79.5182C119.448 79.9244 118.993 80.3232 118.555 80.2776L118.444 80.2674C118.388 80.262 118.332 80.2549 118.28 80.2406C117.863 80.1252 117.49 79.692 117.52 79.2429L117.528 79.1121C117.59 77.9998 117.469 76.7184 116.147 76.449C115.026 76.2206 114.4 77.2996 114.387 78.2928C114.385 78.4692 114.186 78.5923 114.03 78.4975C113.22 78.0043 113.08 77.0232 113.389 76.1784C113.782 75.1079 114.763 74.466 115.889 74.4134ZM96.3584 75.0297C98.2736 74.3907 100.34 75.4116 101.267 77.1048C101.593 77.199 101.917 77.4498 101.872 77.8337C101.807 78.3861 101.709 78.7344 101.326 79.1533C100.727 79.8085 99.6046 79.4735 99.3556 78.6668L99.345 78.6304C99.0622 77.5877 97.9144 76.8997 96.8689 77.2647C95.6475 77.6911 95.6829 78.981 94.8262 79.7325C94.7255 79.8208 94.6048 79.8349 94.4841 79.7766C93.5741 79.3369 93.7377 78.0134 94.0621 77.2559C94.4876 76.2619 95.3146 75.3778 96.3584 75.0297ZM93.7501 69.2139C95.302 67.6303 99.3489 66.098 100.411 69.0222C100.613 69.5792 100.182 70.3302 99.6024 70.4457C98.6527 70.6347 97.8102 70.2224 96.8669 70.2964C96.1033 70.3566 95.3068 70.6118 94.6962 71.0849C93.0052 72.3951 92.6333 74.6111 91.455 76.2787C91.3977 76.3599 91.2863 76.3258 91.2757 76.2301C91.0074 73.8023 92.0502 70.9482 93.7501 69.2139ZM113.99 67.655C115.02 67.2913 116.186 67.3224 117.222 67.645C118.264 67.9702 119.222 68.5877 119.959 69.3945C120.294 69.7608 120.604 70.1649 120.852 70.5952C120.984 70.8232 121.123 71.2942 121.273 71.5747C122.084 72.0431 122.431 73.1105 121.704 73.8698L121.672 73.9031L121.574 73.9995C121.184 74.386 120.595 74.5535 120.062 74.3991C118.87 74.054 118.725 73.1146 118.312 72.1176C118.039 71.459 117.572 70.8763 117.006 70.4483C115.667 69.437 113.472 69.1148 111.86 69.5914C111.774 69.6168 111.673 69.5075 111.734 69.4282C112.04 69.0325 112.216 68.7078 112.625 68.3886C113.04 68.0647 113.493 67.8307 113.99 67.655Z" fill="black"/>
<path fill-rule="evenodd" clip-rule="evenodd" d="M148.513 23.131C150.251 21.9152 152.401 21.4395 154.49 21.8086C156.579 22.1777 158.436 23.3613 159.652 25.0993L161.553 27.8134L164.269 25.915C165.129 25.2909 166.104 24.8444 167.138 24.6013C168.172 24.3583 169.244 24.3236 170.292 24.4993C171.339 24.6751 172.342 25.0577 173.24 25.6249C174.138 26.192 174.914 26.9324 175.523 27.8028C176.132 28.6732 176.562 29.6561 176.787 30.6943C177.012 31.7324 177.028 32.805 176.834 33.8495C176.64 34.8939 176.24 35.8892 175.657 36.7774C175.075 37.6656 174.321 38.4289 173.44 39.0226L157.616 50.0962L146.545 34.2705C145.329 32.5322 144.853 30.3822 145.222 28.2932C145.591 26.2043 146.775 24.3474 148.513 23.131Z" fill="black"/>
</svg>
