<svg
        width="200"
        viewBox="0 0 200 250"
        fill="none"
        xmlns="http://www.w3.org/2000/svg"
      >
        <path
          fill-rule="evenodd"
          clip-rule="evenodd"
          d="M189.708 150.417C191.377 149.545 193.008 148.598 194.612 147.612C195.742 146.935 194.742 145.232 193.583 145.847C192.99 146.162 192.4 146.48 191.808 146.793C192.274 146.391 192.706 145.954 193.094 145.477L193.067 145.451C194.561 144.112 192.642 141.585 190.943 142.685C189.445 143.772 187.933 144.88 186.213 145.596C182.651 147.107 178.722 147.357 174.898 147.4C173.499 147.295 172.163 147.538 170.805 147.808C171.337 145.672 172.669 144.059 173.376 141.99C173.897 139.901 170.883 138.479 169.815 140.486C169.553 140.979 169.303 141.478 169.059 141.979C166.75 144.08 162.895 143.895 160.567 146.15C159.241 147.328 158.592 148.926 158.335 150.529C158.161 151.618 158.432 152.71 157.774 153.674C154.592 158.177 149.564 165.293 147.011 170.248C145.203 158.474 140.376 143.911 135.389 133.145C133.74 129.702 131.853 126.338 129.377 123.419C129.658 122.446 128.667 120.718 128.037 121.25C126.097 118.88 122.669 118.267 119.913 117.088C116.191 115.496 113.104 112.188 111.586 108.427C109.636 101.266 104.836 100.357 98.1787 100.673C91.8074 100.665 87.0935 103.391 85.7033 109.879C82.8791 114.804 76.2108 113.99 71.4134 115.293C67.8975 116.097 64.4854 117.339 61.2427 118.916C57.6353 115.493 44.7156 129.859 43.5412 133.557C44.2325 133.691 44.9197 133.852 45.6006 134.049C46.207 134.224 45.9524 135.14 45.3407 134.994C44.5796 134.811 43.8136 134.685 43.044 134.598C43.0205 134.671 43 134.744 42.9847 134.817C42.8983 134.811 42.812 134.804 42.7256 134.798C42.9172 134.897 43.1016 135.013 43.2812 135.163C43.7155 135.523 43.1501 136.219 42.6886 135.932C42.2539 135.607 41.6845 135.658 41.163 135.549C41.132 136.622 37.3055 135.421 36.7112 135.066C34.0695 134.735 31.3519 135.09 28.8858 133.816C25.6045 133.124 22.2985 132.36 19.054 131.479C18.1951 131.814 17.3879 133.013 18.0701 133.893C18.4538 134.293 17.9605 134.946 17.4774 134.662C15.8568 133.708 14.6036 132.218 13.541 130.614C13.0409 130.109 12.1531 130.217 11.4812 130.008C11.3913 130.169 11.3384 130.349 11.3392 130.534C8.48886 131.003 10.5221 134.118 11.9551 135.088C11.1949 135.583 11.1661 136.553 11.2326 137.362C11.0715 137.651 11.0177 138.008 11.1579 138.331C11.6939 139.567 12.8531 140.608 13.7345 141.609C14.7077 142.714 15.5755 143.826 16.7596 144.722C21.2732 148.164 26.72 150.088 32.3078 150.841C34.2919 151.146 37.1458 151.612 38.3743 153.291C38.0729 155.283 37.5194 157.193 37.0173 159.135C36.3152 161.713 36.363 164.413 36.3537 167.041C36.2556 166.962 36.0671 166.979 36.0391 167.129C35.8757 168.218 35.7543 169.332 35.0923 170.248C34.512 171.95 34.1258 173.766 33.9088 175.555C33.0396 184.034 32.8321 192.764 34.7919 201.111C35.5481 204.208 36.778 207.151 38.4538 209.861C38.9535 210.669 39.7568 210.906 40.4781 210.747C42.8924 212.002 45.9338 212.404 48.536 212.085C57.4074 209.573 54.3163 215.622 66.7549 213.77C88.2251 211.034 109.923 216.411 131.348 213.254C131.875 217.331 138.783 216.161 141.182 214.438C148.377 209.087 151.949 192.147 155.56 183.554C158.042 176.781 162.198 164.784 167.64 160.239C169.272 158.962 171.245 158.29 173.219 157.747C180.585 155.848 187.98 154.052 195.36 152.206C196.612 151.898 196.387 149.762 195.048 149.899C193.272 150.081 191.49 150.246 189.708 150.417Z"
          fill="white"
        />
        <path
          fill-rule="evenodd"
          clip-rule="evenodd"
          d="M25.723 149.147C25.2242 149.085 24.7352 148.907 24.2494 148.767C23.5076 148.55 22.7806 148.297 22.065 148.009C20.588 147.417 19.1551 146.717 17.8119 145.861C15.6422 144.476 13.7251 142.702 12.2792 140.566L12.1799 140.417C11.3544 139.159 9.83172 136.366 11.5391 135.411C10.4387 134.491 9.39864 132.839 9.45733 131.564C9.54046 129.76 11.7509 129.785 12.8937 130.549C13.6419 131.05 14.2027 131.751 14.7651 132.441C15.3878 133.208 16.0529 133.938 16.7441 134.641C16.9275 134.827 17.1127 135.009 17.3012 135.188L17.4907 135.367C17.4614 135.297 17.4353 135.225 17.4125 135.151C17.031 133.963 17.4858 132.415 18.6742 131.87C19.4014 131.537 20.1567 131.74 20.8614 132.024L20.9695 132.068C21.9182 132.461 22.8784 132.808 23.8662 133.087C27.8927 134.224 32.0952 134.413 36.2212 134.98C37.8105 135.2 39.4293 135.477 41.0105 135.885C41.6137 133.323 43.0922 130.867 44.6963 128.847C52.3775 119.181 65.0455 115.987 76.6342 113.919C77.6905 113.731 78.566 115.13 79.1806 114.799C80.3461 114.173 81.3715 113.286 82.2713 112.322C84.19 110.266 85.5512 107.847 87.1504 105.556C87.941 104.424 89.7602 105.437 89.0267 106.652L88.6673 107.246C87.1877 109.678 85.5491 112.184 83.4271 114.07C82.299 115.072 81.0471 115.863 79.6158 116.356C78.5318 116.73 77.0108 117.045 75.8241 116.683L75.6817 116.475C75.7288 116.544 75.7762 116.614 75.824 116.683C78.9213 121.172 82.8076 124.972 86.9025 128.558C91.0359 132.176 95.4949 135.415 99.9807 138.583L100.355 138.847C107.662 133.514 113.836 126.559 118.167 118.612C117.259 118.503 116.361 117.921 115.585 117.487C114.651 116.962 113.772 116.335 113.088 115.5C111.596 113.682 111.79 111.339 111.521 109.132C111.505 108.995 111.686 108.961 111.769 109.029C112.577 109.701 112.861 110.802 113.199 111.753C113.57 112.798 113.991 113.659 114.843 114.395C115.637 115.08 116.606 115.584 117.546 116.032C118.031 116.262 120.439 116.854 120.714 117.343C124.874 116.366 128.926 118.054 132.009 120.902C134.987 123.653 137.173 127.229 139.103 130.76C141.162 134.527 142.849 138.454 144.303 142.49C145.777 146.587 146.907 150.773 147.528 155.085C148.052 158.72 148.374 162.412 148.582 166.088L148.607 166.547C151.685 161.715 154.839 156.934 158.059 152.195C157.327 150.24 158.137 148.243 159.508 146.733C161.027 145.062 163.128 144.286 165.138 143.382L165.403 143.262C166.371 142.82 167.337 142.334 168.174 141.671C168.979 141.032 169.571 140.151 170.418 139.563C171.651 138.705 173.887 138.888 173.944 140.761C173.974 141.791 173.532 142.919 173.128 143.844C172.67 144.889 172.052 145.836 171.318 146.707C171.284 146.748 171.247 146.78 171.21 146.805L171.181 146.823C172.195 146.991 173.217 147.126 174.259 147.174C176.36 147.27 178.484 147.115 180.542 146.671C182.648 146.218 184.689 145.481 186.583 144.453C188.202 143.576 189.702 142.441 191.54 142.174C191.71 142.148 191.881 142.131 192.057 142.121C192.35 142.105 192.644 142.451 192.528 142.741C192.465 142.901 192.398 143.059 192.324 143.219C191.689 144.62 190.714 145.979 189.497 147.01L189.403 147.089C189.832 146.94 190.254 146.774 190.67 146.587C193.113 145.486 195.33 143.822 197.95 143.154C198.074 143.121 198.2 143.092 198.325 143.064C199.135 142.89 199.562 143.77 199.086 144.374C199.01 144.471 198.933 144.568 198.853 144.664C197.684 146.115 196.395 147.462 194.973 148.672C194.486 149.087 193.984 149.488 193.472 149.871C193.256 150.034 193.039 150.192 192.82 150.349L192.712 150.425C192.968 150.245 193.221 150.06 193.472 149.871C195.076 149.385 196.657 148.809 198.204 148.172C198.819 147.919 199.297 148.542 199.362 149.054C199.58 150.77 197.676 152.011 196.437 152.836C195.195 153.664 193.827 154.294 192.427 154.799C189.735 155.773 186.907 156.215 184.084 156.611L182.712 156.802C177.284 157.561 171.615 158.469 167.721 162.694C165.538 165.062 164.061 168.004 162.709 170.898C161.36 173.79 160.175 176.758 159.05 179.742C157.884 182.831 156.869 185.977 155.789 189.096C154.798 191.961 153.614 194.789 152.442 197.588L152.257 198.03C149.768 203.979 146.794 209.582 142.65 214.55C141.967 215.37 140.864 214.206 141.495 213.393C145.829 207.803 148.845 201.207 151.334 194.626C152.467 191.632 153.416 188.566 154.505 185.556L155.153 183.767C156.018 181.383 156.891 179.003 157.801 176.637C158.954 173.645 160.22 170.688 161.669 167.828L161.823 167.526C163.242 164.767 164.928 162.047 167.248 159.959C171.424 156.199 176.981 155.296 182.353 154.582L184.044 154.359C186.315 154.057 188.593 153.724 190.802 153.116C192.077 152.767 193.322 152.32 194.493 151.704C194.959 151.459 195.414 151.19 195.854 150.897C194.598 151.265 193.325 151.567 192.029 151.803C191.395 151.919 190.768 152.006 190.142 152.066C188.529 152.226 186.93 152.219 185.279 152.133C185.139 152.125 185.093 151.905 185.243 151.877C186.393 151.672 187.544 151.417 188.691 151.139L189.035 151.055C189.041 150.864 189.116 150.662 189.273 150.47C189.843 149.775 190.927 149.419 191.679 148.928C192.466 148.415 193.229 147.86 193.956 147.267C194.621 146.724 195.26 146.149 195.875 145.549L196.059 145.368C195.998 145.429 195.937 145.489 195.875 145.549C194.215 146.316 192.642 147.299 190.91 147.906C189.532 148.39 188.088 148.716 186.63 148.832L186.54 148.839L186.449 148.845C184.928 148.954 183.398 148.91 181.9 149.24C181.732 149.277 181.68 149.052 181.83 148.989C183.139 148.444 184.5 148.234 185.876 147.979C185.905 147.872 185.98 147.775 186.11 147.713L186.462 147.545C187.511 147.042 188.488 146.533 189.359 145.716C190.129 144.993 190.769 144.149 191.25 143.212C189.325 143.635 187.634 145.094 185.884 145.915C183.976 146.81 181.958 147.452 179.885 147.818L179.648 147.858C175.774 148.505 171.114 148.423 167.642 146.407C167.531 146.342 167.611 146.194 167.725 146.211C168.71 146.373 169.685 146.564 170.66 146.733C170.469 146.559 170.384 146.246 170.604 145.995C171.48 144.991 172.172 143.844 172.615 142.588L172.7 142.343C172.903 141.76 173.248 140.856 172.896 140.331C172.56 139.83 171.77 139.899 171.297 140.111C170.314 140.554 169.66 141.662 168.832 142.33C167.929 143.061 166.902 143.602 165.851 144.087L165.629 144.187C163.81 145.006 161.867 145.695 160.437 147.139C159.668 147.916 159.006 148.886 158.784 149.974C158.683 150.473 158.683 150.986 158.817 151.481C158.923 151.867 159.144 152.105 159.017 152.498C158.851 153.005 158.262 153.612 157.959 154.064C157.607 154.586 157.257 155.109 156.906 155.633C156.207 156.68 155.511 157.73 154.815 158.778C153.422 160.879 152.045 162.989 150.679 165.106C150.234 165.795 149.791 166.485 149.35 167.176L148.689 168.212L148.339 168.759L147.743 169.696C147.764 169.783 147.763 169.874 147.735 169.954C147.633 170.244 147.443 170.441 147.207 170.585L147.164 170.61C143.686 176.11 140.262 181.647 136.805 187.161C136.621 188.844 136.448 190.528 136.298 192.213C135.957 196.026 135.724 199.848 135.649 203.676C135.613 205.528 135.761 207.392 135.841 209.243C135.88 210.126 135.934 211.009 136.004 211.891L136.055 212.516C136.124 213.375 136.163 214.228 135.854 215.047C135.58 215.766 134.746 215.928 134.252 215.38C127.808 215.12 121.359 214.923 114.91 214.801C103.367 214.579 91.8191 214.613 80.2744 214.837C74.4759 214.949 68.6758 215.107 62.879 215.303C60.023 215.398 57.1653 215.531 54.3077 215.571C52.7681 215.592 50.3449 215.031 50.2207 213.298L50.2176 213.245C50.0253 213.297 49.8264 213.34 49.6226 213.371C49.5319 213.385 49.4448 213.381 49.3643 213.362L49.3243 213.351C47.0293 214.051 44.1262 213.052 41.9454 212.471L41.7653 212.423C39.6836 211.88 38.0111 211.104 36.6467 209.378C34.2585 206.357 33.4434 202.299 33.0196 198.56C32.6218 195.04 32.599 191.456 33.0831 187.943C32.7978 185.081 33.0766 182.128 33.401 179.282C33.5608 177.875 33.7482 176.469 33.9732 175.07C34.0987 174.289 34.2634 173.516 34.4313 172.744C34.4983 172.436 34.5541 172.104 34.6391 171.784L34.6774 171.647C34.4166 171.681 34.1313 171.624 33.8558 171.473C33.2005 171.112 33.0098 170.383 32.9983 169.685C32.9625 167.581 33.2135 165.417 33.4352 163.327C33.6586 161.239 33.965 159.144 34.366 157.082L34.4698 156.551C34.7737 155.009 35.1214 153.417 35.7337 151.968C33.4336 151.577 31.14 151.161 28.9083 150.453C27.8194 150.106 26.7468 149.674 25.723 149.147ZM145.777 171.04C145.741 171.048 145.707 171.058 145.673 171.068C144.753 171.326 143.824 171.544 142.898 171.779C141.297 172.182 139.732 172.632 138.244 173.332C137.932 177.268 137.47 181.192 137.031 185.118L136.943 185.903C137.618 184.651 138.309 183.408 139.032 182.18C141.231 178.437 143.48 174.724 145.777 171.04ZM35.2382 171.43C35.2431 171.898 35.1453 172.384 35.0931 172.834C35.0083 173.565 34.9399 174.299 34.8535 175.029C34.6774 176.497 34.5274 177.966 34.4182 179.44C34.3481 180.382 34.3025 181.326 34.2617 182.27C35.186 178.814 36.4103 175.434 37.5742 172.048C37.3797 172.027 37.1808 171.98 36.9756 171.925L36.6302 171.832C36.4266 171.78 35.766 171.617 35.2382 171.43ZM148.689 168.212L148.695 168.367C148.72 168.917 148.39 169.227 147.991 169.307C148.222 168.941 148.456 168.576 148.689 168.212ZM42.9243 142.166C43.8975 142.252 44.8512 142.459 45.7608 142.818L45.8486 142.852C46.5214 143.112 47.5051 143.438 47.7251 144.157C47.7871 144.361 47.6208 144.528 47.4301 144.545C46.6998 144.604 45.839 143.821 45.1625 143.557C44.4094 143.263 43.6204 143.044 42.8216 142.929C41.0268 142.666 39.1554 142.865 37.4666 143.519C37.3671 143.558 37.3052 143.4 37.3949 143.353C39.0967 142.426 40.9893 141.994 42.9243 142.166ZM22.3013 146.83C22.1888 146.73 22.0763 146.626 21.9655 146.521C21.0915 145.694 20.3175 144.729 19.7445 143.668L19.5936 143.381C19.1269 142.477 18.5538 141.189 19.6506 140.538C20.306 140.148 21.095 140.246 21.8253 140.482C21.8725 140.497 21.9198 140.514 21.9671 140.53C22.2931 140.644 22.6077 140.781 22.8881 140.911C24.1059 141.471 25.1801 142.285 26.3049 143.002C27.5237 143.78 28.7271 144.277 30.1337 144.569L30.2662 144.595C31.5866 144.856 33.0179 145.024 33.9389 146.11C34.1704 146.384 33.9585 146.898 33.5591 146.763C31.0128 145.903 28.3182 145.714 25.9805 144.303C25.0122 143.72 24.0961 143.05 23.1066 142.497C22.5817 142.203 22.0397 141.946 21.4622 141.77L21.1466 141.677C20.9618 141.623 20.7412 141.569 20.5929 141.623C20.3105 141.72 20.4006 141.872 20.488 142.135L20.4967 142.162C21.183 144.286 23.1392 146.063 24.9519 147.239C25.3676 147.51 25.7931 147.758 26.2267 147.988C29.1618 149.553 32.4461 150.281 35.6717 151.146C35.6717 151.146 37.5367 151.667 38.1545 151.862C38.8425 151.805 39.6266 152.048 40.145 152.338C40.6487 152.62 41.0546 152.999 41.361 153.444C41.361 153.444 41.6561 153.69 41.7099 154.072C41.8648 154.426 41.9691 154.807 42.0213 155.205C42.0506 155.439 41.9919 155.618 41.8811 155.745C42.2145 160.864 40.8322 165.955 39.2738 170.821L39.1194 171.3L39.0202 171.604C37.3395 176.763 35.411 181.883 34.5503 187.262C33.9748 190.854 33.9928 194.572 34.415 198.181L34.4447 198.43C34.8607 201.842 35.6611 205.67 37.8301 208.416C38.9365 209.818 40.2472 210.441 41.923 210.892L42.0147 210.916C43.5308 211.316 45.0957 211.882 46.659 212.053C48.1099 212.211 49.326 211.671 50.6317 211.166L50.6333 211.164C53.3834 208.729 54.6321 205.184 55.5548 201.606C57.9462 192.347 57.6495 182.735 56.2932 173.34C55.5857 168.431 54.6239 163.565 53.6654 158.7C53.1861 156.269 52.6694 153.842 52.2407 151.402L51.986 149.966C51.8455 149.169 51.7096 148.37 51.5935 147.568C51.437 146.49 51.3897 145.43 51.3359 144.346C50.0188 142.162 48.1066 140.363 45.8912 139.074C44.3051 138.149 42.626 137.508 40.8932 137.043C35.9391 135.708 30.5384 135.802 25.5534 134.775C23.8788 134.43 22.2891 133.918 20.7003 133.305L20.4837 133.221C19.755 132.937 19.0116 132.779 18.6498 133.638C18.3922 134.25 18.5454 134.886 18.9318 135.399C19.8789 136.658 21.7829 137.242 23.2158 137.696C24.0782 137.97 24.9584 138.186 25.8485 138.348C26.7386 138.509 27.6319 138.55 28.4861 138.865C28.8154 138.985 28.8806 139.509 28.4861 139.602C27.4037 139.855 26.3147 139.638 25.2388 139.427C24.057 139.194 22.893 138.863 21.7617 138.444C21.5531 138.367 21.3371 138.286 21.1172 138.2L20.9515 138.134C21.1227 138.258 21.2939 138.381 21.4667 138.503C21.5123 138.535 21.4846 138.622 21.4243 138.601C18.7642 137.608 16.3438 135.817 14.4688 133.697L14.3755 133.591C13.7153 132.834 12.2107 130.544 10.9424 131.182C9.75148 131.78 11.7816 134.086 12.5531 135.028L12.6427 135.139C13.5197 135.161 14.369 135.707 15.0798 136.148C16.3138 136.913 17.6032 137.572 18.9171 138.188C21.5286 139.416 24.3015 140.282 26.8853 141.572C26.9195 141.59 26.8935 141.634 26.8609 141.629C25.216 141.366 23.5891 140.947 21.9997 140.427L21.9288 140.405L21.8579 140.381C20.8652 140.055 19.8854 139.687 18.922 139.294C17.851 138.857 16.8045 138.366 15.7889 137.81C14.8695 137.307 13.849 136.402 12.7829 136.269C12.6688 136.254 12.5677 136.252 12.4797 136.26C11.2554 136.363 12.2678 138.392 12.6101 138.999C13.1692 139.995 13.8441 140.915 14.6184 141.755C16.1883 143.46 18.0907 144.812 20.1495 145.864C20.8521 146.223 21.571 146.539 22.3013 146.83Z"
          fill="black"
        />
        <path
          fill-rule="evenodd"
          clip-rule="evenodd"
          d="M116.269 96.5371L116.382 96.511C117.283 96.2985 118.149 96.0096 118.988 96.5679C119.788 97.0997 119.899 98.0834 119.276 98.8009C118.636 99.5386 117.786 99.4974 116.888 99.5075L116.832 99.5082C116.087 99.5185 115.329 99.5074 114.587 99.4413C113.895 99.3797 113.199 99.2812 112.515 99.1519L112.11 99.0726C111.697 98.9889 111.29 98.8801 111.077 98.48C110.706 97.7825 113.466 97.2352 113.801 97.1395C114.615 96.9071 115.444 96.7241 116.269 96.5371ZM117.8 88.127C117.36 88.5835 116.779 88.8953 116.127 89.0893C114.487 89.577 112.395 89.3172 111.056 88.8203C110.778 88.7172 110.518 88.507 110.369 88.2442C110.233 88.0042 110.187 87.7219 110.29 87.434C110.32 87.3522 110.356 87.2719 110.392 87.1929C110.49 86.9778 110.69 86.8104 110.926 86.7147C111.17 86.6153 111.448 86.595 111.67 86.6651C111.7 86.6745 111.731 86.6842 111.762 86.6941C112.611 86.9617 114.002 87.4048 115.155 87.3189C115.847 87.2674 116.456 87.0228 116.771 86.3895C116.936 86.0555 116.89 85.7252 116.743 85.4228C116.522 84.9669 116.077 84.5702 115.703 84.2968C115.175 83.9113 114.613 83.7574 114.03 83.5949C113.811 83.5337 113.589 83.4717 113.365 83.3974C113.291 83.373 113.226 83.3251 113.178 83.2627C113.13 83.2012 113.098 83.126 113.088 83.0506C113.078 82.9725 113.091 82.8946 113.127 82.8275C113.16 82.7652 113.214 82.7105 113.294 82.6746C114.433 82.1642 115.906 82.5015 117.018 83.3045C117.574 83.7058 118.037 84.2213 118.323 84.7974C118.588 85.3321 118.7 85.9187 118.596 86.5169C118.48 87.1865 118.197 87.7155 117.8 88.127ZM99.1354 76.7376C99.4554 76.5965 99.7183 77.2568 99.7842 77.4369L99.9204 77.8104C100.143 78.4126 100.398 79.0249 100.865 79.4719C101.256 79.8462 101.882 80.1634 102.336 79.7255C102.767 79.3102 102.557 78.8423 102.62 78.3327C102.735 77.4109 103.991 76.4897 104.746 77.4516C106.453 79.6247 103.813 82.6469 101.381 82.1168C100.144 81.847 99.1484 80.855 98.7393 79.6753L98.7184 79.613C98.4735 78.8656 98.2259 77.1389 99.1354 76.7376ZM121.156 78.2511L121.144 78.2235C120.331 76.3741 123.231 75.5792 123.477 77.2398L123.492 77.3519C123.731 79.1954 123.227 81.6745 120.97 81.8582C118.437 82.0647 117.382 79.2367 117.608 77.1616C117.649 76.7901 118.099 76.7387 118.239 77.0763L118.268 77.1499C118.677 78.1929 119.066 80.1985 120.507 80.1965C121.47 80.195 121.424 78.8946 121.156 78.2511ZM122.994 72.8972C124.451 72.8455 124.449 75.1256 122.994 75.1599C118.136 75.2742 113.274 75.4262 108.414 75.4523L107.531 75.4577C102.966 75.4883 98.3861 75.5507 93.8348 75.1674C93.4463 75.1348 93.5185 74.5891 93.8431 74.6111C98.6147 73.9317 103.444 73.7331 108.252 73.475C113.162 73.2113 118.081 73.0717 122.994 72.8972Z"
          fill="black"
        />
        <path
          fill-rule="evenodd"
          clip-rule="evenodd"
          d="M122.978 58.9346C123.92 58.6115 124.672 59.5918 124.491 60.4462C124.277 61.4524 123.227 62.2599 122.531 62.9692C121.801 63.7161 121.056 64.4483 120.283 65.1528C118.808 66.5 117.279 67.7686 115.667 68.9509L115.174 69.3123C113.696 70.394 112.222 71.4506 110.639 72.387C109.782 72.8925 108.916 73.3817 108.039 73.853C107.727 74.021 107.345 74.2801 106.952 74.4727C108.388 75.5817 109.493 77.2744 109.733 78.8514C110.326 82.7686 107.803 86.3987 104.243 87.842C102.468 88.5611 100.492 88.7699 98.5943 88.553C96.6642 88.3327 94.708 87.7619 93.4544 86.1802C92.341 84.7761 91.94 82.984 91.8601 81.2242C91.8226 80.3892 91.8308 79.5672 92.0068 78.8286C91.239 78.8351 90.4712 78.8318 89.7099 78.84C87.8287 78.8579 85.9441 78.8663 84.0615 78.8139C82.1199 78.7585 80.1882 78.672 78.2532 78.4993C77.4039 78.4225 76.5595 78.2969 75.7149 78.1763C74.8951 78.0605 73.9904 78.0164 73.2242 77.6805C73.172 77.6593 73.1937 77.5843 73.2389 77.5695C74.0556 77.3054 74.9831 77.3526 75.8341 77.3005L76.6634 77.2502C77.3542 77.2089 78.0446 77.171 78.7374 77.1487C80.3378 77.0961 81.9369 77.0831 83.537 77.0557L84.2228 77.0429C86.1057 77.0054 87.9885 76.9842 89.8713 76.9238C90.6522 76.8994 91.4346 76.8537 92.2187 76.8113C92.31 76.604 92.4439 76.4149 92.5725 76.2307C92.9572 75.6795 93.4462 75.1936 93.9532 74.7532C94.9915 73.8464 96.1604 73.173 97.4646 72.7213C98.7569 72.2751 100.647 72.0538 102.014 72.0826C103.381 72.1114 105.33 72.3043 105.956 73.4225C106.021 73.5383 107.213 73.3149 107.567 73.044C108.393 72.4131 109.205 71.764 110.002 71.0986C111.482 69.8609 113.005 68.6427 114.407 67.3185C115.853 65.9519 117.287 64.5624 118.663 63.1273C119.354 62.4082 120.044 61.6874 120.714 60.9502C121.398 60.1984 121.987 59.2722 122.978 58.9346Z"
          fill="black"
        />
        <path
          fill-rule="evenodd"
          clip-rule="evenodd"
          d="M117.591 48.618C106.892 39.9005 89.7469 37.0699 78.2944 45.8649C69.3956 54.1188 65.7131 77.5738 67.2879 89.3599C67.7258 96.9194 73.4868 105.488 81.9436 103.097C83.3797 102.955 84.7741 102.403 86.2233 102.288C87.9569 102.088 89.7037 102.084 91.4338 102.329C95.2039 102.864 98.546 104.87 102.205 105.809C108.995 107.549 116.571 106.378 122.415 102.457C141.729 89.7278 132.98 60.9386 117.591 48.618Z"
          fill="white"
        />
        <path
          fill-rule="evenodd"
          clip-rule="evenodd"
          d="M116.166 106.018C116.365 105.949 116.563 105.878 116.76 105.804C116.773 105.85 116.794 105.894 116.818 105.937C116.846 106.005 116.874 106.072 116.905 106.139C116.657 106.14 116.41 106.096 116.166 106.018ZM115.769 21.5398C115.681 21.3427 115.58 21.1535 115.467 20.9707C115.743 21.0605 116.02 21.1845 116.27 21.3443C116.101 21.4014 115.935 21.4666 115.769 21.5398ZM73.5089 47.3326C73.4975 47.3306 73.4863 47.329 73.4751 47.327C73.6202 46.9397 73.8786 46.5741 74.1641 46.3101C74.2154 46.2626 74.2708 46.2187 74.3245 46.1734C74.0215 46.5353 73.7465 46.9213 73.5089 47.3326ZM150.834 87.8331C150.691 86.473 150.509 85.118 150.273 83.7708C150.047 82.481 149.857 81.1013 149.201 79.9565C148.551 78.8166 147.898 77.7091 147.124 76.7063C147.235 76.1943 147.381 75.7132 147.508 75.3251C148.24 73.0909 148.961 70.2533 147.44 68.1773C147.087 67.6962 146.656 67.3277 146.163 66.995C145.953 66.8531 145.605 66.7243 145.444 66.5286C145.33 66.39 145.369 66.465 145.364 66.3965C145.336 66.0279 146.198 65.25 146.4 64.9581C146.778 64.4182 147.059 63.8101 147.274 63.1887C148.123 60.7295 147.545 58.0208 147.035 55.5565C146.765 54.2504 146.467 52.9408 146.369 51.6069C146.278 50.3544 146.449 49.1313 146.55 47.8854C146.647 46.6556 146.621 45.387 146.096 44.2486C145.839 43.6941 145.45 43.2049 144.977 42.8233C144.515 42.45 143.939 42.2331 143.488 41.8613C143.039 41.4909 143.168 40.9904 143.285 40.4783C143.446 39.7836 143.649 39.0938 143.669 38.3763C143.705 37.1254 143.195 35.9071 142.4 34.9614C141.58 33.9845 140.409 33.3239 139.143 33.1755C138.564 33.107 137.995 33.223 137.419 33.1822C136.85 33.1431 136.726 32.8577 136.619 32.3358C136.372 31.1404 136.472 29.9598 135.885 28.8443C135.365 27.8528 134.439 27.1807 133.416 26.7846C131.54 26.0573 129.359 26.2073 127.381 26.636C126.213 23.192 122.567 20.9333 118.98 20.9056C118.421 19.9532 117.472 19.2422 116.391 18.8246C114.601 18.1315 112.706 18.5361 110.842 18.5361H110.834C110.647 18.5245 110.459 18.5198 110.273 18.5214C110.097 18.5114 109.921 18.4968 109.745 18.4774C107.624 18.2261 105.526 17.3552 103.424 18.2083C102.487 18.5883 101.742 19.1737 101.27 19.9206C100.559 20.1145 99.8582 20.3365 99.1703 20.5941C96.1883 20.6722 93.2342 22.2753 91.7264 24.8733C89.6036 24.632 87.3002 25.0413 85.8961 26.7797C85.5305 27.2321 85.2472 27.7636 85.0595 28.3278C83.628 28.7919 82.3034 29.6189 81.4365 30.8645C80.6454 32.0012 80.4935 33.4708 81.0285 34.691C79.7506 35.6191 78.7519 36.9477 78.2709 38.5165C77.9786 39.4697 77.9352 40.4545 78.1232 41.3927C76.8149 41.6837 75.5634 42.223 74.4547 43.0323C73.2927 43.8802 71.8415 45.2297 71.7651 46.7828C71.7594 46.8968 71.7638 47.0108 71.7729 47.1245C69.2149 46.9443 66.6066 47.3787 64.8776 49.4346C63.5793 50.9772 63.015 52.9637 63.3615 54.7722C60.3179 55.3919 57.4401 56.9868 55.4327 59.345C53.9737 61.0589 52.6772 63.2376 52.7551 65.5711C52.7795 66.2742 52.944 66.9819 53.2287 67.6359V67.6374C53.1067 67.8675 52.9812 68.1235 52.8609 68.3958C50.9755 69.7182 49.6058 71.7911 48.8348 74.0759C48.2119 75.9267 47.8199 78.3306 48.485 80.2142C48.586 80.5012 48.7145 80.7719 48.8642 81.0229C48.7388 81.1568 48.6202 81.2905 48.5047 81.4258C47.2341 82.9146 45.9473 84.79 46.0353 86.8399C46.0711 87.6652 46.3768 88.4953 46.8764 89.1768C45.1193 90.9627 43.7043 93.2165 43.844 95.7328C43.9644 97.9229 45.1634 100.147 47.0421 101.199C46.7283 102.887 47.148 104.668 48.459 105.986C49.1131 106.644 49.884 107.078 50.7008 107.31C50.883 109.298 52.6429 110.897 54.512 111.357C54.8603 111.444 55.2084 111.496 55.5547 111.52C57.2367 112.347 59.2425 112.253 60.9586 111.494C61.4646 112.139 62.1234 112.664 62.8912 113.04C63.2019 113.194 63.5306 113.321 63.8737 113.423C66.2975 114.143 68.7833 113.168 70.9027 112.029C70.9711 111.993 71.0963 111.948 71.2069 111.897C71.4997 112.225 72.0333 112.549 72.3115 112.709C73.2551 113.252 74.4085 113.505 75.4918 113.433C76.7623 113.349 77.883 112.928 78.9208 112.329C79.0722 112.355 79.225 112.37 79.3781 112.378C80.3541 112.43 81.2242 112.121 82.0068 111.631C82.524 111.7 83.0543 111.693 83.5911 111.599C84.7739 111.9 85.9256 111.421 86.851 110.659C87.2611 110.322 87.6074 109.926 87.9785 109.547C88.3639 109.154 88.6568 109.063 89.1073 108.799C90.1729 108.174 90.3013 106.591 89.8393 105.446C89.9271 105.245 89.9777 105.022 89.9777 104.774C89.9743 102.611 88.9805 100.628 87.7605 98.8981C87.2154 98.1268 86.6234 97.3715 85.9742 96.6868C85.452 96.137 84.7186 95.2452 83.9459 95.0216C83.8987 94.9875 83.8497 94.9531 83.8009 94.9206C83.9508 94.3954 84.0384 93.8606 84.0012 93.3143C83.962 92.7532 83.7814 92.2215 83.492 91.7683C84.463 89.8815 84.8731 87.812 84.6779 85.6529C85.4683 84.5291 86.0671 83.2882 86.376 81.9281C86.5663 81.0866 86.6755 80.2011 86.6607 79.3383C86.6542 78.9242 86.5029 78.4006 86.4998 77.9718C86.5226 78.1072 86.6983 77.6016 86.7666 77.4759C87.5505 76.0165 88.5574 74.8782 88.7252 73.1577C88.8226 72.1514 88.5851 71.0393 87.9832 70.2142C88.3687 68.691 88.3639 67.0552 87.7571 65.6023C87.5944 65.2142 87.4075 64.8342 87.1928 64.4738C87.2919 64.1705 87.3831 63.8639 87.5001 63.5881C87.5458 63.4788 87.5912 63.3681 87.6367 63.2572C88.0776 62.8673 88.4877 62.4418 88.8325 62.0242C89.5969 61.0997 90.1811 60.0397 90.2543 58.818C90.2901 58.2065 90.1469 57.621 89.9696 57.0406C89.8913 56.7781 89.8442 56.4862 89.7514 56.2301C89.6996 56.0881 89.5741 55.9431 89.5304 55.8094C89.5205 55.78 89.5123 55.7556 89.5058 55.736C89.5123 55.7164 89.5174 55.6757 89.5174 55.5989C89.5188 55.0134 89.5953 54.441 89.5987 53.8769C90.1339 54.4183 90.7781 54.8226 91.5101 55.0592C92.9853 55.5338 94.5244 55.3185 95.8305 54.5863C97.2361 55.5517 98.8155 56.4257 100.472 56.7765C101.456 56.985 102.442 56.8988 103.429 57.0276C104.41 57.1564 105.358 57.5853 106.282 57.9196C108.338 58.6649 110.39 59.4296 112.452 60.1555C114.118 60.7409 115.92 61.2057 117.664 60.8763C118.154 61.6328 118.79 62.2722 119.605 62.7419C120.189 63.0762 120.83 63.3027 121.492 63.4154C122.077 63.5149 122.764 63.4757 123.239 63.8785C123.703 64.2699 123.992 64.8536 124.409 65.2941C124.872 65.7866 125.445 66.2138 126.045 66.5204C126.527 66.7667 127.018 66.9443 127.517 67.0602C127.473 68.174 127.431 69.2862 127.418 70.4017C127.394 72.8251 127.403 75.2483 127.371 77.6718C127.338 80.0868 127.262 82.5022 127.135 84.9141C127.015 87.1776 126.845 89.4492 126.307 91.6574C124.521 98.9846 117.83 104.231 110.341 104.498C108.117 104.578 105.916 104.265 103.79 103.609C101.588 102.929 99.6207 101.53 97.3628 101.1C96.7723 100.989 96.216 101.584 96.5544 102.156C97.1369 103.14 97.8443 103.74 98.8122 104.332C99.8258 104.95 100.955 105.408 102.069 105.809C104.119 106.546 106.287 106.974 108.462 107.093C110.121 107.184 111.787 107.07 113.412 106.757C113.526 107.108 113.728 107.448 113.88 107.773C113.903 107.82 113.98 107.788 113.965 107.739C113.941 107.657 113.925 107.585 113.918 107.527C114.464 108.241 115.309 108.735 116.176 108.975C116.787 109.144 117.437 109.196 118.066 109.125C118.27 109.102 118.463 109.068 118.655 109.025C119.296 109.588 120.116 109.963 120.939 110.151C120.797 111.012 121.222 111.951 122.206 112.196C122.619 112.298 123.016 112.3 123.413 112.262C123.734 112.412 124.078 112.53 124.444 112.61C124.921 112.714 125.49 112.58 125.85 112.235C126.047 112.373 126.23 112.47 126.413 112.69C127.163 113.596 128.78 112.874 128.851 111.825C129.089 111.825 129.328 111.829 129.567 111.837C129.624 111.863 129.681 111.889 129.739 111.917C130.785 112.404 131.869 112.83 133.025 112.447C133.238 112.376 133.434 112.287 133.611 112.183C134.426 112.256 135.229 112.258 136.056 111.99C136.544 111.832 137.003 111.581 137.385 111.251C138.66 111.626 140.006 111.796 141.274 111.331C142.224 110.984 142.989 110.436 143.527 109.713C144.351 109.743 145.187 109.544 145.94 109.151C147.228 108.482 148.131 107.212 148.76 105.938C150.147 103.128 150.966 100.11 151.288 96.9966C151.606 93.9307 151.153 90.8812 150.834 87.8331Z"
          fill="black"
        />
        <path
          fill-rule="evenodd"
          clip-rule="evenodd"
          d="M101.318 90.6983C102.028 88.5075 109.737 85.2833 111.037 86.2208C112.336 87.1583 110.66 93.8561 110.66 93.8561C110.66 93.8561 103.471 94.6015 102.957 94.2288C102.442 93.8561 100.607 92.8891 101.318 90.6983Z"
          fill="white"
        />
        <path
          fill-rule="evenodd"
          clip-rule="evenodd"
          d="M114.447 86.3897C114.494 86.4405 114.391 86.5089 114.34 86.4719C113.749 86.0429 112.816 86.2864 112.245 86.4806C112.245 86.4806 112.036 93.2106 112.267 93.3701C112.498 93.5295 115.754 93.4348 115.754 93.8342C115.754 95.1395 113.796 95.6295 112.733 95.5518C111.06 95.4299 109.335 95.1912 107.664 95.3845C105.993 95.5778 102.442 96.6443 100.625 95.1704C98.4575 93.4124 98.7506 90.5234 100.554 88.6374C101.691 87.4485 103.364 86.7353 105.013 86.2068C107.427 85.4335 113.115 84.9344 114.447 86.3897ZM109.996 91.3306C109.12 91.6713 104.769 93.1083 103.735 93.3701C104.944 93.2834 109.069 93.1876 109.996 92.7393C110.099 92.3197 110.166 91.2643 109.996 91.3306ZM110.66 86.6653C108.291 87.05 103.177 88.7846 102.442 89.7079C103.559 89.5323 109.788 88.7846 110.491 88.7846C110.593 88.2411 110.525 87.2882 110.66 86.6653ZM111.417 76.1273C112.59 76.8404 114.378 78.5034 113.115 80.2715C111.63 81.8304 109.491 80.043 108.436 79.2346C107.459 78.6081 106.361 80.2194 107.268 80.951C114.885 86.5903 117.976 76.3138 112.01 75.2887C111.353 75.1758 111.109 75.9066 111.417 76.1273ZM114.018 65.7208C114.707 65.7151 115.109 66.1621 115.625 66.5602C116.157 66.9702 116.799 67.2973 117.42 67.5477C118.068 67.8086 118.761 68.0157 119.444 68.1635C120.151 68.3164 120.802 68.2447 121.504 68.3742C123.366 68.7174 122.925 71.8216 121.059 71.6681C119.378 71.53 117.575 70.4977 116.3 69.4273C115.691 68.9159 115.178 68.3298 114.677 67.7173L114.584 67.6021C114.14 67.0543 113.725 66.4935 113.948 65.7743C113.957 65.7432 113.985 65.7212 114.018 65.7208ZM98.4897 74.7804C98.4919 73.7896 99.069 71.5274 100.495 71.5274C101.386 71.5274 101.927 73.067 102.021 74.6541L102.024 74.7188C102.066 75.7055 101.795 77.8623 100.495 77.8623C99.182 77.8623 98.5034 75.8195 98.4899 74.8154L98.4897 74.7804ZM119.49 74.7804C119.488 73.7896 118.911 71.5274 117.484 71.5274C116.615 71.5274 116.079 72.991 115.966 74.5352L115.958 74.6541C115.902 75.6075 116.155 77.8623 117.484 77.8623C118.798 77.8623 119.476 75.8195 119.49 74.8154L119.49 74.7804ZM103.157 65.8686C104.047 65.4847 105.066 65.5938 105.602 66.5095C106.109 67.3762 105.764 68.4208 104.961 68.954C104.172 69.4778 103.114 69.7627 102.207 70.0622L102.107 70.0956C101.228 70.3912 100.349 70.633 99.4411 70.8219C98.5929 70.9985 97.7383 71.1292 96.8787 71.2335L96.6207 71.264C95.9503 71.3414 95.0151 71.6019 94.4116 71.2203C94.358 71.1866 94.3373 71.1168 94.3697 71.0609C94.721 70.4526 95.6535 70.2102 96.2519 69.9021C97.0202 69.5062 97.7775 69.0847 98.5279 68.656C99.2866 68.2225 100.043 67.7819 100.794 67.3344C101.574 66.8697 102.328 66.2263 103.157 65.8686Z"
          fill="black"
        />
        <path
          fill-rule="evenodd"
          clip-rule="evenodd"
          d="M192.721 47.0121C192.138 50.5717 190.082 53.7403 187.005 55.8209C183.928 57.9015 180.082 58.7236 176.313 58.1065C172.544 57.4893 169.161 55.4835 166.908 52.5301C164.655 49.5768 163.717 45.9178 164.3 42.3583C164.883 38.7988 166.939 35.6302 170.016 33.5496C173.093 31.469 176.939 30.6468 180.708 31.2639C184.477 31.8811 187.86 33.887 190.113 36.8403C192.366 39.7937 193.304 43.4526 192.721 47.0121ZM179.335 39.6522C179.023 39.6008 178.703 39.628 178.409 39.731C178.114 39.834 177.855 40.0092 177.657 40.2389C177.512 40.4182 177.33 40.5674 177.122 40.6777C176.913 40.788 176.683 40.8572 176.444 40.8811C176.205 40.9049 175.963 40.8831 175.732 40.8167C175.5 40.7504 175.284 40.641 175.097 40.4949C174.909 40.3489 174.754 40.1692 174.64 39.9665C174.526 39.7638 174.456 39.5422 174.433 39.315C174.411 39.0877 174.437 38.8593 174.51 38.6433C174.583 38.4274 174.701 38.2282 174.857 38.0577C175.601 37.1944 176.629 36.5928 177.782 36.3463C178.935 36.0998 180.149 36.2222 181.235 36.6945C182.321 37.1668 183.219 37.9626 183.789 38.9584C184.36 39.9543 184.57 41.0946 184.389 42.2025C184.219 43.2437 183.711 44.2035 182.936 44.9496C182.16 45.6957 181.155 46.1914 180.059 46.3685L180.012 46.6537C179.939 47.0987 179.682 47.4948 179.298 47.7548C178.913 48.0149 178.432 48.1177 177.961 48.0405C177.49 47.9634 177.067 47.7127 176.786 47.3435C176.504 46.9743 176.387 46.517 176.46 46.072L176.734 44.3944C176.807 43.9494 177.064 43.5533 177.449 43.2933C177.833 43.0332 178.314 42.9304 178.785 43.0076C179.256 43.0847 179.737 42.9819 180.122 42.7219C180.506 42.4618 180.763 42.0657 180.836 41.6208C180.909 41.1758 180.792 40.7185 180.51 40.3493C180.229 39.9801 179.806 39.7294 179.335 39.6522ZM177.137 53.0735C177.608 53.1506 178.089 53.0479 178.474 52.7878C178.858 52.5277 179.115 52.1317 179.188 51.6867C179.261 51.2418 179.144 50.7844 178.862 50.4152C178.58 50.0461 178.158 49.7953 177.686 49.7182C177.215 49.641 176.735 49.7438 176.35 50.0039C175.965 50.264 175.708 50.66 175.635 51.105C175.563 51.5499 175.68 52.0073 175.961 52.3765C176.243 52.7456 176.666 52.9964 177.137 53.0735Z"
          fill="black"
        />
      </svg>