<svg width="150" viewBox="0 0 186 250" fill="none" xmlns="http://www.w3.org/2000/svg">
<path fill-rule="evenodd" clip-rule="evenodd" d="M139.721 136.263C138.3 130.751 136.994 128.414 134.47 126.498C132.109 124.706 128.662 123.201 123.634 122.102C118.396 121.186 118.248 118.463 116.934 114.087C116.551 112.772 114.653 112.422 113.833 113.37C113.718 113.245 113.597 113.131 113.473 113.028C113.584 112.4 112.671 110.602 112.701 110.002C113.02 103.738 110.971 100.592 105.858 99.4224C104.746 99.168 97.1936 99.0183 96.1094 99.3181C91.3696 100.629 86.7036 104.79 87.4176 109.804C85.9298 111.748 84.4737 112.935 82.1782 113.562C78.6036 114.016 80.3993 164.668 86.6076 195.014C89.2713 208.035 152.963 185.874 150.085 179.353C150.493 178.157 149.749 176.844 150.085 175.609C150.328 174.716 150.95 174.346 151.263 173.462C151.704 172.217 151.224 170.547 150.728 169.277C150.525 168.644 151.103 167.963 151.263 167.317C152.024 164.27 150.281 164.539 149.025 162.502C149.043 162.495 149.37 161.041 149.369 161.049C149.561 160.01 149.079 158.681 148.659 157.814C148.375 157.228 147.766 156.862 147.161 156.929C147.77 154.861 148.54 153.14 149.369 151.148C150.834 147.636 152.227 143.962 154.33 140.783C155.191 139.481 154.496 138.284 153.102 138.195C148.59 137.908 144.127 137.259 139.721 136.263Z" fill="white"/>
<path fill-rule="evenodd" clip-rule="evenodd" d="M132.678 136.689L122.379 154.124C122.379 154.124 124.822 154.368 125.811 154.843C126.8 155.318 131.34 161.091 131.34 161.091L132.061 164.27L130.352 166.833L131.018 168.442C131.018 168.442 131.494 167.352 132.678 166.506C133.862 165.659 136.473 164.27 136.473 164.27C136.473 164.27 135.605 163.806 135.605 163.26C135.605 162.715 134.841 160.389 136.473 159.511C138.105 158.632 146.54 156.576 146.54 156.576L155.087 138.541L132.678 136.689Z" fill="#9764C7"/>
<path fill-rule="evenodd" clip-rule="evenodd" d="M86.7335 113.68L119.437 119.421L134.47 126.498L136.924 128.39L122.379 154.124L99.9199 158.222L94.1981 173.089L95.3661 189.846L131.902 185.489L147.662 183.615L151.367 198.576L150.697 204.73L149.724 207.851L110.654 218.402C110.654 218.402 90.7592 216.473 87.2325 216.473C83.7058 216.473 57.8486 219.042 57.8486 219.042L51.866 218.402C51.866 218.402 38.6294 204.448 36.5764 199.481C34.5234 194.515 30.084 164.324 30.084 164.324L30.5728 159.686L42.0089 130.247C42.0089 130.247 43.5361 128.86 45.4614 126.498C47.3867 124.137 86.7335 113.68 86.7335 113.68Z" fill="#F8F5F7"/>
<path fill-rule="evenodd" clip-rule="evenodd" d="M145.923 156.204C142.967 156.355 140.009 157.058 137.335 158.331C136.241 158.853 135.25 159.606 134.96 160.846C134.813 161.479 134.849 162.133 134.927 162.772C134.986 163.256 135.001 163.874 135.421 164.202C135.493 164.257 135.57 164.3 135.65 164.331C134.663 164.776 133.724 165.311 132.89 165.862C132.127 166.366 131.343 167.142 130.991 168.018C130.961 167.918 130.932 167.826 130.903 167.737C130.303 165.963 129.378 164.51 127.923 163.533C127.757 162.931 125.983 160.337 124.335 160.435C122.531 160.541 121.079 160.673 119.447 161.503C118.853 161.49 118.259 161.498 117.672 161.524C117.571 161.527 117.576 161.665 117.672 161.676C118.148 161.736 118.624 161.803 119.1 161.881C120.232 162.062 121.36 162.292 122.463 162.578C123.787 162.92 125.156 163.264 126.394 163.863C128.793 165.026 130.278 168.065 129.973 170.71C129.923 171.144 129.755 172.455 129.153 172.32C128.645 172.206 128.443 171.144 128.265 170.751C127.789 169.707 126.932 169.026 125.903 168.564C124.695 168.021 123.402 167.654 122.15 167.227C121.441 166.984 120.732 166.741 120.021 166.5C119.294 166.25 118.603 165.906 117.829 166.081C117.361 166.187 117.307 166.744 117.57 167.064C117.969 167.551 118.562 167.695 119.138 167.896C119.897 168.16 120.656 168.424 121.414 168.688C122.585 169.096 123.813 169.44 124.956 169.939L124.92 170.021C124.827 169.994 124.718 170.087 124.736 170.202C124.907 171.257 125.145 172.476 124.881 173.533C124.672 174.371 123.937 175.3 122.982 175.053C123.132 174.916 123.187 174.68 123.086 174.461C122.708 173.652 117.752 170.459 117.31 171.645C117.296 171.687 117.341 171.718 117.377 171.712C117.754 171.633 118.385 172.276 118.686 172.48C119.121 172.773 119.563 173.06 119.994 173.362C120.465 173.692 120.924 174.037 121.373 174.394C121.725 174.675 121.991 174.967 122.395 175.109C122.183 175.21 122.015 175.397 121.943 175.637C121.761 176.262 121.409 176.792 120.797 177.067C120.157 177.354 119.435 177.173 118.76 177.243C117.84 177.336 117.038 177.773 116.368 178.398C114.961 179.712 114.256 182.028 112.288 182.649C111.113 183.02 109.808 182.786 108.618 182.618C107.29 182.431 105.996 182.282 104.657 182.478C103.376 182.666 102.165 183.109 100.994 183.651C99.8972 184.158 98.6843 184.732 97.7111 185.489C97.5106 184.87 97.3085 184.259 97.1551 183.628C96.7934 182.136 96.5977 180.616 96.5503 179.083C96.5065 177.623 96.588 176.157 96.7133 174.704C96.7754 173.978 96.8732 173.256 96.9352 172.53C96.9513 172.348 96.9841 172.152 97.0085 171.956C98.7463 170.93 100.572 170.145 102.412 169.336C102.417 169.334 102.422 169.331 102.427 169.329C102.484 169.303 102.54 169.279 102.597 169.254C102.595 169.251 102.593 169.248 102.59 169.244C102.8 169.116 102.947 168.944 103.035 168.752C105.687 166.992 107.904 164.59 109.557 161.788C110.25 160.614 110.917 159.396 111.823 158.367C112.788 157.269 113.934 156.617 115.353 156.278C117.011 155.88 118.719 155.642 120.418 155.506C121.345 155.433 122.382 155.319 123.393 155.324C124.097 155.329 124.786 155.389 125.419 155.564C126.356 155.821 126.904 156.534 127.492 157.255C128.055 157.946 128.614 158.639 129.139 159.36C129.636 160.043 130.106 160.749 130.513 161.49C130.758 161.933 130.984 162.39 131.175 162.861C131.242 163.028 131.33 163.217 131.371 163.39C131.411 163.564 131.336 163.749 131.532 163.749C130.725 163.76 130.189 165.773 130.991 165.725C132.118 165.66 132.685 164.307 132.464 163.108C132.07 160.967 129.941 158.381 129.52 157.834C128.589 156.624 127.629 155.045 126.139 154.482C126.118 154.474 126.095 154.466 126.074 154.46C126.508 154.049 126.85 153.556 127.178 153.055C127.515 152.54 127.918 151.95 128.029 151.338C128.099 150.949 127.615 150.727 127.385 151.067C127.051 151.565 126.889 152.194 126.64 152.741C126.386 153.295 126.076 153.819 125.831 154.378C125.243 154.197 124.607 154.114 123.96 154.086C124.777 152.981 126.172 150.847 126.34 150.573C127.113 149.305 127.848 147.997 128.55 146.687C129.31 145.268 129.96 143.791 130.687 142.356C131.1 141.542 131.516 140.722 131.974 139.932C132.132 139.662 132.301 139.391 132.494 139.145C132.531 139.096 132.578 139.055 132.622 139.009C132.673 138.982 132.725 138.951 132.755 138.935C133.018 138.783 133.112 138.431 133.297 138.207C133.594 137.847 133.943 137.804 134.39 137.799C135.341 137.79 136.297 137.827 137.247 137.853C138.644 137.892 140.04 137.948 141.435 138.021C141.857 138.044 142.278 138.067 142.7 138.093C144.73 138.214 146.757 138.372 148.781 138.566C150.57 138.737 152.36 139.016 154.152 139.15C151.726 144.915 149.036 150.575 145.991 156.038C145.96 156.094 145.937 156.149 145.923 156.204ZM132.464 171.056C132.073 171.236 131.693 171.459 131.34 171.713C131.398 171.317 131.413 170.899 131.397 170.48C131.688 170.793 132.062 170.973 132.464 171.056ZM149.165 161.139C149.137 161.142 149.111 161.157 149.098 161.185C148.557 162.302 148.784 163.55 149.667 164.425C150.13 164.882 151.139 165.397 151.107 166.147C151.079 166.754 150.419 167.263 150.137 167.763C149.874 168.23 149.777 168.742 149.987 169.248C150.256 169.895 151.007 170.153 151.265 170.789C151.591 171.596 151.061 172.57 150.689 173.272C150.344 173.923 149.897 174.574 149.6 175.262C147.613 176.291 143.104 178.16 142.561 178.264C141.9 178.393 141.236 178.515 140.571 178.63C139.294 178.851 138.015 179.057 136.732 179.238C136.002 179.34 135.27 179.442 134.538 179.521C133.899 179.59 133.178 179.683 132.663 179.202C131.625 178.23 132.207 176.601 132.864 175.619C132.877 175.6 132.877 175.581 132.872 175.565C133.491 175.42 134.109 175.25 134.725 175.131C135.91 174.903 137.104 174.711 138.299 174.54C140.754 174.189 143.225 173.957 145.693 173.724C146.304 173.665 146.311 172.703 145.693 172.76C142.147 173.085 138.584 173.393 135.086 174.076C134.209 174.246 133.338 174.438 132.472 174.655C132.063 174.756 131.625 174.915 131.196 174.92C131.17 174.92 131.144 174.92 131.118 174.918C130.278 174.892 130.156 174.173 130.617 173.574C130.674 173.501 130.733 173.427 130.793 173.357C131.608 172.385 132.624 171.736 133.67 171.064C134.843 170.904 136.012 170.549 137.159 170.288C139.992 169.642 142.826 168.996 145.66 168.352C146.216 168.225 145.98 167.37 145.424 167.496C143.272 167.984 141.12 168.471 138.968 168.959L135.819 169.673C135.19 169.815 134.404 170.1 133.664 170.203C133.299 170.254 132.945 170.26 132.626 170.185C131.594 169.941 131.542 168.651 131.987 167.884C132.486 167.023 133.428 166.485 134.264 165.997C135.713 165.151 137.255 164.543 138.762 163.841C139.029 163.783 139.296 163.724 139.564 163.665C141.119 163.323 142.896 163.155 144.36 162.527C144.798 162.341 144.558 161.65 144.125 161.659C142.989 161.684 141.8 162.088 140.69 162.328C139.489 162.589 138.286 162.848 137.084 163.108C136.964 163.134 136.25 163.362 136.142 163.311C136.073 163.279 136.049 163.041 136.026 162.884C135.953 162.369 135.899 161.828 135.979 161.31C136.155 160.151 137.122 159.606 138.1 159.161C140.278 158.171 142.666 157.552 145.043 157.304C145.59 157.247 146.138 157.211 146.689 157.193C147.336 157.173 147.869 157.059 148.197 157.697C148.712 158.701 148.996 159.993 149.165 161.139ZM146.141 197.562C145.666 195.92 145.795 194.167 145.47 192.492C145.302 191.628 145.073 190.771 144.823 189.928C144.621 189.247 144.285 188.522 144.247 187.811C144.244 187.763 144.3 187.736 144.339 187.758C145.008 188.141 145.522 188.971 145.904 189.621C146.361 190.4 146.71 191.215 146.992 192.073C147.553 193.781 148.014 195.841 147.29 197.562C147.075 198.075 146.318 198.177 146.141 197.562ZM127.621 209.991C126.914 209.498 126.398 208.808 125.799 208.198C125.209 207.599 126.131 206.677 126.721 207.276C127.232 207.795 127.677 208.445 128.279 208.865C128.569 209.067 128.703 209.432 128.513 209.757C128.345 210.044 127.91 210.193 127.621 209.991ZM123.677 191.018C124.968 190.459 126.238 189.851 127.589 189.449C128.396 189.208 128.738 190.468 127.935 190.707C126.691 191.077 125.524 191.63 124.335 192.144C123.572 192.474 122.909 191.35 123.677 191.018ZM110.044 190.627C109.728 189.848 110.991 189.512 111.302 190.28C111.66 191.164 112.07 192.026 112.428 192.91C112.744 193.689 111.482 194.025 111.171 193.257C110.813 192.373 110.402 191.511 110.044 190.627ZM96.5881 206.188C96.3778 206.468 96.0272 206.62 95.6959 206.422C95.4185 206.255 95.2491 205.813 95.462 205.529C96.0836 204.701 96.7133 203.882 97.4418 203.143C98.0324 202.544 98.9541 203.467 98.364 204.065C97.7134 204.725 97.1433 205.447 96.5881 206.188ZM94.664 118.877C95.2626 119.286 95.7871 119.783 96.2984 120.294C96.893 120.888 95.9706 121.811 95.3761 121.216C94.9452 120.785 94.5106 120.348 94.0058 120.003C93.7141 119.804 93.5832 119.433 93.7718 119.111C93.9409 118.822 94.373 118.678 94.664 118.877ZM114.241 139.871C113.902 140.549 113.598 141.213 113.578 141.984C113.558 142.823 112.254 142.824 112.274 141.984C112.299 140.976 112.671 140.101 113.115 139.212C113.49 138.46 114.614 139.122 114.241 139.871ZM121.423 123.01C122.125 122.542 122.777 123.673 122.082 124.136C121.518 124.512 120.955 124.888 120.392 125.263C119.691 125.731 119.039 124.6 119.733 124.137C120.297 123.761 120.86 123.385 121.423 123.01ZM90.2688 152.49C90.1492 153.319 88.8926 152.964 89.0112 152.143C89.1945 150.874 89.4184 149.622 89.7625 148.386C89.9878 147.577 91.2454 147.923 91.02 148.733C90.6759 149.969 90.452 151.221 90.2688 152.49ZM85.6964 167.435C84.857 167.417 84.8569 166.112 85.6964 166.13C86.4561 166.146 87.2028 166.346 87.9356 166.529C88.7506 166.733 88.4031 167.991 87.5888 167.787C86.9694 167.632 86.3387 167.448 85.6964 167.435ZM84.0085 197.539C83.7202 197.679 83.4243 197.806 83.1328 197.939C82.5491 198.206 81.9656 198.473 81.3824 198.741C80.1673 199.299 78.9528 199.859 77.7395 200.421C75.3106 201.546 72.8629 202.631 70.4281 203.743C67.9452 204.878 65.4688 206.028 62.9956 207.183C61.8303 207.728 60.6563 208.252 59.4846 208.782C58.4827 209.235 57.2442 210.027 56.1444 210.102C56.0878 210.105 56.0689 210.034 56.1012 209.997C56.5167 209.524 57.1795 209.249 57.7256 208.942C58.2835 208.628 58.8517 208.333 59.4174 208.033C60.5966 207.408 61.7774 206.788 62.968 206.185C65.3497 204.979 67.7359 203.782 70.1226 202.587C72.5567 201.368 74.9878 200.14 77.4433 198.964C78.5994 198.41 79.7566 197.858 80.9145 197.308C81.5418 197.01 82.1694 196.712 82.797 196.415C83.0681 196.287 83.3364 196.148 83.6136 196.033C83.9818 195.881 84.2617 195.912 84.6415 195.818C85.261 195.665 85.5292 196.453 85.0536 196.796C84.6621 197.079 84.456 197.321 84.0085 197.539ZM75.3024 210.916C75.1686 210.591 75.4488 210.195 75.7579 210.114C76.1281 210.016 76.4249 210.241 76.5601 210.57C76.9176 211.44 77.4268 212.238 78.0823 212.912C78.6682 213.514 77.7465 214.437 77.1601 213.835C76.3387 212.99 75.7486 212.002 75.3024 210.916ZM68.8974 189.975C68.3028 189.381 69.2252 188.458 69.8195 189.053L71.5097 190.744C72.1042 191.338 71.1817 192.261 70.5875 191.666L68.8974 189.975ZM51.5575 187.219C50.3423 187.575 48.9251 187.903 48.0966 188.94C48.0562 188.991 47.9882 188.926 48.0125 188.875C49.0731 186.676 52.1146 185.904 54.2205 185.134C55.7099 184.588 57.2382 184.136 58.7794 183.732C58.6253 181.974 59.0501 180.089 59.1978 178.339C59.3554 176.47 59.4837 174.596 59.5496 172.722C59.6169 170.81 59.6332 168.885 59.5703 166.972C59.5077 165.067 59.2604 163.185 59.1522 161.285C59.1417 161.102 59.3973 161.093 59.4524 161.245C60.0924 163.007 60.3658 164.959 60.5741 166.818C60.7887 168.732 60.8599 170.641 60.8325 172.566C60.8042 174.546 60.6891 176.521 60.5311 178.495C60.4563 179.43 60.3694 180.364 60.2874 181.299C60.2248 182.012 60.1958 182.72 60.0504 183.41C60.9799 183.182 61.9115 182.966 62.8402 182.756C65.8016 182.088 68.7753 181.468 71.7242 180.745C73.1718 180.39 74.5987 179.965 76.0397 179.588C77.3967 179.232 78.8289 178.801 80.222 178.643C80.7192 178.586 80.7825 179.267 80.4534 179.498C79.3211 180.293 77.8172 180.847 76.5094 181.292C75.1968 181.739 73.8323 182.06 72.487 182.391C69.6813 183.081 66.8491 183.646 64.0211 184.233C61.197 184.821 58.3676 185.404 55.5753 186.128C54.2306 186.477 52.8904 186.827 51.5575 187.219ZM44.8988 152.316C44.1727 152.743 43.5172 151.615 44.2407 151.19C45.1873 150.634 46.1962 150.216 47.2133 149.809C47.9938 149.496 48.3296 150.759 47.56 151.067C46.646 151.433 45.7494 151.817 44.8988 152.316ZM42.2697 200.786C41.5416 201.208 40.8857 200.08 41.6116 199.659C42.6311 199.068 43.7476 198.674 44.8041 198.156C45.5557 197.788 46.2159 198.914 45.4622 199.283C44.4058 199.8 43.2892 200.194 42.2697 200.786ZM41.0872 173.272C41.7911 173.941 42.7305 174.256 43.6163 174.607C44.3887 174.914 44.05 176.175 43.2696 175.865C42.166 175.428 41.0418 175.028 40.165 174.195C39.555 173.615 40.4788 172.694 41.0872 173.272ZM48.8746 135.907C49.6484 136.21 49.3095 137.472 48.5278 137.165C47.6609 136.825 46.7656 136.566 45.8987 136.226C45.125 135.922 45.4638 134.661 46.2454 134.967C47.1124 135.308 48.0076 135.567 48.8746 135.907ZM62.6123 121.065C63.4346 120.927 63.7847 122.184 62.9591 122.323C61.9347 122.496 60.9259 122.699 59.9544 123.075C59.1698 123.378 58.8331 122.117 59.6076 121.817C60.5794 121.441 61.5881 121.238 62.6123 121.065ZM67.1515 157.201C66.3975 156.83 67.0591 155.705 67.8096 156.074C68.6005 156.463 69.42 156.764 70.283 156.948C71.1048 157.123 70.7548 158.38 69.9363 158.206C68.965 157.999 68.0409 157.638 67.1515 157.201ZM71.4386 136.846C72.2504 136.624 72.5937 137.882 71.7854 138.104C70.363 138.494 68.8987 138.697 67.4659 139.044C66.6494 139.241 66.304 137.983 67.1192 137.786C68.5519 137.438 70.0165 137.236 71.4386 136.846ZM89.6256 130.459C90.4511 130.611 90.0993 131.869 89.279 131.717C88.4057 131.555 87.5207 131.552 86.6354 131.552C85.7949 131.552 85.7963 130.247 86.6354 130.247C87.6412 130.248 88.6341 130.275 89.6256 130.459ZM148.94 137.274C146.81 137.071 144.676 136.907 142.539 136.785C142.439 136.78 142.341 136.774 142.242 136.769C142.231 136.746 142.216 136.725 142.201 136.702C141.503 135.678 140.99 134.654 140.545 133.496C140.119 132.393 139.707 131.257 139.052 130.262C138.304 129.129 137.295 128.242 136.189 127.473C135.519 127.924 134.896 128.453 134.326 129.013C133.727 129.602 132.805 128.68 133.404 128.09C133.91 127.593 134.451 127.133 135.022 126.718C134.362 126.317 133.69 125.94 133.033 125.565C130.573 124.161 128.055 122.863 125.484 121.676C124.289 121.123 123.08 120.632 121.862 120.135C121.206 119.867 120.559 119.523 119.904 119.213C119.951 118.75 119.813 118.232 119.457 117.927C119.195 117.703 118.991 117.62 118.678 117.462C118.608 117.437 118.566 117.423 118.546 117.415C118.561 117.418 118.603 117.431 118.673 117.454C118.84 117.53 118.853 117.507 118.712 117.387C118.704 117.123 118.184 116.565 118.065 116.293C117.651 115.358 117.522 114.37 116.911 113.519C116.068 112.346 114.653 111.903 113.334 112.3C113.198 110.89 113.162 109.417 112.63 108.158C112.616 108.124 112.568 108.109 112.547 108.147C111.993 109.091 111.946 110.143 111.903 111.232C111.862 112.255 111.901 113.3 112.035 114.316C111.95 114.381 111.864 114.443 111.774 114.504C111.354 114.781 110.901 114.994 110.425 115.153C109.518 115.453 108.568 115.583 107.618 115.629C105.164 115.746 102.636 115.498 100.223 115.078C97.7828 114.652 94.0416 114.013 91.8703 112.791C90.4372 111.986 89.1153 111.002 87.7752 110.05C88.2611 108.484 88.385 106.801 87.896 105.479C87.8373 105.321 87.5895 105.291 87.5422 105.479C87.2358 106.741 87.1461 108.01 86.7386 109.257C86.732 109.275 86.7255 109.295 86.719 109.313C86.5919 109.226 86.4647 109.142 86.3375 109.057C86.0441 108.863 85.6447 109.008 85.4687 109.285C82.6532 113.722 78.1949 113.977 73.5131 114.77C68.3894 115.637 63.2399 116.573 58.3136 118.271C53.6025 119.895 49.1 122.26 45.5332 125.792C44.7258 126.592 43.9707 127.444 43.258 128.333C43.9476 128.42 44.6314 128.556 45.3065 128.768C46.1057 129.019 45.7623 130.278 44.9597 130.026C44.0922 129.753 43.215 129.618 42.3288 129.551C39.9053 132.868 38.0156 136.629 36.3816 140.33C33.2473 147.428 31.2071 154.986 30.2683 162.681C30.7838 162.372 31.3085 162.078 31.8463 161.804C32.5936 161.424 33.2526 162.55 32.5046 162.931C31.6738 163.353 30.8669 163.819 30.0851 164.324C29.7436 167.693 29.6112 171.083 29.6914 174.468C29.8821 182.537 30.9711 190.842 33.4342 198.541C34.6422 202.32 36.243 206.068 38.6279 209.261C39.7071 210.707 40.9329 212.012 42.3773 213.099C43.0766 213.628 43.8167 214.099 44.5975 214.497C45.6033 215.012 46.914 215.182 47.7812 215.911C48.0665 216.151 48.2866 216.467 48.4528 216.824C48.3567 217.503 48.3452 218.183 48.5311 218.861C48.5898 219.073 48.7495 219.246 48.9468 219.329C48.95 219.388 48.95 219.445 48.95 219.5C48.95 219.526 48.9892 219.533 48.994 219.507C49.0022 219.456 49.0103 219.406 49.0185 219.354C49.0821 219.375 49.1489 219.385 49.2174 219.385C51.6936 219.394 54.1729 219.334 56.6523 219.249C56.4606 218.662 56.2529 218.079 56.0536 217.492C55.7828 216.694 57.0427 216.354 57.3111 217.145C57.5443 217.832 57.7882 218.513 58.0052 219.202C60.6618 219.103 63.3177 218.985 65.9688 218.897C71.6075 218.709 77.2446 218.647 82.8847 218.529C91.6437 218.343 100.466 217.962 109.239 218.334C109.542 217.69 109.882 217.061 110.204 216.426C110.584 215.676 111.708 216.337 111.33 217.084C111.106 217.526 110.874 217.961 110.654 218.402C112.431 218.494 114.206 218.616 115.977 218.783C118.999 219.066 121.992 219.57 125.011 219.884C128.081 220.203 131.084 220.146 134.129 219.639C134.676 219.548 134.999 219.217 135.133 218.806C135.138 218.804 135.141 218.801 135.144 218.796C135.301 218.613 135.447 218.462 135.599 218.329C135.78 218.212 135.976 218.112 136.206 218.024C136.634 217.861 137.081 217.762 137.534 217.695C138.033 217.62 138.538 217.613 139.037 217.552C139.457 217.498 139.868 217.418 140.279 217.32C141.018 217.144 141.719 216.914 142.416 216.609C143.024 216.343 143.574 215.962 144.092 215.546C145.165 214.761 146.094 213.76 146.906 212.719C147.379 212.111 147.824 211.48 148.228 210.823C148.932 209.685 149.532 208.502 150.138 207.31C150.358 206.957 150.559 206.595 150.743 206.226C149.558 205.877 148.361 205.592 147.105 205.572C146.265 205.558 146.265 204.253 147.105 204.267C148.546 204.29 149.909 204.627 151.263 205.028C151.329 204.853 151.392 204.676 151.451 204.497C151.612 204.124 151.746 203.74 151.857 203.352C151.922 203.176 151.987 203 152.052 202.824C152.199 202.214 152.346 201.602 152.494 200.991C152.789 200.012 153.022 199.019 153.193 198.013C153.337 197.351 153.448 196.684 153.523 196.009C153.751 194.373 153.937 192.741 153.95 191.087C153.93 190.068 153.865 189.05 153.754 188.037C153.707 187.349 153.627 186.664 153.519 185.984C153.379 184.973 153.241 183.972 153.007 182.974C152.833 182.299 152.659 181.624 152.484 180.948C152.049 179.541 151.535 178.161 150.944 176.813C150.911 176.728 150.746 176.542 150.647 176.54C150.572 176.539 150.468 176.607 150.502 176.699C150.505 176.707 150.508 176.717 150.512 176.725C150.477 176.648 150.445 176.57 150.411 176.493C150.381 176.421 150.267 176.278 150.179 176.28C150.174 176.28 150.169 176.28 150.163 176.281C150.186 176.265 150.207 176.244 150.228 176.219C150.813 175.526 151.193 174.614 151.612 173.812C151.959 173.15 152.287 172.452 152.381 171.703C152.464 171.046 152.352 170.399 151.94 169.867C151.47 169.262 150.587 168.978 151.077 168.104C151.635 167.11 152.455 166.247 151.638 165.117C151.222 164.541 150.564 164.225 150.075 163.724C149.512 163.145 149.245 162.37 149.26 161.58C149.294 161.599 149.34 161.589 149.356 161.54C149.829 160.112 149.486 158.543 149.002 157.152C148.738 156.397 148.179 156.19 147.529 156.152C150.345 150.649 152.981 145.056 155.33 139.336C155.409 139.148 155.485 138.961 155.562 138.773C155.676 138.492 155.435 138.119 155.156 138.057C153.125 137.612 151.009 137.47 148.94 137.274Z" fill="black"/>
<path fill-rule="evenodd" clip-rule="evenodd" d="M127.095 74.1918C125.978 60.5462 122.579 48.4604 106.603 47.9451C99.3942 48.0097 92.0351 49.5451 85.4056 52.3859C69.2921 60.4854 64.1795 90.0811 78.376 101.995C78.2915 102.043 78.2712 102.182 78.3709 102.249C81.3039 104.227 84.564 105.855 87.8291 107.222C96.5265 110.909 106.765 112.51 115.635 108.511C129.171 102.737 129.375 86.6695 127.095 74.1918Z" fill="white"/>
<path fill-rule="evenodd" clip-rule="evenodd" d="M153.739 67.8316C154.296 67.3293 154.71 66.6705 154.92 65.9318C155.112 65.2582 155.125 64.5227 154.922 63.8509C154.704 63.1301 154.234 62.556 154.339 61.8059C154.351 61.7325 154.366 61.6558 154.388 61.5792C154.795 60.1669 155.795 59.1477 155.438 57.5821C155.337 57.1402 155.146 56.7423 154.881 56.4291C154.91 56.0899 154.936 55.7475 154.958 55.405C155.545 54.027 155.524 52.3897 154.897 51.0329C154.821 50.3381 154.705 49.6499 154.543 48.9732C154.618 48.3747 154.514 47.7158 154.322 47.1923C153.984 46.2713 153.568 45.3636 153.115 44.4709C153.169 44.2268 153.145 43.9688 153.01 43.7393C152.766 43.3223 152.443 42.9557 152.113 42.5974C151.88 42.1795 151.645 41.7649 151.411 41.3558C151.303 41.1677 151.184 40.9591 151.053 40.7382C151.411 40.0718 151.602 39.4225 151.223 38.6389C151.081 38.3445 150.69 38.1274 150.367 38.1467C150.015 38.1677 149.66 38.1835 149.302 38.1971C148.634 37.3885 147.878 36.6627 147.066 36.2449C146.245 35.5469 145.412 34.862 144.602 34.1623C144.373 33.9634 144.142 33.7644 143.912 33.5655C143.911 33.5606 143.909 33.5541 143.907 33.5492C143.738 32.9311 143.548 32.3212 143.358 31.708C143.239 31.328 143.203 30.9301 142.834 30.723C142.063 30.2908 140.877 30.2224 139.992 30.149C139.904 30.0707 139.816 29.994 139.728 29.9158C140.13 28.8427 140.059 27.7028 139.553 26.6281C139.38 26.2628 138.782 26.0981 138.453 26.3394C137.695 26.8972 136.795 27.0945 135.906 27.013C134.598 26.0051 129.322 21.4477 128.507 20.9666C128.497 20.9494 128.489 20.9321 128.478 20.9149C128.02 20.1814 127.463 19.5924 126.838 19.1201C126.749 19.0267 126.659 18.9331 126.57 18.8394C126.648 18.2802 126.855 17.7403 127.188 17.2886C127.224 17.2364 127.265 17.1858 127.305 17.1369C127.888 16.4422 127.177 15.5485 126.363 15.9122C126.305 15.9383 126.246 15.9644 126.188 15.9921C125.562 16.2716 124.87 16.5754 124.15 16.8318C123.886 16.7328 123.618 16.6431 123.372 16.5443L120.748 15.4864C120.316 15.3122 119.859 15.1646 119.441 14.96C119.295 13.9882 118.324 13.3509 117.315 13.3841C117.373 13.1976 117.46 13.0164 117.582 12.8447C117.618 12.7941 117.657 12.7452 117.698 12.6979C118.217 12.0929 117.524 10.9709 116.782 11.509C116.73 11.5466 116.676 11.5841 116.624 11.6216C116.418 11.7665 116.207 11.9026 115.994 12.0343C115.652 11.8849 115.268 11.8509 114.865 12.0089C113.974 12.3587 113.153 12.7144 112.368 13.2626C112.336 13.285 112.303 13.3037 112.271 13.3248C111.882 12.8531 111.263 12.5377 110.707 12.5412C110.695 12.5412 110.686 12.541 110.676 12.5408C110.26 11.905 109.497 11.5355 108.76 11.6253C108.81 10.7129 107.899 9.89864 107.069 9.79965C106.1 9.68419 105.226 10.2483 104.936 11.1961C104.855 11.46 104.774 11.724 104.693 11.988C103.94 11.6072 103.146 11.3155 102.316 11.1698C100.427 10.8381 98.5802 11.1914 96.7598 11.7171C96.5779 11.7696 96.3962 11.8236 96.2145 11.8774C95.9549 11.5759 95.7113 11.2672 95.4786 10.979C95.0768 10.4816 94.1121 10.8796 94.1772 11.5188C94.2224 11.96 94.0436 12.2773 93.7559 12.5028C93.4398 12.5492 93.1343 12.5632 92.6736 12.5539C92.0647 12.5415 91.7877 12.5224 91.151 12.2736C90.8543 12.1578 90.4849 11.8533 90.312 11.58C89.6491 10.5319 87.9653 10.2496 87.1633 11.2489C86.3194 10.8786 85.2539 11.3893 84.7854 12.1095C84.5402 12.4861 84.0288 12.6966 83.3849 12.8776C82.9016 13.0133 82.4074 13.116 81.911 13.2059C81.6897 12.905 81.2239 12.7033 80.8821 12.9556C80.6506 13.127 80.4258 13.3029 80.2041 13.4833C78.4944 13.7194 76.7937 13.7279 75.1635 13.0596C73.7834 12.4937 72.5162 14.0392 72.744 15.3367C72.3443 15.5452 71.9106 15.684 71.5158 15.9026C70.6545 16.3797 69.9472 17.134 69.5161 18.0201C69.4388 18.1788 69.369 18.3399 69.3025 18.5019C68.9806 18.7646 68.6622 19.0343 68.3515 19.3189C67.8342 19.0531 67.3186 18.7873 66.8013 18.5214C66.4141 18.3225 65.7618 18.4611 65.6853 18.9764C65.5601 19.8244 65.2559 20.5273 64.8216 21.116C63.4096 21.8597 62.0513 22.6946 60.7515 23.6225C59.2566 24.0922 57.6673 24.3662 56.361 24.6744C55.9137 24.7804 55.6697 25.3659 55.9218 25.7556C56.1886 26.1682 56.4554 26.5808 56.7205 26.9934C55.9771 27.7207 55.2793 28.4807 54.6205 29.2667C52.7871 31.452 51.2532 33.8476 49.8802 36.3851C49.3369 36.6053 48.7936 36.8238 48.2503 37.0439C47.7264 37.2559 47.4906 37.8659 47.9151 38.3143C48.1169 38.528 48.2974 38.753 48.452 38.9895C47.6825 40.2664 46.7765 41.4308 45.5092 42.194C45.1237 42.4256 44.8342 42.7892 44.6796 43.2018C44.5479 43.2899 44.4177 43.3845 44.2892 43.4807C43.9313 43.7514 43.715 44.3417 44.1347 44.6923C44.4291 44.9402 44.7056 45.2338 44.9399 45.5583C44.9903 45.7426 45.0424 45.9285 45.0944 46.1128C43.9167 47.1989 42.9374 48.4611 42.2021 49.8766C42.0281 49.8489 41.8491 49.8668 41.7044 49.9745C40.39 50.9481 40.3509 52.4989 40.8796 53.8851C40.5608 55.9742 40.7658 58.1154 41.3806 60.1392C40.5722 60.9481 40.0858 62.1157 39.8873 63.2409C39.5376 65.2175 39.5132 68.2573 39.4221 70.2745C38.5404 71.1274 37.9125 72.2315 37.5628 73.4187C37.2683 73.5655 36.9739 73.7122 36.6795 73.859C36.4176 73.9895 36.2256 74.3336 36.2419 74.6239C36.3167 76.028 36.8942 77.1369 37.6604 78.1415C37.932 78.9161 38.3338 79.6304 38.8609 80.3153C39.2253 80.785 39.5815 81.2351 39.8955 81.7423C39.928 81.7928 39.9475 81.8401 39.9622 81.8727C39.8385 82.0064 39.736 82.2282 39.6466 82.3864C38.895 83.7139 38.8836 85.2697 39.9508 86.4259C39.549 86.7553 39.536 87.4207 39.8906 87.8284C42.1989 90.4719 44.1233 93.6862 47.3263 95.0903C47.3409 95.1147 47.3539 95.1392 47.3653 95.1637C46.7163 96.7292 46.6284 97.543 47.1587 99.1607C47.162 99.1754 47.1669 99.1884 47.1717 99.2031C47.4548 100.051 47.9753 101.41 48.9139 101.674C49.21 101.757 49.5012 101.794 49.7891 101.793C50.5342 102.512 51.2776 103.233 52.021 103.954C52.086 104.311 52.1267 104.671 52.1397 105.035C52.1609 105.643 52.7318 106.136 53.3467 105.956C53.5631 105.893 54.7603 104.727 54.98 104.733C55.0906 104.844 55.1979 104.955 55.3053 105.067C55.7006 105.483 56.2488 106.139 56.2943 106.574C56.3822 107.395 56.919 108.334 57.786 108.5C58.1114 108.831 58.6319 108.931 59.0305 108.499C59.0565 108.471 59.0825 108.443 59.1102 108.419C59.1525 108.414 59.1931 108.409 59.2354 108.404C59.4274 108.978 59.6193 109.552 59.8129 110.125C60.1919 111.253 61.6397 111.979 62.6678 111.32C62.8337 111.419 62.9964 111.525 63.1591 111.631C63.4063 111.79 63.6568 111.951 63.9139 112.103C63.9285 112.145 63.9431 112.187 63.9562 112.228C64.1221 112.735 64.8118 113.008 65.2364 112.716C65.3681 112.758 65.5032 112.792 65.6398 112.82C66.3572 112.962 67.0794 112.923 67.7724 112.683C68.2686 112.514 68.7419 112.189 69.2755 112.145C69.3088 112.142 69.3432 112.145 69.377 112.144C69.8123 113.038 70.807 113.808 71.591 114.07C72.6177 114.413 73.6686 114.29 74.6036 113.87C74.8559 114.376 75.1728 114.855 75.5513 115.297C75.7612 115.542 76.1402 115.49 76.3566 115.297C76.7675 114.932 77.1758 114.565 77.5834 114.198C77.8785 114.084 78.1764 113.947 78.4871 113.82C79.4589 113.422 80.5242 113.257 81.423 112.682C81.8496 112.409 82.251 112.061 82.5815 111.657C83.2042 111.297 83.7763 110.848 84.2917 110.333C84.5487 110.335 84.8171 110.275 85.0774 110.142C86.1656 109.588 86.7382 108.459 86.7887 107.305C87.6703 105.226 88.1909 103.008 88.334 100.738C88.3796 99.9924 88.3877 99.2406 88.3308 98.4954C88.2918 97.9702 88.16 97.6196 87.9615 97.1451C87.8948 96.9901 87.8346 96.8483 87.7875 96.6917C87.7989 96.1894 87.8054 95.6871 87.8119 95.1865C87.9469 94.7641 88.1876 94.3711 88.5227 94.04C89.0417 93.528 89.2792 92.4647 88.8074 91.832C88.5 91.4226 88.1941 91.0133 87.8867 90.604C87.9729 88.8476 88.3926 86.0524 87.4621 85.7589C87.4995 85.498 87.5793 85.2403 87.6248 84.981C87.8428 83.7351 87.7126 82.6213 87.0522 81.5319C86.9139 81.3052 86.7968 81.1046 86.7008 80.9089C86.6406 80.5501 86.5804 80.1914 86.5203 79.8326C86.4275 79.2798 86.3364 78.722 86.2584 78.161C86.2177 77.4468 86.1803 76.7325 86.1396 76.0166C86.1022 75.3577 86.0599 74.6989 86.016 74.0384C86.0339 73.7432 86.0599 73.4481 86.0973 73.1529C86.3202 71.3933 87.0376 70.7426 88.2804 69.5195C88.4756 69.4885 88.6691 69.4543 88.8595 69.4151C89.746 69.2308 90.6733 68.9454 91.5858 69.0482C92.5765 69.1591 93.4631 69.588 94.4261 69.04C94.7091 68.877 95.3322 68.4269 95.3858 68.0697C95.3891 68.0469 95.394 68.0273 95.4005 68.0126C95.4672 68.0029 95.5534 67.9947 95.6071 67.9931C96.3716 67.967 97.102 68.2687 97.8731 68.1855C98.7857 68.0877 99.6023 67.6816 100.139 67.0798C100.827 67.2494 101.53 67.3261 102.244 67.2315C102.843 67.1532 103.379 66.9575 103.91 66.6672C104.295 66.4585 104.173 66.3982 104.593 66.5678C105.548 66.9559 106.412 67.468 107.487 67.2021C108.045 67.0652 108.526 66.7635 108.931 66.3574C109.027 66.2628 109.19 66.1209 109.299 65.9872C109.81 66.2465 111.095 66.8319 111.306 66.8841C111.905 67.0309 112.54 67.0081 113.122 66.8124C113.55 66.6689 114.074 66.2775 114.449 66.1976C114.936 66.0932 116.016 66.7716 116.597 67.0048C117.615 67.4141 118.693 67.5152 119.725 67.0929C120.079 66.9477 120.769 66.3688 121.034 66.3737C121.465 66.907 122.669 69.8244 123.03 70.8894C124.493 75.1946 124.872 88.6372 124.197 92.0668C124.17 92.1679 124.143 92.2674 124.115 92.3685C123.286 95.3512 122.422 98.3845 121.034 101.163C119.725 103.782 117.914 106.14 115.316 107.571C112.622 109.055 109.46 109.444 106.431 109.244C104.481 109.117 102.563 108.724 100.676 108.231C99.6901 107.975 98.7125 107.69 97.7397 107.393C97.3151 107.264 96.884 107.143 96.4676 106.993C95.7323 106.728 95.3468 106.706 94.6424 107.047C94.0015 107.357 93.8372 108.272 94.1707 108.848C94.714 109.787 95.7096 109.852 96.6709 110.126C97.6502 110.405 98.6328 110.672 99.6218 110.912C101.517 111.369 103.443 111.719 105.385 111.881C108.863 112.173 112.447 111.723 115.612 110.201C115.97 110.028 116.315 109.844 116.649 109.645C116.525 109.818 116.4 109.991 116.273 110.162C115.921 110.637 116.182 111.444 116.675 111.703C116.831 111.785 116.987 111.863 117.145 111.94C117.166 111.99 117.189 112.041 117.215 112.091C117.665 112.998 118.609 113.533 119.57 113.764C120.712 114.038 121.991 113.844 123.152 113.81C124.229 113.777 125.306 113.745 126.381 113.712C126.635 113.706 126.889 113.698 127.142 113.689C128.421 113.65 129.698 113.613 130.975 113.574C132.114 113.539 132.06 113.627 133.129 113.171C133.605 112.965 133.996 112.675 134.324 112.289C134.529 112.197 134.728 112.093 134.918 111.974C135.53 111.592 136.073 111.08 136.574 110.516C137.425 110.785 138.617 110.535 138.783 109.464C139.05 107.75 141.272 107.018 142.31 105.778C143.148 104.779 143.746 103.469 143.715 102.212C145.827 101.188 146.975 98.4888 147.244 96.1992C147.369 95.1376 147.35 94.0009 147.53 92.9213C147.61 92.8349 147.681 92.7436 147.742 92.6457C148.272 91.7863 148.734 90.9008 149.141 89.994C149.694 89.5945 150.359 89.3483 151.055 89.3075C152.766 89.208 153.089 86.8939 151.457 86.3362C151.449 86.3329 151.442 86.3313 151.434 86.328C151.877 85.2191 151.839 83.9063 151.302 82.8561C151.325 82.7419 151.346 82.6294 151.367 82.5153C152.283 81.5286 152.809 80.1571 152.75 78.8215C153.168 78.5263 153.637 78.298 154.149 78.1562C154.941 77.9376 154.946 76.9689 154.361 76.5351C154.125 76.3606 153.93 76.1568 153.767 75.9318C154.172 74.7119 154.013 73.3013 153.185 72.3C153.71 71.6248 154.235 70.9497 154.761 70.2745C155.109 69.8277 155.293 69.0694 154.761 68.6454C154.421 68.373 154.081 68.1023 153.739 67.8316Z" fill="black"/>
<path fill-rule="evenodd" clip-rule="evenodd" d="M115.502 93.173C116.061 92.1858 117.73 92.3462 117.985 93.4977C118.503 95.832 115.72 97.9876 113.607 98.0414C111.507 98.0948 109.15 96.3066 109.454 94.048C109.529 93.4893 110.275 93.5571 110.53 93.9074L110.628 94.0418C111.319 94.97 112.231 95.9308 113.512 95.7045C114.044 95.6109 114.526 95.2789 114.847 94.8515C115.235 94.3356 115.192 93.7197 115.502 93.173ZM102.148 76.0953C102.432 76.0169 102.72 76.0472 102.972 76.1545C103.535 76.2577 104.005 76.7274 104.17 77.2636C104.183 77.31 104.198 77.3559 104.214 77.4012L104.239 77.4689L104.172 77.2971C104.203 77.4663 104.341 77.6442 104.39 77.8142C104.451 78.0231 104.466 78.2604 104.445 78.4903C104.624 78.4921 104.803 78.4981 104.982 78.5136L105.155 78.5291C106.12 78.6189 107.18 78.7835 107.753 79.6182C108.074 80.0872 107.772 80.9316 107.182 81.0219C106.273 81.161 105.489 80.6578 104.583 80.557C103.727 80.4616 102.831 80.5162 101.985 80.671C100.24 80.9902 98.6361 81.6979 96.9352 82.142L96.7036 82.2008L96.7039 82.1997C96.4125 82.2701 96.0816 81.8647 96.3699 81.6276C97.7326 80.5077 99.4772 79.6002 101.196 79.0475C100.945 78.6491 100.868 78.1243 101.039 77.6966C101.066 77.6079 101.099 77.5218 101.133 77.4358L101.206 77.2591C101.213 77.1757 101.229 77.0934 101.252 77.0126L101.255 76.988L101.258 76.9895C101.386 76.5735 101.72 76.2134 102.148 76.0953ZM119.532 76.1597C119.905 75.7867 120.429 75.8418 120.818 76.1354L120.869 76.1759C121.236 76.3388 121.539 76.6948 121.738 77.0247C121.945 77.3673 122.083 77.7163 122.088 78.0935C122.99 78.0964 123.854 78.3671 124.517 79.0958C124.731 79.3309 124.877 79.6936 124.759 80.0124L124.689 80.2021C124.467 80.8043 123.467 81.1509 123.127 80.4428L123.111 80.4082C122.75 79.5674 121.364 79.6556 120.627 79.7416C120.114 79.8017 119.607 79.9294 119.111 80.0725C118.936 80.1229 118.763 80.1776 118.59 80.2334L118.417 80.2895C118.325 80.3194 117.844 80.5805 118.143 80.5186C118.223 80.502 118.284 80.6191 118.202 80.6584C117.846 80.8288 117.465 80.4895 117.489 80.1065C117.53 79.4419 118.585 79.0774 119.093 78.8482L119.124 78.8344C119.318 78.7443 119.522 78.6581 119.733 78.578C119.614 78.4019 119.516 78.2062 119.435 77.9961C119.358 77.7978 119.307 77.6051 119.279 77.3942C119.251 77.2912 119.251 77.1881 119.279 77.0849L119.283 77.0553C119.268 76.9872 119.262 76.9167 119.263 76.8458L119.26 76.8182H119.263C119.273 76.5699 119.371 76.321 119.532 76.1597ZM113.578 83.2381C115.01 83.6807 117.372 84.8864 116.625 86.7472C115.584 88.4563 112.821 87.2003 111.482 86.6481C110.279 86.2495 109.653 87.9359 110.816 88.4442C120.427 92.2481 120.392 82.2091 113.926 82.3565C113.214 82.3727 113.192 83.091 113.578 83.2381ZM100.862 70.1482L101.106 70.0769C102.375 69.7092 103.671 69.0742 104.797 70.065C105.24 70.4541 105.331 71.2627 105.014 71.748C104.293 72.8538 103.224 72.6849 102.059 72.7791C101.172 72.8509 100.298 73.1115 99.4707 73.4372C98.7941 73.7035 98.1667 74.0784 97.5743 74.4965C96.9923 74.9076 96.5947 75.5503 95.9978 75.9204C95.779 76.056 95.5263 75.9165 95.4478 75.6965C95.1693 74.9161 95.6398 73.944 96.0379 73.2791C96.5238 72.468 97.262 71.8046 98.0557 71.3026C98.9248 70.7529 99.8859 70.4355 100.862 70.1482ZM119.354 69.3086C121.499 69.3079 123.563 70.5015 124.763 72.2512C125.171 72.8456 124.872 73.7262 124.287 74.0685C123.63 74.4527 122.928 74.1761 122.495 73.6255L122.47 73.5922C121.782 72.6755 120.895 71.9536 119.843 71.4836C119.33 71.2541 118.763 71.068 118.208 70.9736L118.029 70.9429C117.777 70.9007 117.486 70.8605 117.258 70.8999C117.137 70.9159 117.025 70.9562 116.922 71.0175C116.971 71.1258 116.843 71.2562 116.725 71.1913C116.192 70.8984 116.258 70.3759 116.698 69.9699C117.321 69.3953 118.549 69.3087 119.354 69.3086Z" fill="black"/>
<path fill-rule="evenodd" clip-rule="evenodd" d="M114.586 89.5838C112.773 88.7669 109.517 89.4797 108.335 89.7632C105.588 90.4223 102.824 91.8468 101.97 94.0786C101.007 96.5937 102.928 97.3855 103.21 97.2562C105.112 97.3902 107.377 96.194 109.37 95.8853C110.989 95.6325 112.695 95.4119 114.212 94.5518C115.318 95.1609 117.818 95.4902 119.836 96.0228C121.554 96.4762 122.299 97.4594 123.892 97.2503C125.801 96.9998 125.02 92.9827 122.892 91.3553C120.563 89.5743 116.624 88.8521 114.586 89.5838ZM118.175 106.76C116.589 107.147 116.483 103.669 116.305 102.441C116.166 101.481 115.383 99.0054 113.398 99.1122C111.414 99.219 110.667 101.293 110.768 102.583C110.833 103.419 111.604 107.656 109.144 108.192C107.576 108.187 105.762 108.081 104.114 107.777C102.173 107.337 99.6498 105.798 98.9833 108.829C98.7434 109.92 107.292 113.162 111.085 113.455C114.932 114.235 119.432 113.036 122.171 110.092C122.794 109.422 124.549 106.642 124.674 105.961C124.937 104.53 124.329 103.609 122.559 104.114C121.309 104.781 119.195 106.511 118.175 106.76Z" fill="black"/>
<path fill-rule="evenodd" clip-rule="evenodd" d="M128.996 84.2234C127.016 86.2692 123.712 86.8563 121.079 85.7591C114.318 82.9331 117.627 74.1187 122.842 71.7516C123.493 71.5891 124.363 71.2038 125.157 71.1164C125.228 71.0812 125.385 71.1831 125.574 71.0867C131.324 71.7289 132.633 80.6578 128.996 84.2234ZM107.188 84.747C104.968 87.6924 100.841 88.6011 97.4693 87.2318C90.8082 84.6076 93.1708 76.7914 97.7282 73.7271C107.355 70.1082 111.331 79.3163 107.188 84.747ZM92.7479 78.2209C92.7417 78.218 92.7355 78.2165 92.7292 78.2136C92.7644 78.1981 92.7996 78.1826 92.8346 78.1668C92.8232 78.1966 92.8108 78.2261 92.7998 78.256C92.7825 78.2441 92.7673 78.2302 92.7479 78.2209ZM133.578 75.0371C133.035 75.0383 132.25 75.1276 131.8 75.5048C130.69 71.7617 126.595 68.2974 123.034 70.8235C120.229 71.7258 118.148 73.7269 116.965 76.3874C114.832 75.1183 111.479 75.6602 109.629 77.3385C108.418 73.3347 105.437 71.9328 101.889 71.7258C98.0164 71.0913 94.1565 74.8537 92.9522 77.8719C91.9508 77.7579 90.4544 77.4391 89.5124 78.0573C83.3982 76.4533 72.7085 75.5689 71.4655 76.4601C70.5796 76.8002 70.0935 78.8918 71.3308 79.0047C72.409 78.8515 71.205 77.4721 72.2918 77.3215C78.0826 76.9624 83.7042 78.1291 89.4336 78.6187C89.9452 79.307 91.598 79.5373 92.4797 79.2607C91.091 84.3807 94.0889 87.8641 98.5808 88.9075C105.536 90.5058 111.587 84.2814 109.769 77.8072C111.876 76.7586 114.299 76.8036 116.594 77.3559C112.759 91.4769 135.493 90.8434 131.942 75.9887C134.305 77.1645 134.818 75.2744 133.578 75.0371Z" fill="black"/>
</svg>
