<svg width="20" height="20" viewBox="0 0 20 20" fill="none" xmlns="http://www.w3.org/2000/svg">
<path fill-rule="evenodd" clip-rule="evenodd" d="M16.1538 7.26667C16.498 7.295 16.7547 7.59583 16.7272 7.94C16.7222 7.99667 16.2705 13.5892 16.0105 15.935C15.8488 17.3908 14.8872 18.2767 13.4355 18.3033C12.3247 18.3225 11.253 18.3333 10.2055 18.3333C9.07633 18.3333 7.9755 18.3208 6.88633 18.2983C5.493 18.2708 4.52883 17.3675 4.37133 15.9408C4.10883 13.5742 3.65967 7.99583 3.6555 7.94C3.62717 7.59583 3.88383 7.29417 4.228 7.26667C4.56717 7.2575 4.87383 7.49583 4.90133 7.83917C4.90399 7.87534 5.08762 10.1534 5.28772 12.4073L5.32791 12.857C5.42869 13.9774 5.53085 15.0539 5.61383 15.8033C5.703 16.6142 6.1405 17.0325 6.91217 17.0483C8.9955 17.0925 11.1213 17.095 13.413 17.0533C14.233 17.0375 14.6763 16.6275 14.768 15.7975C15.0263 13.4692 15.4763 7.89583 15.4813 7.83917C15.5088 7.49583 15.813 7.25583 16.1538 7.26667ZM11.9545 1.66692C12.7195 1.66692 13.392 2.18275 13.5895 2.92192L13.8012 3.97275C13.8696 4.31723 14.1719 4.5688 14.5219 4.57432L17.2567 4.57442C17.6017 4.57442 17.8817 4.85442 17.8817 5.19942C17.8817 5.54442 17.6017 5.82442 17.2567 5.82442L14.5463 5.82429C14.5421 5.82437 14.5379 5.82442 14.5337 5.82442L14.5133 5.82358L5.86802 5.82431C5.86129 5.82438 5.85457 5.82442 5.84783 5.82442L5.835 5.82358L3.125 5.82442C2.78 5.82442 2.5 5.54442 2.5 5.19942C2.5 4.85442 2.78 4.57442 3.125 4.57442L5.85917 4.57358L5.94335 4.56825C6.25692 4.52757 6.51753 4.28942 6.58117 3.97275L6.78367 2.95942C6.9895 2.18275 7.662 1.66692 8.427 1.66692H11.9545ZM11.9545 2.91692H8.427C8.227 2.91692 8.05117 3.05108 8.00033 3.24358L7.80617 4.21858C7.78149 4.34208 7.74556 4.46109 7.69957 4.57464H12.6822C12.6361 4.46109 12.6001 4.34208 12.5753 4.21858L12.3728 3.20525C12.3303 3.05108 12.1545 2.91692 11.9545 2.91692Z" fill="#9764C7"/>
</svg>
