<svg width="40" height="40" viewBox="0 0 48 48" fill="none" xmlns="http://www.w3.org/2000/svg">
<path d="M24.9456 4.99199C24.6468 4.8639 24.3251 4.79785 24 4.79785C23.6749 4.79785 23.3532 4.8639 23.0544 4.99199L6.25438 12.192C5.82144 12.3764 5.45228 12.6841 5.1928 13.0766C4.93333 13.4692 4.79498 13.9294 4.79498 14.4C4.79498 14.8706 4.93333 15.3308 5.1928 15.7233C5.45228 16.1159 5.82144 16.4236 6.25438 16.608L12.6 19.3224C12.8355 19.056 13.1274 18.8453 13.4544 18.7056L23.0544 14.592C23.3449 14.4625 23.6582 14.3921 23.9762 14.3847C24.2942 14.3774 24.6104 14.4334 24.9066 14.5494C25.2027 14.6653 25.4728 14.839 25.7013 15.0603C25.9297 15.2816 26.1119 15.5461 26.2372 15.8384C26.3626 16.1307 26.4285 16.445 26.4313 16.7631C26.4341 17.0811 26.3736 17.3965 26.2535 17.691C26.1333 17.9855 25.9558 18.2531 25.7312 18.4784C25.5067 18.7036 25.2397 18.882 24.9456 19.0032L18.4008 21.8112L23.0568 23.8056C23.3552 23.9333 23.6765 23.9992 24.0012 23.9992C24.3258 23.9992 24.6471 23.9333 24.9456 23.8056L41.7456 16.6056C42.1771 16.4205 42.5448 16.1128 42.8032 15.7208C43.0616 15.3288 43.1994 14.8695 43.1994 14.4C43.1994 13.9304 43.0616 13.4712 42.8032 13.0792C42.5448 12.6871 42.1771 12.3795 41.7456 12.1944L24.9456 4.99439V4.99199ZM7.94398 22.5528L12 24.288V34.1328C11.169 33.9438 10.3275 33.8044 9.47998 33.7152C8.93313 33.6577 8.42259 33.4142 8.03378 33.0254C7.64496 32.6366 7.40145 32.126 7.34398 31.5792C7.02835 28.5574 7.23127 25.5039 7.94398 22.5504V22.5528ZM22.32 39.7752C20.6976 38.1833 18.8348 36.8567 16.8 35.844V26.3472L21.1632 28.2192C22.0596 28.6034 23.0247 28.8016 24 28.8016C24.9753 28.8016 25.9404 28.6034 26.8368 28.2192L40.056 22.5528C40.7729 25.5056 40.9758 28.5599 40.656 31.5816C40.5985 32.1284 40.355 32.639 39.9662 33.0278C39.5774 33.4166 39.0668 33.6601 38.52 33.7176C33.678 34.2264 29.1517 36.3619 25.68 39.7752C25.2313 40.2149 24.6282 40.4612 24 40.4612C23.3718 40.4612 22.7686 40.2149 22.32 39.7752ZM14.4 43.2C15.0365 43.2 15.6469 42.9471 16.097 42.497C16.5471 42.047 16.8 41.4365 16.8 40.8V35.844C15.2736 35.0857 13.6622 34.512 12 34.1352V40.8C12 41.4365 12.2528 42.047 12.7029 42.497C13.153 42.9471 13.7635 43.2 14.4 43.2Z" fill="#9764C7"/>
</svg>
