<svg width="24" height="25" viewBox="0 0 24 25" fill="none" xmlns="http://www.w3.org/2000/svg">
<path d="M12 14.6264C12.6365 14.6264 13.2469 14.3736 13.697 13.9235C14.1471 13.4734 14.4 12.8629 14.4 12.2264C14.4 11.5899 14.1471 10.9794 13.697 10.5294C13.2469 10.0793 12.6365 9.82642 12 9.82642C11.3635 9.82642 10.753 10.0793 10.3029 10.5294C9.85283 10.9794 9.59998 11.5899 9.59998 12.2264C9.59998 12.8629 9.85283 13.4734 10.3029 13.9235C10.753 14.3736 11.3635 14.6264 12 14.6264Z" fill="#9764C7"/>
<path fill-rule="evenodd" clip-rule="evenodd" d="M0.549622 12.2264C2.07842 7.35802 6.62642 3.82642 12 3.82642C17.3736 3.82642 21.9216 7.35802 23.4504 12.2264C21.9216 17.0948 17.3736 20.6264 12 20.6264C6.62642 20.6264 2.07842 17.0948 0.549622 12.2264ZM16.8 12.2264C16.8 13.4995 16.2943 14.7204 15.3941 15.6205C14.494 16.5207 13.2731 17.0264 12 17.0264C10.727 17.0264 9.50608 16.5207 8.60591 15.6205C7.70573 14.7204 7.20002 13.4995 7.20002 12.2264C7.20002 10.9534 7.70573 9.73248 8.60591 8.83231C9.50608 7.93213 10.727 7.42642 12 7.42642C13.2731 7.42642 14.494 7.93213 15.3941 8.83231C16.2943 9.73248 16.8 10.9534 16.8 12.2264Z" fill="#9764C7"/>
</svg>
