<svg width="20" height="20" viewBox="0 0 20 20" fill="none" xmlns="http://www.w3.org/2000/svg">
<path d="M19.9895 10.1871C19.9895 9.3677 19.9214 8.76976 19.7742 8.14969H10.1992V11.848H15.8195C15.7062 12.7671 15.0943 14.1512 13.7346 15.0813L13.7155 15.2051L16.7429 17.4969L16.9527 17.5174C18.8789 15.7789 19.9895 13.221 19.9895 10.1871Z" fill="#4285F4"/>
<path d="M10.1992 19.9313C12.9527 19.9313 15.2643 19.0454 16.9527 17.5174L13.7346 15.0813C12.8734 15.6682 11.7176 16.0779 10.1992 16.0779C7.50242 16.0779 5.21351 14.3395 4.39758 11.9366L4.27799 11.9466L1.13003 14.3273L1.08887 14.4391C2.76588 17.6945 6.2106 19.9313 10.1992 19.9313Z" fill="#34A853"/>
<path d="M4.39748 11.9366C4.18219 11.3166 4.05759 10.6521 4.05759 9.96565C4.05759 9.27908 4.18219 8.61473 4.38615 7.99466L4.38045 7.8626L1.19304 5.44366L1.08875 5.49214C0.397576 6.84305 0.000976562 8.36008 0.000976562 9.96565C0.000976562 11.5712 0.397576 13.0882 1.08875 14.4391L4.39748 11.9366Z" fill="#FBBC05"/>
<path d="M10.1993 3.85338C12.1142 3.85338 13.406 4.6617 14.1425 5.33719L17.0207 2.59109C15.2531 0.985525 12.9527 3.05176e-05 10.1993 3.05176e-05C6.21061 3.05176e-05 2.76588 2.23674 1.08887 5.49216L4.38627 7.99467C5.21353 5.59185 7.50244 3.85338 10.1993 3.85338Z" fill="#EB4335"/>
</svg>
