<svg width="75" height="75" viewBox="0 0 75 75" fill="none" xmlns="http://www.w3.org/2000/svg">
<path opacity="0.4" d="M36.7999 68.242C29.6654 63.8353 23.0332 58.6392 17.0247 52.7487C12.7828 48.543 9.54333 43.4077 7.55366 37.7352C3.99855 26.6726 8.13691 14.0296 19.691 10.2762C25.7895 8.36103 32.4221 9.53673 37.522 13.437C42.6239 9.54109 49.2543 8.36578 55.3531 10.2762C66.9072 14.0296 71.0733 26.6726 67.5182 37.7352C65.5447 43.4024 62.3245 48.5372 58.1027 52.7487C52.0887 58.6328 45.4573 63.8283 38.3275 68.242L37.5498 68.75L36.7999 68.242Z" fill="#9764C7"/>
<path d="M37.5341 68.75L36.8 68.242C29.6567 63.8357 23.0152 58.6396 16.9969 52.7487C12.735 48.5488 9.4762 43.4131 7.47037 37.7352C3.94305 26.6726 8.08141 14.0296 19.6355 10.2762C25.7339 8.36103 32.454 9.53763 37.5341 13.4705V68.75Z" fill="#9764C7"/>
<path d="M56.9701 31.2476C56.3424 31.2072 55.7578 30.8934 55.3533 30.3799C54.9488 29.8664 54.76 29.1981 54.831 28.5317C54.8989 26.3369 53.65 24.3391 51.7241 23.5618C50.5029 23.2284 49.7634 21.9058 50.0689 20.6015C50.3587 19.3182 51.5605 18.5202 52.7682 18.8091C52.9208 18.8344 53.0676 18.8896 53.2012 18.972C57.0627 20.4581 59.5629 24.4575 59.3639 28.8305C59.3576 29.4933 59.0992 30.1249 58.6479 30.5807C58.1966 31.0364 57.591 31.2771 56.9701 31.2476Z" fill="#9764C7"/>
</svg>
