<svg width="75" height="75" viewBox="0 0 75 75" fill="none" xmlns="http://www.w3.org/2000/svg">
<path d="M37.5374 46.344C32.5234 46.344 28.4675 42.4378 28.4675 37.5316C28.4675 32.6253 32.5234 28.6878 37.5374 28.6878C42.5514 28.6878 46.5115 32.6253 46.5115 37.5316C46.5115 42.4378 42.5514 46.344 37.5374 46.344Z" fill="#9764C7"/>
<path opacity="0.4" d="M66.3438 44.9066C65.737 43.9691 64.8747 43.0316 63.757 42.4378C62.8628 42.0003 62.2879 41.2816 61.7769 40.4378C60.1482 37.7503 61.1063 34.2191 63.8208 32.6253C67.0145 30.8441 68.0364 26.8753 66.1841 23.7816L64.0444 20.0941C62.224 17.0003 58.232 15.9066 55.0703 17.7191C52.2599 19.2191 48.6512 18.2191 47.0224 15.5628C46.5114 14.6878 46.224 13.7503 46.2879 12.8128C46.3837 11.5941 46.0005 10.4378 45.4256 9.50031C44.244 7.56281 42.1042 6.25031 39.741 6.25031H35.238C32.9066 6.31281 30.7669 7.56281 29.5853 9.50031C28.9785 10.4378 28.6272 11.5941 28.6911 12.8128C28.7549 13.7503 28.4675 14.6878 27.9565 15.5628C26.3278 18.2191 22.719 19.2191 19.9405 17.7191C16.7469 15.9066 12.7868 17.0003 10.9345 20.0941L8.79482 23.7816C6.97446 26.8753 7.99641 30.8441 11.1581 32.6253C13.8727 34.2191 14.8308 37.7503 13.2339 40.4378C12.691 41.2816 12.1162 42.0003 11.222 42.4378C10.1361 43.0316 9.17805 43.9691 8.66707 44.9066C7.48544 46.8441 7.54931 49.2816 8.73095 51.3128L10.9345 55.0628C12.1162 57.0628 14.3198 58.3128 16.6192 58.3128C17.705 58.3128 18.9825 58.0003 20.0044 57.3753C20.8028 56.8441 21.7609 56.6566 22.8148 56.6566C25.9765 56.6566 28.6272 59.2503 28.6911 62.3441C28.6911 65.9378 31.6292 68.7503 35.3338 68.7503H39.6771C43.3498 68.7503 46.2879 65.9378 46.2879 62.3441C46.3837 59.2503 49.0344 56.6566 52.1961 56.6566C53.218 56.6566 54.1761 56.8441 55.0065 57.3753C56.0284 58.0003 57.2739 58.3128 58.3917 58.3128C60.6592 58.3128 62.8628 57.0628 64.0444 55.0628L66.2799 51.3128C67.4296 49.2191 67.5254 46.8441 66.3438 44.9066Z" fill="#9764C7"/>
</svg>
