<svg width="48" height="48" viewBox="0 0 48 48" fill="none" xmlns="http://www.w3.org/2000/svg">
<path d="M24.024 29.6602C20.815 29.6602 18.2192 27.1602 18.2192 24.0202C18.2192 20.8802 20.815 18.3602 24.024 18.3602C27.2329 18.3602 29.7674 20.8802 29.7674 24.0202C29.7674 27.1602 27.2329 29.6602 24.024 29.6602Z" fill="#9764C7"/>
<path opacity="0.4" d="M42.46 28.7402C42.0717 28.1402 41.5198 27.5402 40.8044 27.1602C40.2322 26.8802 39.8642 26.4202 39.5372 25.8802C38.4948 24.1602 39.108 21.9002 40.8453 20.8802C42.8892 19.7402 43.5433 17.2002 42.3578 15.2202L40.9884 12.8602C39.8234 10.8802 37.2685 10.1802 35.245 11.3402C33.4464 12.3002 31.1367 11.6602 30.0943 9.96021C29.7673 9.40021 29.5834 8.80021 29.6242 8.20021C29.6856 7.42021 29.4403 6.68021 29.0724 6.08021C28.3161 4.84021 26.9467 4.00021 25.4342 4.00021H22.5523C21.0602 4.04021 19.6908 4.84021 18.9346 6.08021C18.5462 6.68021 18.3214 7.42021 18.3623 8.20021C18.4031 8.80021 18.2192 9.40021 17.8922 9.96021C16.8498 11.6602 14.5401 12.3002 12.7619 11.3402C10.718 10.1802 8.18357 10.8802 6.9981 12.8602L5.62867 15.2202C4.46364 17.2002 5.1177 19.7402 7.14117 20.8802C8.8785 21.9002 9.49167 24.1602 8.46972 25.8802C8.12225 26.4202 7.75435 26.8802 7.18205 27.1602C6.48712 27.5402 5.87394 28.1402 5.54692 28.7402C4.79067 29.9802 4.83155 31.5402 5.5878 32.8402L6.9981 35.2402C7.75435 36.5202 9.16465 37.3202 10.6363 37.3202C11.3312 37.3202 12.1488 37.1202 12.8028 36.7202C13.3138 36.3802 13.927 36.2602 14.6015 36.2602C16.6249 36.2602 18.3214 37.9202 18.3623 39.9002C18.3623 42.2002 20.2427 44.0002 22.6136 44.0002H25.3933C27.7438 44.0002 29.6242 42.2002 29.6242 39.9002C29.6856 37.9202 31.382 36.2602 33.4055 36.2602C34.0595 36.2602 34.6727 36.3802 35.2041 36.7202C35.8582 37.1202 36.6553 37.3202 37.3707 37.3202C38.8218 37.3202 40.2322 36.5202 40.9884 35.2402L42.4191 32.8402C43.1549 31.5002 43.2163 29.9802 42.46 28.7402Z" fill="#9764C7"/>
</svg>
