<svg width="75" height="75" viewBox="0 0 48 48" fill="none" xmlns="http://www.w3.org/2000/svg">
<path opacity="0.4" d="M32.382 4H15.62C9.54 4 6 7.56 6 13.66V34.32C6 40.52 9.54 44 15.62 44H32.382C38.56 44 42 40.52 42 34.32V13.66C42 7.56 38.56 4 32.382 4Z" fill="#9764C7"/>
<path d="M16.16 31.48H31.84C32.638 31.56 33.24 32.24 33.24 33.06C33.24 33.858 32.638 34.54 31.84 34.62H16.16C15.56 34.7 14.98 34.4 14.66 33.9C14.34 33.38 14.34 32.72 14.66 32.22C14.98 31.7 15.56 31.42 16.16 31.48ZM31.84 22.358C32.7 22.358 33.4 23.06 33.4 23.92C33.4 24.78 32.7 25.48 31.84 25.48H16.16C15.298 25.48 14.6 24.78 14.6 23.92C14.6 23.06 15.298 22.358 16.16 22.358H31.84ZM22.138 13.3C23 13.3 23.7 14 23.7 14.858C23.7 15.74 23 16.44 22.138 16.44H16.16C15.298 16.44 14.6 15.74 14.6 14.88C14.6 14.02 15.298 13.32 16.16 13.32V13.3H22.138Z" fill="#9764C7"/>
</svg>
