<svg width="75" height="75" viewBox="0 0 75 75" fill="none" xmlns="http://www.w3.org/2000/svg">
<path opacity="0.4" d="M68.7494 37.4998C68.7494 54.7623 54.7588 68.7498 37.4994 68.7498C20.24 68.7498 6.24939 54.7623 6.24939 37.4998C6.24939 20.2435 20.24 6.24976 37.4994 6.24976C54.7588 6.24976 68.7494 20.2435 68.7494 37.4998Z" fill="#9764C7"/>
<path d="M48.6672 49.42C48.2578 49.42 47.8453 49.3137 47.4672 49.0918L35.1984 41.7731C34.4922 41.3481 34.0578 40.5825 34.0578 39.7575V23.9856C34.0578 22.6918 35.1078 21.6418 36.4016 21.6418C37.6953 21.6418 38.7453 22.6918 38.7453 23.9856V38.4262L49.8703 45.0606C50.9797 45.7262 51.3453 47.1637 50.6828 48.2762C50.2422 49.0106 49.4641 49.42 48.6672 49.42Z" fill="#9764C7"/>
</svg>
