<svg width="1024" height="1024" viewBox="0 0 1024 1024" fill="none" xmlns="http://www.w3.org/2000/svg">
<rect width="1024" height="1024" fill="#F8F5F7"/>
<path opacity="0.4" d="M861.975 414.875C845.536 414.875 832.148 401.144 831.929 384.056V339.078C832.464 300.899 818.358 264.069 792.727 236.72C767.096 209.371 732.047 193.753 695.321 193.315H663.272C646.678 193.315 633.226 179.33 633.226 162.079C633.226 144.829 646.678 130.844 663.272 130.844H695.321C805.006 132.213 893.23 225.043 893.223 339.078V383.64C893.439 391.846 890.453 399.795 884.945 405.678C879.437 411.561 871.875 414.878 863.978 414.875H861.975ZM160.905 414.878C152.973 414.986 145.33 411.789 139.683 405.997C134.037 400.205 130.858 392.303 130.859 384.056V339.078C130.217 284.082 150.783 231.108 187.967 191.984C225.15 152.859 275.855 130.84 328.761 130.844H361.611C378.205 130.844 391.657 144.829 391.657 162.079C391.657 179.33 378.205 193.315 361.611 193.315H329.162C292.122 193.197 256.597 208.584 230.595 236.006C204.593 263.429 190.305 300.578 190.951 339.078V384.056C190.732 401.144 177.344 414.878 160.905 414.878Z" fill="#9764C7"/>
<path d="M894.567 597.251V714.278C893.285 826.861 806.154 917.994 697.867 920.012H665.418C653.929 921.398 642.695 915.806 636.531 905.633C630.367 895.46 630.367 882.512 636.531 872.338C642.695 862.165 653.929 856.573 665.418 857.959H697.867C774.264 857.729 836.078 793.282 836.078 713.861V597.251H894.567ZM394.204 889.194C393.988 906.351 380.661 920.205 364.158 920.429H331.308C221.622 919.061 133.398 826.231 133.406 712.196V597.251H193.497V714.278C193.496 793.537 255.068 857.917 331.308 858.375H364.158C372.089 858.264 379.733 861.462 385.38 867.253C391.026 873.045 394.204 880.948 394.204 889.194ZM969.482 566.016C969.482 583.266 956.03 597.251 939.436 597.251H86.9348C70.3409 597.251 56.8889 583.266 56.8889 566.016C56.8889 548.765 70.3409 534.781 86.9348 534.781H938.234C946.409 534.44 954.363 537.58 960.261 543.475C966.158 549.37 969.482 557.51 969.482 566.016Z" fill="#9764C7"/>
<path opacity="0.4" d="M724.637 458.794V405.07C724.637 379.113 714.719 354.22 697.063 335.865C679.408 317.511 655.462 307.2 630.493 307.2H401.344C349.35 307.2 307.2 351.018 307.2 405.07V458.794C307.407 465.143 312.31 470.24 318.417 470.455H713.42C719.527 470.24 724.43 465.143 724.637 458.794Z" fill="#9764C7"/>
<path d="M724.637 597.333V643.978C724.637 698.03 682.488 741.847 630.493 741.847H401.344C349.35 741.847 307.2 698.03 307.2 643.978V597.333H724.637Z" fill="#9764C7"/>
</svg>
