<svg width="48" height="48" viewBox="0 0 48 48" fill="none" xmlns="http://www.w3.org/2000/svg">
<path d="M24 28L42 18L24 8L6 18L24 28Z" stroke="#9764C7"/>
<path d="M24 28L36.32 21.156C37.941 25.2722 38.4011 29.7544 37.65 34.114C32.5771 34.6064 27.7944 36.7073 24 40.11C20.2061 36.7076 15.4242 34.6068 10.352 34.114C9.6004 29.7544 10.0605 25.2721 11.682 21.156L24 28Z" stroke="#9764C7"/>
<path d="M16 40V25L24 20.556M24 28L42 18L24 8L6 18L24 28ZM24 28L36.32 21.156C37.941 25.2722 38.4011 29.7543 37.65 34.114C32.5771 34.6064 27.7944 36.7072 24 40.11C20.2061 36.7076 15.4242 34.6068 10.352 34.114C9.6004 29.7544 10.0605 25.2721 11.682 21.156L24 28Z" stroke="#9764C7" stroke-width="3" stroke-linecap="round" stroke-linejoin="round"/>
</svg>
