<svg width="48" height="48" viewBox="0 0 48 48" fill="none" xmlns="http://www.w3.org/2000/svg">
<path opacity="0.4" d="M23.5519 43.6749C18.9858 40.8546 14.7412 37.5291 10.8958 33.7592C8.18101 31.0675 6.10772 27.7809 4.83432 24.1505C2.55906 17.0705 5.20761 8.97896 12.6022 6.57679C16.5052 5.35106 20.7501 6.10351 24.0141 8.59967C27.2793 6.1063 31.5228 5.3541 35.426 6.57679C42.8206 8.97896 45.4869 17.0705 43.2116 24.1505C41.9486 27.7775 39.8876 31.0638 37.1857 33.7592C33.3368 37.525 29.0926 40.8501 24.5296 43.6749L24.0319 44L23.5519 43.6749Z" fill="#9764C7"/>
<path d="M24.0218 44L23.552 43.6749C18.9803 40.8548 14.7297 37.5294 10.878 33.7592C8.1504 31.0713 6.06477 27.7844 4.78104 24.1505C2.52355 17.0705 5.1721 8.97896 12.5667 6.57679C16.4697 5.35106 20.7706 6.10409 24.0218 8.62115V44Z" fill="#9764C7"/>
<path d="M36.4609 19.9984C36.0591 19.9726 35.685 19.7718 35.4261 19.4431C35.1672 19.1145 35.0464 18.6868 35.0918 18.2603C35.1353 16.8556 34.336 15.577 33.1035 15.0795C32.3219 14.8662 31.8485 14.0197 32.0441 13.185C32.2296 12.3636 32.9987 11.8529 33.7717 12.0378C33.8693 12.054 33.9632 12.0894 34.0487 12.1421C36.5202 13.0932 38.1203 15.6528 37.9929 18.4515C37.9889 18.8757 37.8235 19.28 37.5346 19.5716C37.2458 19.8633 36.8583 20.0173 36.4609 19.9984Z" fill="#9764C7"/>
</svg>
